<svg xmlns="http://www.w3.org/2000/svg" viewBox="0 0 48 48"><linearGradient id="eHHOBKrSIwMHAZeeGIX1qa" x1="16.108" x2="32.791" y1="8.149" y2="41.658" gradientUnits="userSpaceOnUse"><stop offset="0" stop-color="#00ade7"/><stop offset="1" stop-color="#0098b5"/></linearGradient><path fill="url(#eHHOBKrSIwMHAZeeGIX1qa)" d="M24,4C15.421,4,8.125,9.412,5.284,17h37.431C39.875,9.412,32.579,4,24,4z M42.716,31H5.284C8.125,38.588,15.421,44,24,44S39.875,38.588,42.716,31z"/><linearGradient id="eHHOBKrSIwMHAZeeGIX1qb" x1="21.479" x2="35.68" y1="17.362" y2="54.756" gradientUnits="userSpaceOnUse"><stop offset="0" stop-color="#dfe9f2"/><stop offset=".998" stop-color="#9ea7b0"/></linearGradient><path fill="url(#eHHOBKrSIwMHAZeeGIX1qb)" d="M44,24c0-2.467-0.468-4.818-1.284-7H5.284C4.468,19.182,4,21.533,4,24s0.468,4.818,1.284,7h37.431C43.532,28.818,44,26.467,44,24z"/><path fill="#ffc107" d="M23.738,24.134l2.102,4.471c0,0,0,0.134,0.134,0v-0.134l-1.711-4.604 M24.134,25.578c0,0.658,0.391,1.053,0.391,1.711s0.267,0.92,0.396,1.182c0.134,0.267-0.128,0.396,0,0.396c0.134,0,0.262-0.128,0.134-0.524c0-0.396-0.262-0.396-0.262-1.187c0-0.786-0.267-0.92-0.267-1.578"/><path fill="#bf360c" d="M24.92,29C24.92,29,24.791,29,24.92,29c-0.128,0-0.128-0.134,0-0.134c0-0.128,0-0.128,0-0.262c0,0,0-0.134-0.128-0.262c-0.134-0.262-0.267-0.529-0.267-1.053c0-0.262,0-0.524-0.128-0.791c-0.134-0.262-0.134-0.524-0.134-0.92h0.134c0,0.396,0.128,0.658,0.128,0.791c0.134,0.262,0.134,0.524,0.134,0.786c0,0.396,0.134,0.791,0.262,0.925c0,0.128,0.134,0.128,0.134,0.262C24.92,28.604,24.92,28.738,24.92,29C24.92,28.866,24.92,28.866,24.92,29C24.92,28.866,24.92,28.866,24.92,29c0.134-0.134,0.134-0.262,0.134-0.529c0-0.128,0-0.128-0.134-0.262c-0.128-0.128-0.128-0.396-0.128-0.92c0-0.396,0-0.524-0.134-0.791c0-0.128-0.134-0.391-0.134-0.658l-0.786-1.706h0.128l0.658,1.578h0.134v0.128l1.316,2.765L24.262,24h0.134l1.711,4.604v0.134c0,0-0.134,0-0.134-0.134l-1.182-2.631c0,0.134,0,0.262,0.128,0.396c0.134,0.262,0.134,0.396,0.134,0.786c0,0.529,0,0.658,0.128,0.925c0,0.128,0.134,0.128,0.134,0.262C25.053,28.604,25.053,28.866,24.92,29C24.92,28.866,24.92,29,24.92,29z"/><path fill="#ffc107" d="M23.738,24l0.128,4.866V29v-0.134L24,24 M23.476,25.578c-0.267,0.658,0,1.187-0.267,1.711c-0.262,0.524-0.128,0.92-0.128,1.182c0,0.267-0.262,0.267-0.134,0.396c0.134,0.134,0.262,0,0.396-0.396c0.134-0.391-0.134-0.524,0.262-1.182s0.134-0.92,0.396-1.578"/><path fill="#bf360c" d="M24,29c-0.134,0-0.134-0.134-0.134-0.134l-0.128-2.76c0,0.128,0,0.262,0,0.391c0,0.267,0,0.529-0.262,0.791c-0.267,0.396-0.267,0.658-0.134,0.791c0,0.128,0,0.262,0,0.262c0,0.262-0.262,0.396-0.262,0.396h-0.134v-0.134c0,0,0.134-0.134,0.134-0.262c0,0,0-0.134,0-0.262c0-0.267-0.134-0.658,0.128-1.053c0.134-0.262,0.134-0.529,0.134-0.791c0-0.262,0-0.524,0.134-0.92h0.128c-0.128,0.262-0.128,0.524-0.128,0.791c0,0.262,0,0.524-0.134,0.786c-0.262,0.396-0.134,0.791-0.134,0.92c0,0.134,0,0.134,0,0.267c0,0.128-0.128,0.262-0.128,0.262s0.128-0.134,0.262-0.396c0-0.134,0-0.134,0-0.262c0-0.262,0-0.396,0.262-0.92c0.134-0.267,0.134-0.529,0.262-0.791c0-0.134,0-0.396,0.134-0.658L23.738,24h0.128v1.711H24c0,0,0,0.128-0.134,0.128L24,28.866V29c0-0.134,0-0.134,0-0.134L24.134,24h0.128L24,29C24.134,29,24.134,29,24,29z"/><path fill="#ffc107" d="M23.738,23.866l-1.711,4.604v0.134h0.134l2.102-4.471 M22.947,25.316c-0.524,0.396-0.524,1.053-0.92,1.449c-0.396,0.391-0.524,0.92-0.524,1.048c0,0.134-0.267,0.267-0.267,0.267c0,0.128,0.267,0,0.529-0.267c0.262-0.262,0.128-0.524,0.658-1.048c0.524-0.529,0.396-0.925,0.92-1.316"/><path fill="#bf360c" d="M22.16,28.604C22.16,28.604,22.027,28.604,22.16,28.604c-0.134,0-0.134-0.134-0.134-0.134l0.92-2.631c-0.128,0.134-0.128,0.267-0.262,0.396c-0.134,0.262-0.262,0.396-0.524,0.658c-0.396,0.262-0.396,0.529-0.529,0.658c0,0.134-0.128,0.134-0.128,0.262c-0.134,0.134-0.267,0.267-0.396,0.267h-0.134c0,0,0-0.134,0.134-0.134c0,0,0.128-0.134,0.262-0.134c0,0,0-0.128,0.134-0.262c0.128-0.262,0.128-0.524,0.524-0.92c0.262-0.134,0.396-0.396,0.396-0.658c0.128-0.262,0.262-0.524,0.524-0.791c-0.262,0.267-0.396,0.529-0.524,0.658c-0.134,0.267-0.262,0.529-0.529,0.658c-0.391,0.267-0.391,0.658-0.524,0.791c0,0.134,0,0.134-0.134,0.262c0.134,0.396,0,0.396,0,0.529c0.134,0,0.267,0,0.396-0.267c0.134-0.128,0.134-0.128,0.134-0.262c0.128-0.128,0.128-0.396,0.524-0.786c0.262-0.267,0.396-0.396,0.529-0.658c0.128-0.134,0.128-0.396,0.391-0.529l0.658-1.711H24l-0.658,1.583c0,0-0.134,0-0.134,0.128L22.16,28.47C22.16,28.471,22.027,28.604,22.16,28.604L24.262,24h0.134L22.16,28.604z"/><path fill="#ffc107" d="M23.866,23.866l-3.289,3.556v0.128h0.134l3.551-3.289 M22.551,24.791c-0.658,0.262-0.786,0.786-1.444,0.92c-0.529,0.128-0.791,0.658-0.92,0.786c-0.134,0.134-0.396,0.134-0.396,0.134s0.262,0.134,0.524,0c0.262-0.134,0.262-0.396,1.053-0.658c0.658-0.262,0.791-0.658,1.449-0.791"/><path fill="#bf360c" d="M20.449,27.551c-0.134-0.128-0.134-0.128,0-0.128l1.973-2.107c-0.134,0.134-0.262,0.134-0.262,0.262c-0.134,0.134-0.396,0.262-0.658,0.396c-0.396,0.134-0.658,0.262-0.791,0.396c-0.134,0.128-0.134,0.128-0.262,0.262c-0.262,0.134-0.396,0.134-0.529,0.134c0,0,0,0,0-0.134s0.134-0.134,0.134-0.134c0.134,0,0.134,0,0.262-0.128l0.134-0.134c0.128-0.262,0.396-0.524,0.786-0.658c0.267-0.128,0.529-0.262,0.658-0.396c0.267-0.128,0.396-0.391,0.791-0.524v0.134c-0.262,0.128-0.524,0.262-0.658,0.524c-0.262,0.134-0.396,0.396-0.658,0.524c-0.396,0.134-0.658,0.396-0.791,0.658c0,0.134-0.128,0.134-0.128,0.134c-0.396,0-0.529,0-0.529,0s0.267,0,0.396-0.134c0.134,0,0.134-0.128,0.262-0.262c0.134-0.128,0.267-0.262,0.791-0.524c0.396-0.134,0.524-0.262,0.658-0.396s0.262-0.262,0.524-0.396l1.316-1.316l-1.182,1.316v0.134h-0.134l-2.102,2.235C20.449,27.422,20.449,27.551,20.449,27.551C20.578,27.551,20.578,27.551,20.449,27.551l3.684-3.417L20.449,27.551C20.578,27.551,20.578,27.551,20.449,27.551z"/><path fill="#bf360c" d="M24.262,25.711c0,0.658,0.396,0.92,0.396,1.578C24.791,26.765,24.396,26.497,24.262,25.711 M23.866,24l1.449,3.027L24.134,24"/><path fill="#bf360c" d="M23.604,25.711c-0.262,0.658,0,1.053-0.262,1.578C23.604,26.893,23.476,26.369,23.604,25.711 M23.866,24L24,27.422L24.134,24"/><path fill="#bf360c" d="M22.947,25.449c-0.396,0.524-0.396,0.92-0.786,1.316C22.551,26.497,22.551,25.973,22.947,25.449 M23.866,24l-1.182,3.155l1.449-3.022"/><path fill="#bf360c" d="M22.551,24.92c-0.524,0.262-0.658,0.791-1.316,0.92C21.765,25.84,21.893,25.316,22.551,24.92 M23.866,23.866l-2.235,2.503l2.503-2.235"/><path fill="#ffc107" d="M23.866,23.738l-4.471,2.102c0,0-0.134,0,0,0.134h0.134l4.604-1.711 M22.422,24.134c-0.658,0-1.053,0.391-1.711,0.391s-0.92,0.267-1.182,0.396c-0.267,0.134-0.396-0.128-0.396,0c0,0.134,0.128,0.262,0.524,0.134c0.396,0,0.396-0.262,1.187-0.262c0.786,0,0.92-0.267,1.578-0.267"/><path fill="#bf360c" d="M19.396,25.973c-0.134-0.134-0.134-0.134,0-0.262l2.631-1.187c-0.134,0-0.262,0-0.396,0.134c-0.262,0.134-0.396,0.134-0.786,0.134c-0.529,0-0.658,0-0.925,0.128c-0.128,0-0.128,0.134-0.262,0.134c-0.262,0-0.396,0-0.524-0.134v-0.128h0.128c0.134,0,0.134,0,0.267,0c0,0,0.128,0,0.262-0.134c0.262-0.134,0.524-0.262,0.786-0.262h0.134c0.262,0,0.524,0,0.791-0.134c0.262-0.128,0.524-0.128,0.92-0.128v0.128c-0.262,0-0.529,0.134-0.791,0.134c-0.262,0.128-0.524,0.128-0.786,0.128c-0.396,0-0.791,0.134-0.925,0.267c-0.128,0-0.128,0.128-0.262,0.128c-0.128,0-0.262,0-0.396,0c0,0,0.267,0.134,0.396,0.134c0.134,0,0.134,0,0.262-0.134c0.134-0.128,0.396-0.128,0.925-0.128c0.391,0,0.524,0,0.786-0.134c0.134,0,0.396-0.134,0.658-0.134L24,23.738v0.128l-1.578,0.658v0.134h-0.134L19.396,25.973C19.396,25.84,19.396,25.84,19.396,25.973C19.396,25.973,19.529,25.84,19.396,25.973L24,24.134v0.128L19.396,25.973C19.529,25.973,19.396,25.973,19.396,25.973z"/><path fill="#ffc107" d="M24,23.738L19.134,24H19h0.134L24,24.134 M22.422,23.476c-0.658-0.267-1.187,0-1.711-0.267c-0.524-0.262-0.92-0.128-1.182-0.128c-0.267,0-0.267-0.262-0.396-0.134c-0.134,0.134,0,0.262,0.396,0.396c0.391,0.134,0.524-0.134,1.182,0.262s0.92,0.134,1.578,0.396"/><path fill="#bf360c" d="M24,24.262l-4.866-0.128c0,0-0.134,0-0.134-0.134s0.134-0.134,0.134-0.134l2.76-0.128c-0.128,0-0.262,0-0.391,0c-0.267,0-0.529,0-0.791-0.262c-0.396-0.267-0.658-0.267-0.791-0.134c-0.128,0-0.262,0-0.262,0c-0.262,0-0.396-0.262-0.396-0.262v-0.134h0.134c0,0,0.134,0.134,0.262,0.134c0,0,0.134,0,0.262,0c0.267,0,0.658-0.134,1.053,0.128c0.262,0.134,0.529,0.134,0.791,0.134c0.262,0,0.524,0,0.92,0.134v0.128c-0.262-0.128-0.524-0.128-0.791-0.128c-0.262,0-0.524,0-0.786-0.134c-0.396-0.262-0.658-0.134-0.92-0.134c-0.134,0-0.134,0-0.267,0c-0.128,0-0.262-0.128-0.262-0.128s0.134,0.128,0.396,0.262c0.134,0,0.262,0,0.262,0c0.262,0,0.396,0,0.92,0.262c0.267,0.134,0.529,0.134,0.791,0.262c0.134,0,0.396,0,0.658,0.134l1.84-0.134V24H22.82v0.134c0,0-0.134,0-0.134-0.134h-3.551L24,24.262z"/><path fill="#ffc107" d="M24.134,23.738l-4.604-1.711h-0.134v0.134l4.471,2.102 M22.684,22.947c-0.396-0.524-1.053-0.524-1.449-0.92c-0.391-0.396-0.92-0.524-1.048-0.524c-0.134,0-0.267-0.267-0.267-0.267c-0.128,0,0,0.267,0.267,0.529c0.262,0.262,0.524,0.128,1.048,0.658c0.529,0.524,0.925,0.396,1.316,0.92"/><path fill="#bf360c" d="M23.866,24.262l-4.471-2.102l-0.134-0.134c0,0,0.134-0.134,0.134,0l2.631,0.92c-0.134-0.128-0.262-0.128-0.396-0.262c-0.262-0.134-0.396-0.262-0.658-0.524c-0.262-0.396-0.524-0.396-0.658-0.529c-0.128,0-0.128-0.128-0.262-0.128c-0.262-0.134-0.262-0.396-0.262-0.396v-0.134c0,0,0.128,0,0.128,0.134c0,0,0.134,0.128,0.134,0.262c0,0,0.134,0,0.262,0.134c0.262,0.128,0.529,0.128,0.92,0.524c0.134,0.262,0.396,0.396,0.658,0.396c0.267,0.128,0.529,0.262,0.791,0.524c-0.262-0.262-0.524-0.396-0.658-0.524c-0.262-0.134-0.524-0.262-0.658-0.529c-0.262-0.391-0.658-0.391-0.791-0.524c-0.128,0-0.128,0-0.262-0.134c-0.262,0.134-0.262,0-0.396,0c0,0.134,0,0.267,0.267,0.396c0.128,0.134,0.128,0.134,0.262,0.134c0.128,0.128,0.396,0.128,0.786,0.524c0.267,0.262,0.396,0.396,0.658,0.529c0.134,0.128,0.396,0.128,0.529,0.391l1.711,0.658V24l-1.583-0.658c0,0,0-0.134-0.128-0.134l-2.893-1.048L23.866,24.262z"/><path fill="#ffc107" d="M24.134,23.866l-3.556-3.289H20.45v0.134l3.289,3.551 M23.209,22.551c-0.262-0.658-0.786-0.786-0.92-1.444c-0.128-0.529-0.658-0.791-0.786-0.92c-0.134-0.134-0.134-0.396-0.134-0.396s-0.134,0.262,0,0.524c0.134,0.262,0.396,0.262,0.658,1.053c0.262,0.658,0.658,0.791,0.791,1.449"/><path fill="#bf360c" d="M23.738,24.262l-3.289-3.551c0,0,0,0,0-0.134c0,0,0,0,0-0.128h0.128l2.107,1.973c-0.134-0.134-0.134-0.262-0.262-0.262c-0.134-0.134-0.262-0.396-0.396-0.658c-0.134-0.396-0.262-0.658-0.396-0.791c-0.128-0.134-0.128-0.134-0.262-0.262c-0.134-0.262-0.134-0.396-0.134-0.529c0,0,0,0,0.134,0s0.134,0.134,0.134,0.134c0,0.134,0,0.134,0.128,0.262l0.134,0.134c0.262,0.128,0.524,0.396,0.658,0.786c0.128,0.267,0.262,0.529,0.396,0.658c0.128,0.267,0.391,0.396,0.524,0.791h-0.134c-0.128-0.262-0.262-0.524-0.524-0.658c-0.134-0.262-0.396-0.396-0.524-0.658c-0.134-0.396-0.396-0.658-0.658-0.791c-0.134,0-0.134-0.128-0.134-0.128c0-0.396,0-0.529,0-0.529s0,0.267,0.134,0.396c0,0.134,0.128,0.134,0.262,0.262c0.128,0.134,0.262,0.267,0.524,0.791c0.134,0.396,0.262,0.524,0.396,0.658s0.262,0.262,0.396,0.524l1.316,1.316l-1.316-1.182h-0.134v-0.134l-2.235-2.102L23.738,24.262z"/><path fill="#bf360c" d="M22.289,24.262c-0.658,0-0.92,0.396-1.578,0.396C21.235,24.791,21.503,24.396,22.289,24.262 M24,23.866l-3.155,1.449L24,24.134"/><path fill="#bf360c" d="M22.289,23.604c-0.658-0.262-1.053,0-1.578-0.262C21.107,23.604,21.631,23.476,22.289,23.604 M24,23.866L20.578,24L24,24.134"/><path fill="#bf360c" d="M22.551,22.947c-0.524-0.396-0.92-0.396-1.316-0.786C21.503,22.551,22.027,22.551,22.551,22.947 M24,23.866l-3.155-1.182l3.022,1.449"/><path fill="#bf360c" d="M23.08,22.551c-0.262-0.524-0.791-0.658-0.92-1.316C22.16,21.765,22.684,21.893,23.08,22.551 M24.134,23.866l-2.503-2.235l2.235,2.503"/><path fill="#ffc107" d="M24.262,23.866l-2.102-4.471c0,0,0-0.134-0.134,0v0.134l1.711,4.604 M23.866,22.422c0-0.658-0.391-1.053-0.391-1.711s-0.267-0.92-0.396-1.182c-0.134-0.267,0.128-0.396,0-0.396c-0.134,0-0.262,0.128-0.134,0.524c0,0.396,0.262,0.396,0.262,1.187c0,0.786,0.267,0.92,0.267,1.578"/><path fill="#bf360c" d="M23.738,24.134l-1.711-4.604v-0.134c0,0,0.134,0,0.134,0.134l1.182,2.631c0-0.134,0-0.267-0.134-0.396c-0.128-0.262-0.128-0.396-0.128-0.791c0-0.524,0-0.658-0.134-0.92c0-0.134-0.128-0.134-0.128-0.262c0-0.262,0-0.396,0.128-0.529h0.134v0.134c0,0.134,0,0.134,0,0.262c0,0,0,0.134,0.128,0.262c0.134,0.267,0.267,0.529,0.267,1.053c0,0.262,0,0.529,0.128,0.791c0.134,0.262,0.134,0.524,0.134,0.92h-0.134c0-0.396-0.128-0.658-0.128-0.791c-0.134-0.262-0.134-0.524-0.134-0.786c0-0.396-0.134-0.791-0.262-0.92c0-0.134-0.134-0.134-0.134-0.267c0-0.128,0-0.262,0-0.391c0,0-0.128,0.262-0.128,0.391c0,0.134,0,0.134,0.128,0.267c0.134,0.128,0.134,0.391,0.134,0.92c0,0.396,0,0.524,0.128,0.786c0,0.134,0.134,0.396,0.134,0.658l0.791,1.711H24l-0.658-1.578h-0.134v-0.134l-1.316-2.76L23.738,24.134z"/><path fill="#ffc107" d="M24.262,24L24,19.134V19v0.134L23.738,24 M24.524,22.422c0.267-0.658,0-1.187,0.267-1.711c0.262-0.524,0.128-0.92,0.128-1.182c0-0.267,0.262-0.267,0.134-0.396c-0.134-0.134-0.262,0-0.396,0.396c-0.134,0.391,0.134,0.524-0.262,1.182s-0.134,0.92-0.396,1.578"/><path fill="#bf360c" d="M24.262,24v-1.711h-0.128c0,0,0-0.128,0.128-0.128L24,19.134L23.738,24h-0.134l0.134-4.866c0,0,0-0.134,0.128-0.134C24,19,24,19.134,24,19.134l0.134,2.76c0-0.128,0-0.262,0-0.391c0-0.267,0-0.529,0.262-0.791c0.262-0.396,0.262-0.658,0.128-0.791c0-0.128,0-0.262,0-0.262c0-0.262,0.267-0.396,0.267-0.396h0.128v0.134c0,0-0.128,0.134-0.128,0.262c0,0,0,0.134,0,0.262c0,0.267,0.128,0.658-0.134,1.053c-0.134,0.262-0.134,0.529-0.134,0.791c0,0.262,0,0.524-0.128,0.92h-0.134c0.134-0.262,0.134-0.524,0.134-0.791c0-0.262,0-0.524,0.128-0.786c0.267-0.396,0.134-0.791,0.134-0.92c0-0.134,0-0.134,0-0.267c0-0.128,0.134-0.262,0.134-0.262s-0.134,0.134-0.267,0.396c0,0.134,0,0.134,0,0.262c0,0.262,0,0.396-0.262,0.92c-0.128,0.267-0.128,0.529-0.262,0.791c0,0.134,0,0.396-0.134,0.658L24.262,24z"/><path fill="#ffc107" d="M24.262,24.134l1.711-4.604v-0.134H25.84l-2.102,4.471 M25.053,22.684c0.524-0.396,0.524-1.053,0.92-1.449c0.396-0.391,0.524-0.92,0.524-1.048c0-0.134,0.267-0.267,0.267-0.267c0-0.128-0.267,0-0.529,0.267c-0.262,0.262-0.128,0.524-0.658,1.048c-0.524,0.529-0.396,0.925-0.92,1.316"/><path fill="#bf360c" d="M24.262,24.134l0.529-1.711c0,0,0.128,0,0.128-0.134l1.053-2.893l-2.107,4.471h-0.128l2.102-4.471l0.134-0.134c0,0,0.134,0.134,0,0.134l-0.92,2.631c0.128-0.134,0.128-0.262,0.262-0.396c0.134-0.262,0.262-0.396,0.524-0.658c0.396-0.262,0.396-0.524,0.529-0.658c0-0.128,0.128-0.128,0.128-0.262c0.134-0.262,0.396-0.262,0.396-0.262h0.134c0,0,0,0.128-0.134,0.128c0,0-0.128,0.134-0.262,0.134c0,0,0,0.134-0.134,0.262c-0.128,0.262-0.128,0.529-0.524,0.92c-0.262,0.134-0.396,0.396-0.396,0.658c-0.128,0.267-0.262,0.529-0.524,0.791c0.262-0.262,0.396-0.524,0.524-0.658c0.134-0.262,0.262-0.524,0.529-0.658c0.391-0.262,0.391-0.658,0.524-0.791c0-0.128,0-0.128,0.134-0.262c0.128-0.128,0.128-0.128,0.262-0.262c-0.134,0-0.262,0-0.396,0.262c-0.134,0.134-0.134,0.134-0.134,0.262c-0.128,0.134-0.128,0.396-0.524,0.791c-0.524,0-0.658,0.262-0.658,0.524c-0.134,0.134-0.134,0.396-0.396,0.529L24.262,24.134z"/><path fill="#ffc107" d="M24.134,24.134l3.289-3.556V20.45h-0.134l-3.551,3.289 M25.449,23.209c0.658-0.262,0.786-0.786,1.444-0.92c0.529-0.128,0.791-0.658,0.92-0.786c0.134-0.134,0.396-0.134,0.396-0.134s-0.262-0.134-0.524,0c-0.262,0.134-0.262,0.396-1.053,0.658c-0.658,0.262-0.791,0.658-1.449,0.791"/><path fill="#bf360c" d="M24.262,24.262l1.053-1.316v-0.128h0.134l2.102-2.24L24,23.866l3.551-3.289c0,0,0,0,0.134,0v0.134l-2.107,1.973c0.134-0.134,0.262-0.134,0.262-0.262c0.134-0.134,0.396-0.262,0.658-0.396c0.396-0.134,0.658-0.262,0.791-0.396c0.134-0.128,0.134-0.128,0.262-0.262c0.262-0.134,0.396-0.134,0.529-0.134c0,0,0,0,0,0.134s-0.134,0.134-0.134,0.134c-0.134,0-0.134,0-0.262,0.128l-0.134,0.134c-0.128,0.262-0.396,0.524-0.786,0.658c-0.267,0.128-0.529,0.262-0.658,0.396c-0.267,0.128-0.396,0.391-0.791,0.524v-0.134c0.262-0.128,0.524-0.262,0.658-0.524c0.262-0.134,0.396-0.396,0.658-0.524c0.396-0.134,0.658-0.396,0.791-0.529c0-0.128,0.128-0.128,0.128-0.128c0.396-0.134,0.529-0.134,0.529-0.134s-0.267,0-0.396,0.134c-0.134,0-0.134,0.128-0.262,0.262c-0.134,0.128-0.267,0.262-0.791,0.524c-0.396,0.134-0.524,0.262-0.658,0.396s-0.262,0.262-0.524,0.396L24.262,24.262z"/><path fill="#bf360c" d="M23.738,22.289c0-0.658-0.396-0.92-0.396-1.578C23.209,21.235,23.604,21.503,23.738,22.289 M24.134,24l-1.449-3.155L23.866,24"/><path fill="#bf360c" d="M24.396,22.289c0.262-0.658,0-1.053,0.262-1.578C24.396,21.107,24.524,21.631,24.396,22.289 M24.134,24L24,20.578L23.866,24"/><path fill="#bf360c" d="M25.053,22.551c0.396-0.524,0.396-0.92,0.786-1.316C25.449,21.503,25.449,22.027,25.053,22.551 M24.134,24l1.182-3.155L23.866,24"/><path fill="#bf360c" d="M25.449,23.08c0.524-0.262,0.658-0.791,1.316-0.92C26.369,22.16,26.107,22.684,25.449,23.08 M24.134,24.134l2.235-2.503l-2.503,2.235"/><path fill="#ffc107" d="M24.134,24.262l4.471-2.102c0,0,0.134,0,0-0.134h-0.134l-4.604,1.711 M25.578,23.866c0.658,0,1.053-0.391,1.711-0.391s0.92-0.267,1.182-0.396c0.267-0.134,0.396,0.128,0.396,0c0-0.134-0.128-0.262-0.524-0.134c-0.396,0-0.396,0.262-1.187,0.262c-0.786,0-0.92,0.267-1.578,0.267"/><path fill="#bf360c" d="M24.134,24.262l1.578-0.786v-0.134h0.128l2.765-1.316L24,23.738v-0.134l4.604-1.711h0.134c0,0.134,0,0.134-0.134,0.134l-2.631,1.182c0.134,0,0.262,0,0.396-0.128c0.262-0.134,0.396-0.134,0.786-0.134c0.134,0,0.134,0,0.267,0c0.391,0,0.524-0.128,0.658-0.128c0.128,0,0.128-0.134,0.262-0.134c0.262,0,0.396,0,0.524,0.134v0.128h-0.128c-0.134,0-0.134,0-0.267,0c0,0-0.128,0-0.262,0.134c-0.262,0.128-0.524,0.262-0.786,0.262h-0.134h-0.134c-0.262,0-0.391,0.134-0.658,0.134c-0.262,0.128-0.524,0.128-0.786,0.128v-0.128c0.262,0,0.524-0.134,0.786-0.134c0.267-0.134,0.529-0.134,0.791-0.134c0.396,0,0.791-0.128,0.92-0.262c0.134,0,0.134-0.128,0.262-0.128c0.134,0,0.267,0,0.396,0c0,0-0.262-0.134-0.396-0.134c-0.128,0-0.128,0-0.262,0.134c-0.128,0.128-0.396,0.128-0.92,0.128c-0.396,0-0.524,0-0.791,0.134c-0.128,0-0.391,0.128-0.524,0.128L24.134,24.262z"/><path fill="#ffc107" d="M24,24.262l4.866-0.128H29h-0.134L24,23.738 M25.578,24.524c0.658,0.267,1.187,0,1.711,0.267c0.524,0.262,0.92,0.128,1.182,0.128c0.267,0,0.267,0.262,0.396,0.134c0.134-0.134,0-0.262-0.396-0.396c-0.391-0.134-0.524,0.134-1.182-0.262s-0.92-0.134-1.578-0.396"/><path fill="#bf360c" d="M28.866,25.182C28.738,25.182,28.738,25.053,28.866,25.182c-0.128-0.128-0.262-0.128-0.396-0.128c0,0-0.128,0-0.262,0c-0.262,0-0.658,0.128-1.053-0.134c-0.262-0.128-0.524-0.128-0.786-0.128s-0.529,0-0.92-0.134v-0.134c0.262,0.134,0.524,0.134,0.786,0.134s0.529,0,0.791,0.134c0.396,0.262,0.658,0.128,0.92,0.128c0.134,0,0.134,0,0.262,0C28.604,24.92,28.738,24.92,28.866,25.182C28.738,25.053,28.866,25.053,28.866,25.182C28.866,25.053,28.866,25.053,28.866,25.182c0-0.128-0.128-0.262-0.396-0.391c-0.128,0-0.128,0-0.262,0c-0.262,0-0.396,0-0.92-0.267c-0.262-0.128-0.524-0.128-0.791-0.262c-0.128,0-0.391,0-0.658-0.128L24,24.262v-0.128h1.711V24c0,0,0.128,0,0.128,0.134L28.866,24L24,23.738v-0.134l4.866,0.134c0,0,0.134,0,0.134,0.128C29,24,28.866,24,28.866,24l-2.76,0.134c0.128,0,0.262,0,0.391,0c0.267,0,0.529,0,0.791,0.262c0.396,0.262,0.658,0.262,0.791,0.128c0.128,0,0.262,0,0.262,0C28.738,24.791,28.866,24.92,28.866,25.182C28.866,25.053,28.866,25.053,28.866,25.182z"/><path fill="#ffc107" d="M23.866,24.262l4.604,1.711h0.134V25.84l-4.471-2.102 M25.316,25.053c0.396,0.524,1.053,0.524,1.449,0.92c0.391,0.396,0.92,0.524,1.048,0.524c0.134,0,0.267,0.267,0.267,0.267c0.128,0,0-0.267-0.267-0.529c-0.262-0.262-0.524-0.128-1.048-0.658c-0.529-0.524-0.925-0.396-1.316-0.92"/><path fill="#bf360c" d="M28.08,26.893C27.947,26.893,27.947,26.893,28.08,26.893c-0.134-0.128-0.134-0.262-0.267-0.262c0,0-0.128,0-0.262-0.134c-0.262-0.128-0.524-0.128-0.92-0.524c-0.134-0.262-0.396-0.396-0.658-0.396c-0.262-0.128-0.524-0.262-0.791-0.524c0.267,0.262,0.529,0.396,0.658,0.524c0.267,0.134,0.529,0.262,0.658,0.529c0.267,0.391,0.658,0.391,0.791,0.524c0.134,0,0.134,0,0.262,0.134C27.947,26.631,27.947,26.765,28.08,26.893C28.08,26.765,28.08,26.765,28.08,26.893C28.08,26.765,28.08,26.765,28.08,26.893c0-0.128,0-0.396-0.267-0.524c-0.128-0.134-0.128-0.134-0.262-0.134c-0.128-0.128-0.396-0.128-0.786-0.524c-0.134-0.262-0.396-0.396-0.658-0.396c-0.134-0.134-0.396-0.134-0.529-0.396l-1.711-0.658v-0.128l1.583,0.658c0,0,0,0.128,0.128,0.128l2.893,1.053L24,23.866v-0.128l4.471,2.102l0.134,0.134c0,0-0.134,0.134-0.134,0l-2.631-0.92c0.134,0.128,0.267,0.128,0.396,0.262c0.262,0.134,0.396,0.262,0.658,0.524c0.262,0.396,0.529,0.396,0.658,0.529c0.134,0,0.134,0.128,0.262,0.128C28.08,26.497,28.209,26.765,28.08,26.893z"/><path fill="#ffc107" d="M23.866,24.134l3.556,3.289h0.128v-0.134l-3.289-3.551 M24.791,25.449c0.262,0.658,0.786,0.786,0.92,1.444c0.128,0.529,0.658,0.791,0.786,0.92c0.134,0.134,0.134,0.396,0.134,0.396s0.134-0.262,0-0.524c-0.134-0.262-0.396-0.262-0.658-1.053c-0.262-0.658-0.658-0.791-0.791-1.449"/><path fill="#bf360c" d="M26.631,28.209c0-0.128,0-0.262-0.134-0.396l-0.128-0.128c-0.262-0.134-0.529-0.396-0.658-0.791c-0.134-0.262-0.262-0.524-0.396-0.658c-0.134-0.262-0.396-0.396-0.524-0.786h0.128c0.134,0.262,0.262,0.524,0.529,0.658c0.128,0.262,0.391,0.391,0.524,0.658c0.134,0.391,0.396,0.658,0.658,0.786c0.134,0,0.134,0.134,0.134,0.134c-0.134,0.262-0.134,0.396-0.134,0.396v0.127C26.631,28.209,26.631,28.08,26.631,28.209c0-0.128,0-0.396-0.134-0.524c0-0.134-0.128-0.134-0.262-0.262c-0.128-0.134-0.262-0.267-0.524-0.791c-0.134-0.396-0.262-0.524-0.396-0.658s-0.262-0.262-0.396-0.524l-1.316-1.316l1.316,1.182h0.134v0.134l2.235,2.102L24,24l3.289,3.551c0,0,0,0,0,0.134c0,0,0,0,0,0.128h-0.134l-1.84-2.235c0.134,0.134,0.134,0.262,0.262,0.262c0.134,0.134,0.262,0.396,0.396,0.658c0.134,0.396,0.262,0.658,0.396,0.791c0.128,0.134,0.128,0.134,0.262,0.262C26.765,27.947,26.765,28.08,26.631,28.209C26.765,28.209,26.765,28.209,26.631,28.209z"/><path fill="#bf360c" d="M25.711,23.738c0.658,0,0.92-0.396,1.578-0.396C26.765,23.209,26.497,23.604,25.711,23.738 M24,24.134l3.027-1.449L24,23.866"/><path fill="#bf360c" d="M25.711,24.396c0.658,0.262,1.053,0,1.578,0.262C26.893,24.396,26.369,24.524,25.711,24.396 M24,24.134L27.422,24L24,23.866"/><path fill="#bf360c" d="M25.449,25.053c0.524,0.396,0.92,0.396,1.316,0.786C26.497,25.449,25.973,25.449,25.449,25.053 M24,24.134l3.155,1.182L24,23.866"/><path fill="#bf360c" d="M24.92,25.449c0.262,0.524,0.791,0.658,0.92,1.316C25.84,26.369,25.316,26.107,24.92,25.449 M23.866,24.134l2.503,2.235l-2.235-2.503"/><path fill="#ffc107" d="M25.973,24c0,1.053-0.92,1.973-1.973,1.973s-1.973-0.92-1.973-1.973s0.92-1.973,1.973-1.973S25.973,22.947,25.973,24z"/><path fill="#bf360c" d="M24,26.107c-1.182,0-2.107-0.925-2.107-2.107s0.925-2.107,2.107-2.107s2.107,0.925,2.107,2.107S25.182,26.107,24,26.107z M24,22.027c-1.053,0-1.973,0.92-1.973,1.973s0.92,1.973,1.973,1.973s1.973-0.92,1.973-1.973S25.053,22.027,24,22.027z"/><path fill="#843511" d="M24.658,23.604c-0.134,0-0.262,0-0.396,0.134c0.134,0.128,0.529,0.128,0.791,0C24.92,23.604,24.791,23.604,24.658,23.604z M24.658,23.604c0.134,0,0.262,0,0.262,0.134c-0.128,0.128-0.396,0.128-0.524,0C24.524,23.604,24.524,23.604,24.658,23.604z"/><path fill="#bf360c" d="M24.658,23.476c-0.262,0-0.262,0-0.396,0.128c-0.128,0.134-0.128,0-0.128,0.134c0,0.128,0,0,0,0s0.128,0,0.128-0.134C24.262,23.476,24.658,23.476,24.658,23.476c0.262,0,0.396,0.262,0.396,0.262C25.182,23.738,25.053,23.476,24.658,23.476z"/><path fill="#bf360c" d="M25.316,23.604c-0.396-0.262-0.791-0.396-1.053-0.128c0,0.128-0.128,0.128-0.128,0.262c0,0.128,0,0.396,0.128,0.524c-0.128-0.262-0.128-0.524-0.128-0.658v-0.128C24.524,23.08,24.92,23.08,25.316,23.604z"/><path fill="#bf360c" d="M24.791,23.738c0,0.128,0,0.128-0.134,0.128s-0.134,0-0.134-0.128c0-0.134,0-0.134,0.134-0.134S24.791,23.604,24.791,23.738z"/><path fill="#bf360c" d="M25.053,23.866C24.791,24.134,24.524,24,24.396,24c-0.134,0-0.134-0.134-0.134-0.134s0,0,0.134,0.134C24.524,24.134,24.791,24,25.053,23.866z"/><path fill="#bf360c" d="M23.738,24.262l-0.134,0.134c0,0.128,0,0.128,0.134,0.128h0.128H24h0.134h0.128c0.134,0,0.134,0,0.134-0.128c0-0.134,0-0.134-0.134-0.134c0,0,0,0,0,0.134c0,0,0,0.128-0.128,0.128c0,0-0.134,0-0.134-0.128l-0.134,0.128C23.866,24.524,23.866,24.396,23.738,24.262c0.128,0.134,0.128,0.134,0,0.134C23.738,24.396,23.604,24.396,23.738,24.262C23.604,24.262,23.604,24.262,23.738,24.262z"/><path fill="#bf360c" d="M23.866,24.658c-0.128,0-0.262,0.134-0.391,0.262C23.604,24.92,23.604,24.791,23.866,24.658L24,24.791c0,0,0.134-0.134,0.262,0c0.134,0.128,0.134,0.128,0.262,0.128c-0.128-0.128-0.262-0.262-0.391-0.262H24C23.866,24.658,23.866,24.658,23.866,24.658z"/><path fill="#bf360c" d="M23.738,24.92c0,0-0.134,0-0.262,0c0.262,0,0.391,0,0.391,0c0.134,0,0.134-0.128,0.529,0c-0.262-0.128-0.396,0-0.529,0C24,24.92,23.866,24.92,23.738,24.92z"/><path fill="#bf360c" d="M23.604,24.92C23.476,24.92,23.476,24.92,23.604,24.92c0.262,0,0.134,0.262,0.396,0.262s0.134-0.128,0.524-0.262c-0.391,0-0.262,0.134-0.524,0.134S23.866,24.92,23.604,24.92z"/><path fill="#bf360c" d="M24.262,25.449c0-0.134-0.128-0.267-0.262-0.267s-0.262,0.134-0.262,0.267c0-0.134,0.128-0.267,0.262-0.267S24.262,25.316,24.262,25.449z"/><path fill="#bf360c" d="M22.818,23.604c0.391-0.262,0.786-0.396,1.048-0.128c0,0.128,0.134,0.128,0.134,0.262c0,0.128,0,0.396-0.134,0.524C24,24,24,23.866,24,23.604v-0.128C23.604,23.08,23.08,23.08,22.818,23.604z"/><path fill="#bf360c" d="M23.342,23.476c0.262,0,0.262,0,0.396,0.128c0.128,0.134,0.128,0,0.128,0.134c0,0.128,0,0,0,0s-0.128,0-0.128-0.134C23.738,23.476,23.342,23.476,23.342,23.476c-0.262,0-0.396,0.262-0.524,0.262C22.818,23.738,22.947,23.476,23.342,23.476z"/><path fill="#843511" d="M23.342,23.604c-0.134,0-0.262,0-0.396,0.134c0.134,0.128,0.529,0.128,0.791,0C23.604,23.604,23.476,23.604,23.342,23.604z M23.342,23.604c0.134,0,0.262,0,0.262,0.134c-0.128,0.128-0.396,0.128-0.524,0C23.08,23.604,23.209,23.604,23.342,23.604z"/><path fill="#bf360c" d="M23.476,23.738c0,0.128,0,0.128-0.134,0.128s-0.134,0-0.134-0.128c0-0.134,0-0.134,0.134-0.134C23.342,23.604,23.476,23.604,23.476,23.738z"/><path fill="#bf360c" d="M22.947,23.866C23.209,24.134,23.476,24,23.604,24c0.134-0.134,0.134-0.134,0.134-0.134s0,0-0.134,0.134C23.476,24.134,23.209,24,22.947,23.866z"/></svg>