<svg xmlns="http://www.w3.org/2000/svg" viewBox="0 0 48 48"><linearGradient id="SlxsiUtVCfzQFTbJQCQiha" x1="18.712" x2="32.389" y1="11.239" y2="48.828" gradientUnits="userSpaceOnUse"><stop offset=".008" stop-color="#f44f5a"/><stop offset=".447" stop-color="#ee3d4a"/><stop offset="1" stop-color="#e52030"/></linearGradient><path fill="url(#SlxsiUtVCfzQFTbJQCQiha)" d="M44,24H24H4c0,11.046,8.954,20,20,20S44,35.046,44,24z"/><linearGradient id="SlxsiUtVCfzQFTbJQCQihb" x1="28.369" x2="38.304" y1="11.499" y2="28.857" gradientUnits="userSpaceOnUse"><stop offset="0" stop-color="#dfe9f2"/><stop offset=".998" stop-color="#9ea7b0"/></linearGradient><path fill="url(#SlxsiUtVCfzQFTbJQCQihb)" d="M44,24c0-11.046-8.954-20-20-20v20H44z"/><linearGradient id="SlxsiUtVCfzQFTbJQCQihc" x1="12.245" x2="20.626" y1="10.196" y2="28.361" gradientUnits="userSpaceOnUse"><stop offset="0" stop-color="#0d61a9"/><stop offset="1" stop-color="#16528c"/></linearGradient><path fill="url(#SlxsiUtVCfzQFTbJQCQihc)" d="M24,4C12.954,4,4,12.954,4,24h20V4z"/><path fill="#f0f4f7" d="M14.99,10.215L16.172,14H20l-3.096,2.149l1.182,3.667l-3.096-2.267l-3.096,2.267l1.182-3.667L9.98,14h3.828L14.99,10.215z"/></svg>