<svg xmlns="http://www.w3.org/2000/svg" viewBox="0 0 48 48"><linearGradient id="_jNvCeq09aA4WK_vBbeNsa" x1="14.755" x2="35.076" y1="11.652" y2="45.989" gradientUnits="userSpaceOnUse"><stop offset="0" stop-color="#0d61a9"/><stop offset="1" stop-color="#16528c"/></linearGradient><path fill="url(#_jNvCeq09aA4WK_vBbeNsa)" d="M43.95,25H4.05c0.183,3.683,1.343,7.105,3.255,10h33.39C42.606,32.105,43.767,28.683,43.95,25z"/><linearGradient id="_jNvCeq09aA4WK_vBbeNsb" x1="7.971" x2="29.035" y1="-1.44" y2="28.433" gradientUnits="userSpaceOnUse"><stop offset="0" stop-color="#ffd000"/><stop offset="1" stop-color="#ffc107"/></linearGradient><path fill="url(#_jNvCeq09aA4WK_vBbeNsb)" d="M44,24c0-11.046-8.954-20-20-20S4,12.954,4,24c0,0.338,0.034,0.667,0.05,1h39.9C43.966,24.667,44,24.338,44,24z"/><linearGradient id="_jNvCeq09aA4WK_vBbeNsc" x1="12.683" x2="28.512" y1="13.98" y2="43.379" gradientUnits="userSpaceOnUse"><stop offset=".008" stop-color="#f44f5a"/><stop offset=".447" stop-color="#ee3d4a"/><stop offset="1" stop-color="#e52030"/></linearGradient><path fill="url(#_jNvCeq09aA4WK_vBbeNsc)" d="M40.695,35H7.305c3.578,5.419,9.715,9,16.695,9S37.117,40.419,40.695,35z"/></svg>