<svg xmlns="http://www.w3.org/2000/svg" viewBox="0 0 48 48"><linearGradient id="4gSiuA7zts7tj5AGHKBUBa" x1="10.874" x2="44.404" y1="10.865" y2="44.394" gradientUnits="userSpaceOnUse"><stop offset="0" stop-color="#21ad64"/><stop offset="1" stop-color="#088242"/></linearGradient><path fill="url(#4gSiuA7zts7tj5AGHKBUBa)" d="M44,24c0,11.05-8.95,20-20,20c-5.98,0-11.33-2.62-14.98-6.77c-0.19-0.2-0.35-0.4-0.52-0.6c-0.14-0.17-0.27-0.33-0.4-0.51C5.53,32.76,4,28.56,4,24c0-4.78,1.68-9.17,4.49-12.61c0.17-0.21,0.34-0.42,0.52-0.62c0.17-0.2,0.35-0.39,0.55-0.58C13.18,6.38,18.31,4,24,4C35.05,4,44,12.95,44,24z"/><linearGradient id="4gSiuA7zts7tj5AGHKBUBb" x1="18.92" x2="26.889" y1="12.085" y2="33.981" gradientUnits="userSpaceOnUse"><stop offset="0" stop-color="#ffd000"/><stop offset="1" stop-color="#ffc107"/></linearGradient><polygon fill="url(#4gSiuA7zts7tj5AGHKBUBb)" points="41.84,23.5 11.189,35.531 9,36.389 9,10.61 11.189,11.469"/><path fill="#fff" d="M9,9.752v1.741l1.81,0.708l2.605,1.025L39.68,23.5L13.415,33.773l-2.605,1.025L9,35.506v1.741L44,23.5L9,9.752z"/><linearGradient id="4gSiuA7zts7tj5AGHKBUBc" x1="9.841" x2="18.365" y1="12.455" y2="35.875" gradientUnits="userSpaceOnUse"><stop offset=".008" stop-color="#f44f5a"/><stop offset=".447" stop-color="#ee3d4a"/><stop offset="1" stop-color="#e52030"/></linearGradient><path fill="url(#4gSiuA7zts7tj5AGHKBUBc)" d="M25.19,23.5L10.81,34.8L8.5,36.63C5.69,33.19,4,28.79,4,24c0-5.07,1.89-9.7,5.01-13.23l1.8,1.43L25.19,23.5z"/><path fill="#343434" d="M13.42,13.23l-2.23-1.76l-1.63-1.28c-0.2,0.19-0.38,0.38-0.55,0.58c-0.18,0.2-0.35,0.41-0.52,0.62L23.87,23.5L8.1,36.12c0.13,0.18,0.26,0.34,0.4,0.51c0.17,0.2,0.33,0.4,0.52,0.6l2.17-1.7l2.23-1.76L26.49,23.5L13.42,13.23z"/></svg>