<?xml version="1.0" encoding="utf-8"?>
<svg xmlns="http://www.w3.org/2000/svg" viewBox="0 0 48 48">
  <path fill="#d50000" d="M24,4C15.421,4,8.125,9.412,5.284,17h37.431C39.875,9.412,32.579,4,24,4z" />
  <path fill="#eceff1" d="M44,24c0-2.467-0.468-4.818-1.284-7H5.284C4.468,19.182,4,21.533,4,24s0.468,4.818,1.284,7h37.431C43.532,28.818,44,26.467,44,24z" />
  <path fill="#424242" d="M42.716,31H5.284C8.125,38.588,15.421,44,24,44S39.875,38.588,42.716,31z" />
  <path fill="#007a3d" d="M28.273,21.973c-0.063-0.035-0.133-0.086-0.156-0.117c-0.035-0.051-0.016-0.051,0.129-0.012c0.258,0.07,0.426,0.043,0.59-0.098l0.145-0.121l0.172,0.086c0.094,0.047,0.191,0.082,0.223,0.074c0.074-0.02,0.227-0.219,0.223-0.285c-0.008-0.086,0.063-0.063,0.098,0.027c0.07,0.184-0.031,0.391-0.207,0.438c-0.086,0.02-0.164,0.012-0.293-0.031c-0.16-0.059-0.188-0.055-0.266,0.004C28.746,22.074,28.496,22.09,28.273,21.973z" />
  <path fill="#007a3d" d="M28.91,21.391c-0.063-0.082-0.137-0.379-0.113-0.453c0.02-0.066,0.043-0.078,0.102-0.059c0.102,0.031,0.125,0.102,0.109,0.34C28.996,21.41,28.969,21.461,28.91,21.391z" />
  <path fill="#007a3d" d="M20.914,21.172c-0.023,0.148,0.258,0.508,0.383,0.574c-0.086,0.039-0.191,0.02-0.27,0.063c-0.438,0.438-2.039,2-2.332,2.375c0.867,0.016,1.828-0.012,2.641-0.051c-0.004-0.586,0.555-0.617,0.93-0.832c0.191,0.305,0.676,0.277,0.734,0.734c0,0.547,0,1.367,0,1.961c-2.449,0-4.949,0-7.398,0C15.473,26.57,15,27,14,27c0,0,1-0.363,1-1c0-0.895-0.262-0.953-0.484-1.352c0.367-0.133,0.422-0.168,0.793-0.418c-0.262,0.793,0.457,0.789,1.152,0.77c0.023-0.27,0.012-0.668-0.195-0.707c0.266-0.098,0.309-0.129,0.734-0.488c0,0.324,0,0.867,0,1.195c1.652,0,3.656,0,5.344,0c0-0.332,0.086-1.012-0.176-1.012c-0.254,0-0.012,0.688-0.207,0.688c-0.199,0-2.637,0-3.957,0c0-0.148-0.008-0.457-0.008-0.68c0.168-0.168,0.148-0.152,1.297-1.301C19.406,22.582,20.211,21.855,20.914,21.172z" />
  <path fill="#007a3d" d="M31.305,21.145c0.273,0.148,0.492,0.355,0.832,0.441c-0.039,0.141-0.164,0.195-0.199,0.344c0,0.996,0,2.074,0,3.07c0.379,0.082,0.457-0.215,0.637-0.328c0.051,0.48,0.355,0.949,0.344,1.324c-0.539,0-1.078,0-1.617,0C31.305,24.379,31.305,22.762,31.305,21.145z" />
  <path fill="#007a3d" d="M29.148,22.746c0,0,0.586-0.496,0.586-0.516c0,0.848,0,1.922,0,2.77h0.426c0-0.992-0.016-2.164-0.016-3.09c0.172-0.172,0.512-0.418,0.594-0.594c0,1.777,0,3.277,0,4.672C29.547,25.988,27.293,26,27,26c0-1-0.039-1.984,1.09-1.77c0-0.164,0-0.262,0-0.395c-0.035-0.066-0.098,0.016-0.109-0.07c0.176-0.18,0.238-0.227,0.723-0.652c0,0.512,0.012,1.887,0.012,1.887c0.117,0,0.348,0,0.426,0C29.145,25,29.148,22.813,29.148,22.746z M27.754,24.813c0.078,0.117,0.348,0.117,0.336-0.086C28.047,24.563,27.687,24.625,27.754,24.813z" />
  <path fill="#007a3d" d="M16.73,26.547c0,0.125-0.102,0.227-0.227,0.227c-0.129,0-0.23-0.102-0.23-0.227s0.102-0.227,0.23-0.227C16.629,26.32,16.73,26.422,16.73,26.547z" />
  <path fill="#007a3d" d="M24,21.148c0.277,0.152,0.496,0.355,0.832,0.441c-0.039,0.141-0.164,0.195-0.195,0.344c0,0.996,0,2.07,0,3.066c0.379,0.082,0.457-0.211,0.637-0.324c0.051,0.48,0.355,0.949,0.344,1.324c-0.539,0-1.078,0-1.617,0C24,24.383,24,22.766,24,21.148z" />
</svg>