<?xml version="1.0" encoding="utf-8"?>
<svg xmlns="http://www.w3.org/2000/svg" viewBox="0 0 48 48">
  <path fill="none" d="M20.958,31h21.757c0.01-0.028,0.02-0.056,0.031-0.083H20.958V31z" />
  <path fill="#ff3d00" d="M42.716,31H20.958L9.914,38.194C13.529,41.781,18.505,44,24,44C32.579,44,39.875,38.588,42.716,31z" />
  <path fill="#eceff1" d="M20.958,30.917h21.788C43.543,28.758,44,26.435,44,24c0-2.467-0.468-4.818-1.284-7H20.958V30.917z" />
  <path fill="#689f38" d="M42.716,17C39.875,9.412,32.579,4,24,4C18.505,4,13.529,6.219,9.914,9.806L20.958,17H42.716z" />
  <path fill="#37474f" d="M20.958,30.917V17L9.914,9.806C6.263,13.43,4,18.45,4,24s2.263,10.57,5.914,14.194L20.958,31V30.917 z" />
</svg>