<?xml version="1.0" encoding="utf-8"?>
<svg xmlns="http://www.w3.org/2000/svg" viewBox="0 0 48 48">
  <path fill="#fdd835" d="M32,5.675C29.549,4.604,26.846,4,24,4s-5.549,0.604-8,1.675v36.649C18.451,43.396,21.154,44,24,44 s5.549-0.604,8-1.675V5.675z" />
  <path fill="#b71c1c" d="M44,24c0-8.199-4.939-15.237-12-18.325v36.649C39.061,39.237,44,32.199,44,24z" />
  <path fill="#0d47a1" d="M4,24c0,8.199,4.939,15.237,12,18.325V5.675C8.939,8.763,4,15.801,4,24z" />
  <path fill="#fdd835" d="M22.369,18.197c-0.013,0-0.026-0.005-0.035-0.015l-0.232-0.231l0.169-0.229l-0.016-1.237 l-0.312,0.049c0.011,0.004-0.06,0.07-0.15,0.121c-0.139-0.273-0.064-0.521-0.062-0.532l0.223,0.151l0.351-0.019l-0.05-0.298 L22.1,15.812c0.071-0.118,0.147-0.14,0.235-0.14c0.168,0,0.323,0.079,0.33,0.083l-0.156,0.247l0.015,0.302l0.271-0.049 c-0.011-0.001,0.036-0.035,0.114-0.13c0.153,0.184,0.09,0.473,0.087,0.484l-0.222-0.124l-0.301,0.016l0.05,1.267l0.105,0.116 l-0.224,0.297C22.396,18.191,22.383,18.197,22.369,18.197L22.369,18.197z" />
  <path fill="#231f20" d="M22.336,15.722c0.158,0,0.306,0.077,0.306,0.077l-0.169,0.169v0.337H22.8 c0,0,0.053-0.032,0.147-0.147c0.063,0.158,0,0.442,0,0.442l-0.137-0.147h-0.337v1.316l0.116,0.147l-0.221,0.232l-0.232-0.232 l0.169-0.158v-1.274h-0.369c0,0-0.074,0.074-0.169,0.126c-0.063-0.232,0.011-0.474,0.011-0.474l0.137,0.168h0.39v-0.348 l-0.169-0.179C22.197,15.737,22.267,15.722,22.336,15.722 M22.336,15.622c-0.098,0-0.184,0.025-0.255,0.073 c-0.024,0.016-0.04,0.043-0.043,0.072c-0.003,0.029,0.007,0.058,0.027,0.079l0.141,0.15v0.208h-0.242l-0.107-0.132 c-0.019-0.024-0.048-0.037-0.078-0.037c-0.006,0-0.013,0.001-0.019,0.002c-0.036,0.007-0.066,0.034-0.076,0.069 c-0.003,0.011-0.081,0.273-0.011,0.529c0.008,0.03,0.029,0.054,0.058,0.066c0.012,0.005,0.026,0.008,0.039,0.008 c0.017,0,0.034-0.004,0.049-0.013c0.068-0.038,0.125-0.084,0.159-0.114h0.23v1.131l-0.137,0.128 c-0.02,0.018-0.031,0.044-0.032,0.071c0,0.027,0.01,0.053,0.029,0.072l0.232,0.232c0.019,0.019,0.044,0.029,0.071,0.029 c0,0,0.001,0,0.001,0c0.027,0,0.053-0.011,0.071-0.031l0.221-0.232c0.034-0.036,0.037-0.092,0.006-0.131l-0.094-0.12v-1.182 h0.193l0.107,0.116c0.019,0.021,0.046,0.032,0.073,0.032c0.009,0,0.018-0.001,0.026-0.003c0.036-0.01,0.063-0.039,0.071-0.075 c0.007-0.032,0.068-0.32-0.005-0.501c-0.013-0.033-0.043-0.056-0.078-0.062c-0.005-0.001-0.01-0.001-0.015-0.001 c-0.03,0-0.058,0.013-0.077,0.037c-0.048,0.059-0.084,0.093-0.104,0.111h-0.192v-0.196l0.139-0.139 c0.023-0.023,0.033-0.055,0.028-0.086c-0.005-0.031-0.025-0.059-0.053-0.073C22.681,15.707,22.516,15.622,22.336,15.622 L22.336,15.622z" />
  <path fill="#b71c1c" d="M26.024,27.96l1.021,1.371l0.056,0.252l0.546,0.504l0.504-0.601l0.07,0.056 c0,0,0.168-0.308-0.21-0.573c-0.378-0.266-0.643-0.126-0.643-0.126l-0.895-1.357L26.024,27.96z" />
  <path fill="#231f20" d="M27.646,30.137c-0.013,0-0.025-0.005-0.034-0.013l-0.545-0.504 c-0.008-0.007-0.013-0.017-0.015-0.026l-0.054-0.241l-1.015-1.362c-0.015-0.02-0.013-0.047,0.004-0.064l0.448-0.475 c0.01-0.011,0.021-0.02,0.041-0.016c0.015,0.001,0.029,0.01,0.037,0.022l0.873,1.322c0.095-0.031,0.338-0.075,0.653,0.146 c0.409,0.288,0.227,0.635,0.225,0.639c-0.007,0.013-0.02,0.021-0.034,0.024c-0.012,0.005-0.029-0.001-0.041-0.01l-0.032-0.025 l-0.472,0.564C27.675,30.131,27.657,30.139,27.646,30.137z M27.146,29.557l0.495,0.458l0.47-0.562 c0.019-0.021,0.049-0.024,0.07-0.007l0.016,0.013c0.023-0.093,0.029-0.278-0.215-0.45c-0.345-0.242-0.582-0.127-0.592-0.123 c-0.022,0.013-0.051,0.006-0.064-0.017l-0.86-1.304l-0.376,0.398l0.996,1.337c0.004,0.006,0.007,0.013,0.009,0.02L27.146,29.557z" />
  <polygon fill="#8d6e63" points="25.59,27.625 26.136,28.296 26.178,27.835 26.443,27.988 26.485,27.653 26.807,27.737 26.304,26.799" />
  <path fill="#231f20" d="M26.136,28.346c-0.015,0-0.029-0.007-0.039-0.019l-0.545-0.671 c-0.016-0.019-0.015-0.046,0.001-0.063l0.713-0.825c0.011-0.014,0.023-0.021,0.043-0.018c0.017,0.002,0.031,0.012,0.039,0.026 l0.503,0.937c0.009,0.018,0.008,0.039-0.005,0.055c-0.012,0.015-0.033,0.022-0.052,0.018l-0.267-0.07l-0.035,0.279 c-0.002,0.017-0.013,0.031-0.027,0.039c-0.015,0.007-0.032,0.007-0.047-0.002l-0.198-0.114l-0.035,0.384 c-0.002,0.02-0.016,0.037-0.035,0.043C26.146,28.345,26.141,28.346,26.136,28.346z M25.656,27.626l0.441,0.543l0.031-0.339 c0.001-0.017,0.012-0.031,0.027-0.039c0.016-0.007,0.034-0.008,0.048,0.001l0.201,0.115l0.032-0.261 c0.002-0.015,0.01-0.027,0.022-0.035c0.012-0.009,0.027-0.011,0.041-0.008l0.211,0.056l-0.415-0.771L25.656,27.626z" />
  <path fill="#b71c1c" d="M22.28,27.96l-1.021,1.371l-0.056,0.252l-0.546,0.504l-0.504-0.601l-0.07,0.056 c0,0-0.168-0.308,0.21-0.573s0.643-0.126,0.643-0.126l0.895-1.357L22.28,27.96z" />
  <path fill="#231f20" d="M20.657,30.137c-0.009,0.002-0.029-0.006-0.039-0.018l-0.472-0.564l-0.032,0.025 c-0.011,0.01-0.027,0.016-0.041,0.01c-0.015-0.003-0.027-0.012-0.034-0.024c-0.002-0.004-0.185-0.351,0.225-0.639 c0.315-0.221,0.559-0.177,0.653-0.146l0.873-1.322c0.009-0.014,0.024-0.024,0.042-0.022c0.014,0,0.027,0.006,0.036,0.016 l0.448,0.475c0.017,0.018,0.019,0.045,0.004,0.064l-1.015,1.362l-0.054,0.241c-0.002,0.01-0.007,0.02-0.015,0.026l-0.545,0.504 C20.682,30.132,20.67,30.137,20.657,30.137z M20.154,29.436c0.014,0,0.028,0.006,0.039,0.018l0.47,0.562l0.495-0.458l0.053-0.236 c0.001-0.007,0.004-0.014,0.009-0.02l0.996-1.337l-0.376-0.398l-0.86,1.304c-0.014,0.022-0.041,0.029-0.065,0.017 c-0.009-0.004-0.246-0.12-0.591,0.123c-0.244,0.172-0.238,0.357-0.215,0.45l0.016-0.013 C20.132,29.438,20.143,29.436,20.154,29.436z" />
  <path fill="#8d6e63" d="M24.709,27.723c0,0,0.629,2.112,2.112,3.287c-0.727,0.336-1.021,0.476-1.021,0.476 s-1.021-1.147-1.119-1.539c0.056,0.937,0.699,1.79,0.699,1.79s-1.035,0.629-1.301,0.993c-0.406-0.42-1.343-0.993-1.343-0.993 s0.518-0.811,0.629-1.609c-0.448,0.643-1.021,1.357-1.021,1.357l-1.133-0.462c0,0,1.273-0.727,2.21-3.287 C23.786,27.793,24.709,27.723,24.709,27.723z" />
  <path fill="#231f20" d="M24.08,32.78c-0.014,0-0.026-0.005-0.036-0.015c-0.396-0.411-1.323-0.979-1.333-0.985 c-0.012-0.007-0.02-0.019-0.023-0.031c-0.003-0.014,0-0.027,0.007-0.039c0.004-0.007,0.421-0.666,0.581-1.366 c-0.417,0.582-0.886,1.166-0.891,1.173c-0.014,0.017-0.036,0.024-0.058,0.015l-1.133-0.462c-0.018-0.007-0.029-0.023-0.031-0.043 c-0.001-0.019,0.008-0.037,0.025-0.046c0.013-0.008,1.269-0.752,2.188-3.262c0.008-0.021,0.024-0.033,0.055-0.032 c0.353,0.059,1.266-0.014,1.275-0.014c0.021-0.001,0.045,0.014,0.052,0.035c0.006,0.021,0.643,2.111,2.096,3.263 c0.013,0.011,0.021,0.027,0.019,0.045c-0.002,0.018-0.013,0.032-0.029,0.039c-0.727,0.336-1.021,0.476-1.021,0.476 c-0.021,0.01-0.045,0.004-0.059-0.012c-0.035-0.038-0.696-0.783-0.994-1.274c0.148,0.788,0.646,1.456,0.651,1.463 c0.008,0.012,0.012,0.025,0.009,0.04c-0.003,0.014-0.011,0.025-0.023,0.033c-0.01,0.006-1.03,0.628-1.286,0.979 c-0.009,0.012-0.022,0.02-0.037,0.021C24.082,32.78,24.081,32.78,24.08,32.78z M22.806,31.721c0.184,0.114,0.896,0.567,1.27,0.935 c0.276-0.329,1.036-0.81,1.233-0.933c-0.133-0.189-0.627-0.942-0.677-1.773c-0.001-0.025,0.017-0.049,0.042-0.053 c0.025,0,0.05,0.013,0.056,0.038c0.085,0.342,0.927,1.312,1.083,1.489c0.092-0.043,0.375-0.177,0.915-0.426 c-1.326-1.091-1.961-2.934-2.054-3.223c-0.176,0.013-0.875,0.058-1.218,0.016c-0.805,2.176-1.836,3.016-2.135,3.223l1.009,0.411 c0.112-0.141,0.604-0.764,0.996-1.324c0.013-0.02,0.039-0.025,0.059-0.019c0.022,0.009,0.035,0.031,0.031,0.054 C23.317,30.839,22.915,31.541,22.806,31.721z" />
  <path fill="#8d6e63" d="M25.902,20.682c0,0-1.043-0.411-1.085-2.075c0.253-0.4,0.19-0.39,0.19-0.39l-0.063-0.516 l0.295,0.211l-0.19-0.484l0.263-0.042l-0.337-0.169l0.253-0.126l-1.137-0.463c0,0-0.537-0.074-0.769,0.011 c-0.232,0.084-0.263,0.253-0.263,0.253l0.379,0.6l-0.326,0.274c0,0,0.221,0.548,0.158,1.338c-0.063,0.79-0.895,1.401-0.895,1.401 L25.902,20.682z" />
  <path fill="#231f20" d="M25.902,20.731c-0.001,0-0.001,0-0.002,0l-3.528-0.179c-0.021-0.001-0.04-0.016-0.045-0.035 c-0.006-0.021,0.001-0.042,0.018-0.055c0.008-0.006,0.814-0.606,0.875-1.364c0.061-0.768-0.153-1.31-0.155-1.315 c-0.008-0.02-0.002-0.043,0.014-0.057l0.293-0.246l-0.356-0.563c-0.006-0.011-0.009-0.023-0.007-0.036 c0.001-0.008,0.04-0.196,0.295-0.29c0.24-0.089,0.77-0.018,0.793-0.014c0.004,0.001,0.008,0.002,0.012,0.004l1.137,0.464 c0.018,0.007,0.03,0.024,0.031,0.044c0.001,0.02-0.01,0.038-0.027,0.047l-0.163,0.081l0.248,0.124 c0.02,0.01,0.03,0.031,0.027,0.053s-0.02,0.038-0.042,0.042l-0.202,0.032l0.167,0.426c0.008,0.021,0.002,0.044-0.016,0.058 c-0.019,0.016-0.042,0.014-0.06,0.002l-0.202-0.146l0.047,0.387c0.019,0.028,0.039,0.068-0.187,0.427 c0.047,1.596,1.043,2.01,1.053,2.014c0.022,0.01,0.036,0.033,0.03,0.058C25.946,20.715,25.926,20.731,25.902,20.731z M22.508,20.46l3.188,0.161c-0.31-0.212-0.897-0.774-0.929-2.013c0-0.01,0.002-0.02,0.007-0.027 c0.146-0.232,0.18-0.315,0.187-0.342c-0.002-0.005-0.004-0.01-0.005-0.016l-0.063-0.517c-0.002-0.02,0.007-0.039,0.024-0.049 c0.017-0.012,0.038-0.009,0.055,0.002l0.158,0.113l-0.128-0.327c-0.006-0.015-0.004-0.03,0.003-0.043 c0.008-0.014,0.021-0.022,0.036-0.025l0.11-0.018l-0.198-0.099c-0.017-0.009-0.027-0.026-0.027-0.045s0.011-0.036,0.027-0.045 l0.154-0.076l-1.029-0.42c-0.06-0.008-0.534-0.065-0.739,0.009c-0.16,0.059-0.211,0.158-0.226,0.198l0.368,0.582 c0.013,0.021,0.009,0.049-0.01,0.064l-0.3,0.251c0.047,0.134,0.204,0.636,0.149,1.326C23.268,19.748,22.738,20.264,22.508,20.46z" />
  <path fill="#8d6e63" d="M24.821,20.743c0,0,1.609-0.727,1.958-0.979c0.35-0.028,0.573-0.028,0.573-0.028l0.042-0.741 l-0.112-0.238l1.133-0.923c0,0,0.825,0.518,1.231,1.357c0.014,0.993,0,10.784,0,10.784s-0.434-0.336-0.699-0.881 c0,0.224-0.028,0.336-0.028,0.336s-1.217-1.077-1.664-3.105s-0.769-4.602-0.769-4.602L24.821,20.743z" />
  <path fill="#231f20" d="M29.646,30.024c-0.011,0-0.021-0.003-0.031-0.011c-0.016-0.012-0.361-0.282-0.625-0.734 c-0.008,0.104-0.021,0.158-0.022,0.161c-0.004,0.018-0.017,0.031-0.034,0.036c-0.017,0.003-0.035,0.002-0.048-0.011 c-0.012-0.011-1.234-1.11-1.68-3.131c-0.42-1.902-0.733-4.313-0.767-4.583l-1.644-0.966c-0.016-0.01-0.025-0.027-0.024-0.046 s0.012-0.035,0.029-0.043c0.016-0.007,1.608-0.728,1.95-0.975c0.007-0.005,0.016-0.008,0.025-0.009 c0.255-0.02,0.446-0.025,0.53-0.027l0.039-0.683l-0.106-0.226c-0.01-0.021-0.004-0.046,0.014-0.061l1.133-0.923 c0.017-0.013,0.041-0.016,0.058-0.003c0.034,0.021,0.842,0.534,1.25,1.377c0.003,0.006,0.005,0.014,0.005,0.021 c0.014,0.982,0,10.688,0,10.785c0,0.02-0.011,0.036-0.028,0.045C29.662,30.022,29.654,30.024,29.646,30.024z M28.947,29.044 c0.019,0,0.037,0.011,0.045,0.028c0.189,0.388,0.468,0.67,0.604,0.794c0.001-1.072,0.013-9.683,0-10.664 c-0.353-0.721-1.029-1.205-1.178-1.307l-1.074,0.875l0.095,0.202c0.003,0.008,0.005,0.016,0.004,0.024l-0.042,0.742 c-0.001,0.026-0.023,0.047-0.05,0.047c-0.002,0-0.22,0.001-0.556,0.026c-0.325,0.227-1.528,0.781-1.868,0.937l1.582,0.93 c0.013,0.008,0.022,0.021,0.024,0.037c0.003,0.025,0.327,2.595,0.769,4.598c0.378,1.714,1.321,2.753,1.582,3.013 c0.006-0.054,0.012-0.131,0.012-0.232c0-0.023,0.016-0.044,0.039-0.049C28.94,29.044,28.943,29.044,28.947,29.044z" />
  <polygon fill="#8d6e63" points="22.713,27.625 22.168,28.296 22.126,27.835 21.86,27.988 21.818,27.653 21.497,27.737 22,26.799" />
  <path fill="#231f20" d="M22.168,28.346c-0.005,0-0.01-0.001-0.015-0.002c-0.02-0.006-0.033-0.023-0.035-0.043l-0.035-0.384 l-0.198,0.114c-0.015,0.009-0.032,0.009-0.047,0.002c-0.015-0.008-0.025-0.022-0.027-0.039l-0.035-0.279l-0.267,0.07 c-0.019,0.006-0.04-0.002-0.052-0.018c-0.013-0.016-0.014-0.037-0.005-0.055l0.503-0.937c0.008-0.015,0.022-0.024,0.039-0.026 s0.033,0.004,0.043,0.018l0.713,0.825c0.016,0.018,0.017,0.045,0.001,0.063l-0.545,0.671 C22.197,28.339,22.183,28.346,22.168,28.346z M22.126,27.785c0.008,0,0.016,0.002,0.023,0.006 c0.015,0.008,0.025,0.022,0.027,0.039l0.031,0.339l0.441-0.543l-0.638-0.738l-0.415,0.771l0.211-0.056 c0.014-0.003,0.028-0.001,0.041,0.008c0.012,0.008,0.02,0.021,0.022,0.035l0.032,0.261l0.201-0.115 C22.109,27.787,22.117,27.785,22.126,27.785z" />
  <path fill="#231f20" d="M20.979,29.745c-0.015,0-0.029-0.006-0.039-0.019l-0.415-0.505l-0.338,0.301 c-0.021,0.019-0.052,0.015-0.07-0.004c-0.019-0.021-0.017-0.052,0.004-0.07l0.377-0.336c0.01-0.01,0.023-0.01,0.037-0.013 c0.014,0.001,0.026,0.008,0.035,0.019l0.448,0.546c0.018,0.021,0.015,0.053-0.007,0.07C21.001,29.741,20.99,29.745,20.979,29.745z" />
  <path fill="#8d6e63" d="M23.349,20.743c0,0-1.609-0.727-1.958-0.979c-0.35-0.028-0.573-0.028-0.573-0.028l-0.042-0.741 l0.112-0.238l-1.133-0.923c0,0-0.825,0.518-1.231,1.357c-0.014,0.993,0,10.784,0,10.784s0.434-0.336,0.699-0.881 c0,0.224,0.028,0.336,0.028,0.336s1.217-1.077,1.664-3.105c0.448-2.028,0.769-4.602,0.769-4.602L23.349,20.743z" />
  <path fill="#231f20" d="M18.523,30.024c-0.007,0-0.015-0.002-0.022-0.005c-0.017-0.009-0.028-0.025-0.028-0.045 c0-0.098-0.014-9.803,0-10.785c0-0.007,0.001-0.015,0.005-0.021c0.407-0.843,1.215-1.355,1.25-1.377 c0.017-0.013,0.042-0.01,0.058,0.003l1.133,0.923c0.018,0.015,0.023,0.04,0.014,0.061l-0.106,0.226l0.039,0.683 c0.084,0.002,0.275,0.007,0.53,0.027c0.009,0.001,0.018,0.004,0.025,0.009c0.341,0.247,1.933,0.968,1.949,0.975 c0.017,0.008,0.028,0.024,0.029,0.043s-0.008,0.036-0.024,0.046l-1.644,0.966c-0.034,0.27-0.347,2.681-0.767,4.583 c-0.446,2.021-1.668,3.12-1.68,3.131c-0.013,0.012-0.032,0.013-0.048,0.011c-0.017-0.005-0.03-0.019-0.034-0.036 c-0.001-0.003-0.014-0.057-0.022-0.161c-0.265,0.451-0.61,0.723-0.626,0.734C18.545,30.021,18.534,30.024,18.523,30.024z M18.573,19.202c-0.013,0.981-0.001,9.592,0,10.664c0.136-0.124,0.416-0.406,0.605-0.794c0.01-0.021,0.034-0.033,0.056-0.027 c0.023,0.005,0.039,0.025,0.039,0.049c0,0.102,0.006,0.179,0.012,0.232c0.26-0.261,1.203-1.299,1.582-3.013 c0.441-2.003,0.765-4.572,0.768-4.598c0.002-0.016,0.011-0.029,0.024-0.037l1.582-0.93c-0.34-0.155-1.542-0.71-1.867-0.937 c-0.335-0.025-0.554-0.026-0.556-0.026c-0.026,0-0.048-0.021-0.05-0.047l-0.042-0.742c0-0.009,0.001-0.017,0.004-0.024 l0.095-0.202l-1.074-0.875C19.602,17.997,18.926,18.481,18.573,19.202z" />
  <path fill="#231f20" d="M19.307,29.157c-0.028,0-0.05-0.022-0.05-0.05V19.036c0-0.009,0.002-0.018,0.006-0.024l0.308-0.545 c0.014-0.024,0.043-0.031,0.068-0.02c0.024,0.014,0.033,0.045,0.019,0.068l-0.302,0.533v10.059 C19.356,29.135,19.334,29.157,19.307,29.157z" />
  <path fill="#231f20" d="M20.062,28.416c-0.028,0-0.05-0.022-0.05-0.05V19.12c0-0.007,0.001-0.014,0.004-0.021l0.168-0.377 c0.011-0.025,0.041-0.036,0.066-0.025c0.025,0.012,0.037,0.041,0.025,0.066l-0.164,0.367v9.235 C20.112,28.394,20.09,28.416,20.062,28.416z" />
  <path fill="#231f20" d="M21.083,20.541c-0.001,0-0.001,0-0.002,0c-0.016-0.001-0.03-0.009-0.039-0.021l-0.908-1.329 l-0.434,0.307c-0.011,0.009-0.025,0.013-0.041,0.008c-0.014-0.004-0.026-0.013-0.033-0.025l-0.235-0.446l-0.358,0.333 c-0.012,0.011-0.028,0.02-0.043,0.013c-0.016-0.002-0.029-0.013-0.036-0.026l-0.238-0.476c-0.012-0.024-0.002-0.055,0.022-0.067 c0.026-0.01,0.056-0.002,0.067,0.022l0.208,0.416l0.357-0.332c0.012-0.011,0.028-0.018,0.042-0.013 c0.016,0.002,0.029,0.012,0.036,0.025l0.239,0.454l0.429-0.304c0.011-0.008,0.023-0.013,0.038-0.008 c0.013,0.002,0.025,0.01,0.033,0.021l0.9,1.317l0.335-0.397c0.01-0.014,0.027-0.018,0.044-0.018 c0.017,0.002,0.031,0.013,0.039,0.028l0.182,0.375l0.3-0.252c0.021-0.018,0.053-0.015,0.07,0.006 c0.018,0.021,0.015,0.053-0.006,0.07l-0.35,0.294c-0.012,0.01-0.029,0.014-0.042,0.011c-0.015-0.003-0.028-0.013-0.035-0.027 l-0.176-0.364l-0.329,0.389C21.112,20.535,21.098,20.541,21.083,20.541z" />
  <path fill="#231f20" d="M20.062,20.415C20.062,20.415,20.062,20.415,20.062,20.415c-0.014,0-0.027-0.006-0.036-0.015 l-0.345-0.358l-0.342,0.291c-0.019,0.014-0.043,0.016-0.062,0.002l-0.424-0.308l-0.25,0.287c-0.018,0.02-0.049,0.022-0.07,0.005 c-0.021-0.019-0.023-0.05-0.005-0.071l0.28-0.321c0.017-0.019,0.046-0.022,0.067-0.007l0.43,0.312l0.348-0.296 c0.02-0.016,0.051-0.015,0.068,0.003l0.342,0.356l0.398-0.386c0.02-0.019,0.05-0.019,0.071,0.001 c0.019,0.021,0.019,0.052-0.001,0.071l-0.434,0.42C20.087,20.41,20.075,20.415,20.062,20.415z" />
  <path fill="#231f20" d="M19.685,21.254c-0.012,0-0.024-0.004-0.034-0.013l-0.357-0.332l-0.344,0.318 c-0.019,0.017-0.048,0.019-0.067,0l-0.377-0.336c-0.021-0.019-0.022-0.05-0.004-0.07c0.018-0.02,0.05-0.023,0.07-0.004 l0.344,0.306l0.344-0.319c0.02-0.018,0.049-0.018,0.068,0l0.362,0.337l0.401-0.271c0.02-0.014,0.045-0.011,0.062,0.005l0.273,0.26 l0.329-0.316c0.02-0.019,0.051-0.02,0.071,0.002c0.019,0.02,0.019,0.051-0.001,0.07l-0.364,0.35c-0.019,0.018-0.049,0.019-0.069,0 l-0.278-0.266l-0.4,0.271C19.704,21.251,19.694,21.254,19.685,21.254z" />
  <path fill="#b71c1c" d="M24.044,20.491h-0.009H20.48l0.299,0.333l0,5.34c0,0.318,0.207,0.679,0.616,0.887l1.754,0.813 c0.396,0.163,0.712,0.366,0.887,0.638v0.009c0.001-0.002,0.003-0.003,0.004-0.004c0.001,0.002,0.003,0.003,0.004,0.004v-0.009 c0.175-0.272,0.491-0.475,0.887-0.638l1.754-0.813c0.409-0.208,0.616-0.569,0.616-0.887v-5.34l0.298-0.333H24.044z" />
  <path fill="#0d47a1" d="M20.779,24.016v2.148c0,0.318,0.206,0.679,0.616,0.887l1.754,0.813 c0.396,0.163,0.712,0.366,0.887,0.638v0.009c0.001-0.002,0.003-0.003,0.004-0.004c0.001,0.002,0.003,0.003,0.004,0.004v-0.009 c0.175-0.272,0.491-0.475,0.887-0.638l1.754-0.813c0.409-0.208,0.616-0.569,0.616-0.887v-2.148H20.779z" />
  <polygon fill="#fdd835" points="24.052,20.974 24.226,21.463 24.694,21.24 24.472,21.709 24.96,21.883 24.472,22.056 24.694,22.525 24.226,22.302 24.052,22.791 23.878,22.302 23.41,22.525 23.633,22.056 23.144,21.883 23.633,21.709 23.41,21.24 23.878,21.463" />
  <path fill="#231f20" d="M24.052,22.841c-0.021,0-0.04-0.013-0.047-0.033l-0.155-0.436l-0.418,0.198 c-0.019,0.011-0.042,0.006-0.057-0.01c-0.015-0.015-0.019-0.037-0.01-0.057l0.199-0.419l-0.437-0.155 c-0.02-0.007-0.033-0.025-0.033-0.047s0.013-0.04,0.033-0.047l0.437-0.155l-0.199-0.419c-0.009-0.02-0.005-0.042,0.01-0.057 c0.015-0.015,0.039-0.021,0.057-0.01l0.418,0.198l0.155-0.436c0.014-0.041,0.08-0.041,0.094,0l0.155,0.436l0.418-0.198 c0.02-0.011,0.042-0.006,0.057,0.01c0.015,0.015,0.019,0.037,0.01,0.057l-0.199,0.419l0.437,0.155 c0.02,0.007,0.033,0.025,0.033,0.047s-0.013,0.04-0.033,0.047l-0.437,0.155l0.199,0.419c0.009,0.02,0.005,0.042-0.01,0.057 c-0.014,0.016-0.037,0.021-0.057,0.01l-0.418-0.198l-0.155,0.436C24.092,22.828,24.073,22.841,24.052,22.841z M23.878,22.253 c0.006,0,0.013,0.001,0.019,0.004c0.013,0.005,0.023,0.016,0.028,0.029l0.127,0.355l0.127-0.355 c0.004-0.014,0.015-0.024,0.028-0.029c0.013-0.006,0.028-0.006,0.041,0.001l0.341,0.162l-0.162-0.342 c-0.006-0.013-0.007-0.027-0.001-0.041c0.005-0.013,0.016-0.022,0.03-0.027l0.356-0.127l-0.356-0.127 c-0.014-0.005-0.024-0.015-0.03-0.027c-0.005-0.014-0.005-0.028,0.001-0.041l0.162-0.342l-0.341,0.162 c-0.012,0.008-0.027,0.008-0.041,0.001c-0.013-0.005-0.023-0.016-0.028-0.029l-0.127-0.355l-0.127,0.355 c-0.004,0.014-0.015,0.024-0.028,0.029c-0.012,0.007-0.028,0.007-0.041-0.001l-0.341-0.162l0.162,0.342 c0.006,0.013,0.007,0.027,0.001,0.041c-0.005,0.013-0.016,0.022-0.03,0.027l-0.356,0.127l0.356,0.127 c0.014,0.005,0.024,0.015,0.03,0.027c0.005,0.014,0.005,0.028-0.001,0.041l-0.162,0.342l0.341-0.162 C23.864,22.254,23.871,22.253,23.878,22.253z" />
  <path fill="#fdd835" d="M22.894,20.942c-0.551,0.572-0.973,2.261,0.288,2.289c0.218,0.19,0.253,0.14,0.253,0.14 l0.274-0.197l0.344,0.197l0.365-0.197l0.232,0.176l0.26-0.133c0,0,0.487-0.017,0.699-0.513c0.221-0.518,0.063-1.116-0.404-1.797 c0,0,0.885,0.632,1.004,1.18s-0.049,1.467-1.095,1.748c0.183,0.33,0.281,0.583,0.281,0.583s-0.857,0.063-0.885,0.73 c-0.028,0.667-0.028,1.011,0.007,1.166c0.035,0.154,0.077,0.372,0.344,0.513c0.267,0.14,0.133,0.379-0.028,0.414 c-0.161,0.035-0.407,0.393-0.744,0.393s-0.576-0.33-0.821-0.386c-0.246-0.056-0.253-0.316-0.084-0.414s0.414-0.204,0.442-0.541 c0.028-0.337,0.035-0.941-0.049-1.215c-0.084-0.274-0.126-0.569-0.864-0.639c0.154-0.288,0.295-0.597,0.295-0.597 s-0.955-0.211-1.088-1.123C21.784,21.805,22.451,21.195,22.894,20.942z" />
  <path fill="#231f20" d="M24.087,27.683c-0.214,0-0.388-0.121-0.542-0.228c-0.103-0.071-0.199-0.139-0.291-0.159 c-0.13-0.03-0.218-0.116-0.235-0.229c-0.017-0.11,0.037-0.219,0.137-0.276l0.05-0.028c0.161-0.092,0.344-0.195,0.368-0.474 c0.026-0.318,0.037-0.924-0.047-1.196l-0.015-0.049c-0.075-0.253-0.146-0.492-0.806-0.555c-0.017-0.002-0.031-0.012-0.039-0.026 s-0.008-0.032,0-0.047c0.114-0.214,0.222-0.44,0.269-0.541c-0.216-0.065-0.951-0.348-1.067-1.149 c-0.125-0.854,0.435-1.503,1-1.826c0.023-0.013,0.05-0.006,0.064,0.013c0.015,0.02,0.014,0.047-0.003,0.065 c-0.375,0.39-0.66,1.271-0.45,1.781c0.113,0.272,0.349,0.415,0.703,0.423c0.012,0,0.023,0.005,0.032,0.012 c0.127,0.111,0.182,0.131,0.197,0.134l0.267-0.192c0.016-0.01,0.037-0.013,0.054-0.002l0.32,0.182l0.341-0.183 c0.016-0.01,0.038-0.009,0.054,0.004l0.207,0.157l0.231-0.12c0.006-0.003,0.014-0.005,0.021-0.005 c0.019-0.001,0.459-0.023,0.655-0.482c0.207-0.484,0.076-1.056-0.399-1.749c-0.014-0.021-0.011-0.047,0.006-0.064 c0.018-0.016,0.045-0.018,0.064-0.005c0.037,0.026,0.902,0.649,1.023,1.209c0.105,0.482,0.012,1.465-1.07,1.791 c0.163,0.301,0.25,0.522,0.253,0.532c0.006,0.016,0.004,0.032-0.004,0.045c-0.009,0.014-0.023,0.022-0.039,0.023 c-0.033,0.003-0.812,0.068-0.838,0.683c-0.029,0.684-0.027,1.007,0.006,1.153l0.003,0.014c0.035,0.151,0.077,0.34,0.315,0.465 c0.127,0.066,0.192,0.168,0.177,0.278c-0.015,0.108-0.106,0.205-0.217,0.229c-0.049,0.011-0.12,0.067-0.196,0.128 C24.5,27.535,24.316,27.683,24.087,27.683z M22.79,24.396c0.659,0.082,0.743,0.366,0.818,0.618l0.015,0.048 c0.088,0.286,0.078,0.908,0.051,1.233c-0.028,0.332-0.253,0.459-0.418,0.553l-0.048,0.027c-0.064,0.037-0.099,0.106-0.089,0.175 c0.011,0.073,0.069,0.127,0.159,0.147c0.111,0.025,0.215,0.098,0.325,0.174c0.149,0.104,0.303,0.211,0.485,0.211 c0.194,0,0.362-0.135,0.497-0.244c0.089-0.07,0.165-0.133,0.237-0.147c0.069-0.015,0.13-0.079,0.139-0.146 c0.009-0.067-0.034-0.129-0.124-0.177c-0.279-0.146-0.332-0.377-0.366-0.53l-0.003-0.015c-0.035-0.155-0.038-0.485-0.008-1.179 c0.024-0.589,0.653-0.736,0.863-0.77c-0.04-0.093-0.126-0.287-0.253-0.517c-0.007-0.014-0.008-0.03-0.002-0.044 c0.006-0.014,0.018-0.024,0.033-0.028c1.067-0.287,1.16-1.231,1.06-1.69c-0.076-0.35-0.487-0.742-0.753-0.967 c0.362,0.613,0.443,1.137,0.248,1.594c-0.205,0.481-0.651,0.536-0.731,0.542l-0.25,0.13c-0.017,0.007-0.038,0.007-0.053-0.005 l-0.206-0.156l-0.337,0.181c-0.015,0.009-0.033,0.009-0.048-0.001l-0.316-0.18l-0.245,0.176c-0.008,0.007-0.021,0.014-0.039,0.016 c-0.031,0.008-0.101-0.007-0.265-0.146c-0.481-0.017-0.687-0.272-0.775-0.484c-0.189-0.459-0.019-1.17,0.276-1.638 c-0.329,0.259-0.81,0.778-0.697,1.553c0.127,0.867,1.04,1.08,1.049,1.082c0.015,0.003,0.027,0.013,0.034,0.026 c0.006,0.014,0.007,0.029,0,0.043C23.05,23.865,22.929,24.131,22.79,24.396z" />
  <path fill="#fdd835" d="M21.89,23.582c0,0-0.414,0.323-0.758,0.435c0.316,0.147,0.751,0.47,0.751,0.47 s0.484-0.386,0.807-0.506C22.234,23.975,21.89,23.582,21.89,23.582z" />
  <path fill="#231f20" d="M21.883,24.537c-0.01,0-0.021-0.003-0.03-0.01c-0.004-0.003-0.435-0.321-0.743-0.465 c-0.019-0.008-0.03-0.027-0.029-0.048c0.001-0.021,0.015-0.038,0.034-0.045c0.332-0.108,0.739-0.424,0.743-0.427 c0.021-0.018,0.051-0.013,0.068,0.006c0.003,0.004,0.336,0.376,0.764,0.384c0.024,0,0.044,0.018,0.048,0.041 c0.004,0.024-0.009,0.048-0.032,0.056c-0.311,0.115-0.788,0.493-0.793,0.497C21.905,24.533,21.894,24.537,21.883,24.537z M21.256,24.024c0.251,0.133,0.533,0.333,0.626,0.4c0.091-0.071,0.371-0.282,0.625-0.414c-0.308-0.069-0.541-0.278-0.623-0.361 C21.788,23.721,21.518,23.913,21.256,24.024z" />
  <path fill="#fdd835" d="M26.187,23.575c0,0-0.569,0.4-0.758,0.421c0.407,0.169,0.744,0.513,0.744,0.513 s0.569-0.351,0.828-0.47C26.664,23.947,26.187,23.575,26.187,23.575z" />
  <path fill="#231f20" d="M26.172,24.559c-0.013,0-0.026-0.005-0.036-0.015c-0.003-0.004-0.335-0.339-0.728-0.502 c-0.021-0.009-0.034-0.03-0.03-0.053c0.003-0.022,0.021-0.04,0.043-0.043c0.145-0.017,0.58-0.303,0.735-0.412 c0.018-0.013,0.042-0.013,0.06,0.002c0.005,0.003,0.474,0.366,0.797,0.454c0.02,0.005,0.035,0.022,0.037,0.044 c0.002,0.021-0.01,0.041-0.029,0.05c-0.254,0.116-0.818,0.464-0.823,0.468C26.19,24.557,26.182,24.559,26.172,24.559z M25.566,24.005c0.294,0.148,0.533,0.364,0.613,0.44c0.108-0.066,0.452-0.274,0.691-0.398c-0.276-0.11-0.589-0.337-0.686-0.41 C26.082,23.708,25.775,23.915,25.566,24.005z" />
  <path fill="#fdd835" d="M25.25,25.303c0,0-0.457,0.093-0.484,0.311c-0.026,0.219-0.06,0.57,0,0.682 s0.265,0.311,0.265,0.311S24.991,25.76,25.25,25.303z" />
  <path fill="#231f20" d="M25.031,26.658c-0.013,0-0.025-0.005-0.035-0.014c-0.009-0.009-0.212-0.206-0.274-0.324 c-0.051-0.097-0.053-0.322-0.006-0.712c0.03-0.248,0.473-0.345,0.523-0.354c0.016-0.005,0.038,0.003,0.05,0.02 c0.011,0.016,0.013,0.037,0.003,0.054c-0.248,0.439-0.212,1.271-0.212,1.279c0.001,0.021-0.011,0.039-0.029,0.048 C25.045,26.657,25.038,26.658,25.031,26.658z M25.156,25.379c-0.137,0.043-0.326,0.127-0.34,0.241 c-0.057,0.47-0.028,0.611-0.005,0.653c0.031,0.059,0.107,0.145,0.168,0.21C24.979,26.249,24.998,25.741,25.156,25.379z" />
  <path fill="#fdd835" d="M22.985,25.337c0,0,0.365,0.063,0.393,0.239c0.028,0.176,0.021,0.548,0,0.66 s-0.218,0.274-0.218,0.274S23.09,25.562,22.985,25.337z" />
  <path fill="#231f20" d="M23.161,26.56c-0.007,0-0.013-0.001-0.02-0.004c-0.017-0.007-0.029-0.023-0.03-0.042 c-0.001-0.01-0.071-0.941-0.171-1.155c-0.008-0.018-0.006-0.037,0.006-0.052c0.011-0.015,0.03-0.025,0.048-0.019 c0.041,0.007,0.401,0.075,0.434,0.28c0.029,0.185,0.021,0.562,0,0.676c-0.024,0.127-0.214,0.286-0.235,0.304 C23.184,26.556,23.172,26.56,23.161,26.56z M23.062,25.406c0.071,0.254,0.122,0.775,0.14,0.998 c0.059-0.06,0.118-0.131,0.127-0.179c0.02-0.105,0.027-0.469,0-0.642C23.315,25.497,23.169,25.438,23.062,25.406z" />
  <polygon fill="#fdd835" points="23.096,24.673 22.858,24.889 23.071,25.155 23.343,24.899" />
  <path fill="#231f20" d="M23.071,25.204c-0.019,0-0.03-0.008-0.039-0.019l-0.212-0.265 c-0.017-0.021-0.014-0.051,0.005-0.068l0.238-0.216c0.02-0.018,0.049-0.018,0.067,0l0.247,0.226 c0.01,0.01,0.016,0.022,0.016,0.037c0,0.014-0.005,0.027-0.016,0.036l-0.272,0.255C23.096,25.199,23.083,25.204,23.071,25.204z M22.927,24.896l0.149,0.186l0.193-0.182l-0.173-0.158L22.927,24.896z" />
  <polygon fill="#fdd835" points="25.03,24.701 24.761,24.927 24.97,25.162 25.221,24.953" />
  <path fill="#231f20" d="M24.97,25.211c-0.014,0-0.027-0.006-0.038-0.017l-0.208-0.234c-0.009-0.01-0.013-0.023-0.012-0.037 s0.007-0.025,0.018-0.034l0.269-0.226c0.011-0.009,0.026-0.012,0.038-0.012c0.014,0.002,0.026,0.009,0.035,0.02l0.191,0.252 c0.016,0.021,0.013,0.052-0.008,0.068l-0.252,0.208C24.992,25.207,24.981,25.211,24.97,25.211z M24.833,24.932l0.142,0.16 l0.178-0.146l-0.131-0.172L24.833,24.932z" />
  <path fill="#fdd835" d="M26.446,25.878c0,0-0.421,0.063-0.583,0.344c-0.161,0.281-0.07,0.66-0.07,0.66 s-0.772-0.442-0.337-0.99C25.892,25.344,26.446,25.878,26.446,25.878z" />
  <path fill="#231f20" d="M25.793,26.932c-0.009,0-0.017-0.002-0.025-0.007c-0.017-0.01-0.418-0.243-0.486-0.593 c-0.031-0.161,0.014-0.32,0.135-0.472c0.13-0.164,0.284-0.253,0.458-0.265c0.324-0.017,0.594,0.235,0.605,0.246 c0.014,0.014,0.019,0.033,0.013,0.052c-0.006,0.018-0.021,0.031-0.041,0.034c-0.004,0-0.399,0.062-0.546,0.318 c-0.149,0.261-0.066,0.62-0.065,0.624c0.004,0.02-0.003,0.04-0.019,0.052C25.814,26.929,25.804,26.932,25.793,26.932z M25.914,25.694c-0.011,0-0.021,0.001-0.032,0.001c-0.144,0.01-0.274,0.087-0.386,0.228c-0.101,0.127-0.14,0.259-0.115,0.39 c0.04,0.209,0.229,0.377,0.345,0.464c-0.016-0.141-0.02-0.381,0.095-0.58c0.121-0.211,0.372-0.307,0.514-0.345 C26.245,25.786,26.087,25.694,25.914,25.694z" />
  <path fill="#fdd835" d="M22.114,26.187c0,0-0.326-0.155-0.393-0.4c-0.084-0.309,0.465-0.53,0.569-0.147 C22.36,25.899,22.114,26.187,22.114,26.187z" />
  <path fill="#231f20" d="M22.114,26.236c-0.007,0-0.015-0.001-0.021-0.005c-0.014-0.007-0.348-0.167-0.42-0.433 c-0.028-0.104,0.002-0.211,0.084-0.293c0.097-0.099,0.244-0.139,0.366-0.109c0.106,0.028,0.183,0.109,0.215,0.229 c0.076,0.281-0.175,0.58-0.186,0.593C22.143,26.23,22.128,26.236,22.114,26.236z M22.04,25.485c-0.075,0-0.156,0.033-0.212,0.091 c-0.033,0.033-0.084,0.103-0.058,0.196c0.047,0.176,0.249,0.304,0.331,0.351c0.057-0.078,0.191-0.287,0.141-0.472 c-0.023-0.085-0.073-0.14-0.144-0.158C22.079,25.488,22.06,25.485,22.04,25.485z" />
  <path fill="#fdd835" d="M22.076,26.168c0,0,0.058-0.357,0.275-0.489c0.273-0.167,0.639,0.299,0.3,0.505 C22.421,26.324,22.076,26.168,22.076,26.168z" />
  <path fill="#231f20" d="M22.417,26.292c-0.184,0-0.351-0.074-0.361-0.078c-0.021-0.01-0.032-0.031-0.029-0.054 c0.002-0.016,0.064-0.381,0.298-0.524c0.092-0.057,0.204-0.056,0.306-0.001c0.121,0.066,0.204,0.195,0.207,0.321 c0.002,0.109-0.055,0.206-0.161,0.271C22.596,26.275,22.504,26.292,22.417,26.292z M22.133,26.137 c0.09,0.033,0.329,0.104,0.491,0.004c0.075-0.046,0.114-0.108,0.112-0.183c-0.002-0.09-0.065-0.187-0.154-0.235 c-0.042-0.023-0.124-0.052-0.207-0.001C22.221,25.816,22.154,26.045,22.133,26.137z" />
  <path fill="#fdd835" d="M22.082,26.139c0,0,0.351-0.083,0.557,0.066c0.259,0.188-0.031,0.705-0.352,0.471 C22.07,26.518,22.082,26.139,22.082,26.139z" />
  <path fill="#231f20" d="M22.454,26.786c-0.066,0-0.133-0.022-0.196-0.069c-0.236-0.173-0.227-0.562-0.226-0.579 c0-0.022,0.016-0.042,0.038-0.047c0.015-0.004,0.377-0.087,0.598,0.075c0.088,0.063,0.131,0.166,0.118,0.282 c-0.014,0.137-0.102,0.263-0.217,0.313C22.532,26.778,22.493,26.786,22.454,26.786z M22.133,26.181 c0.004,0.097,0.03,0.343,0.185,0.456c0.071,0.052,0.144,0.064,0.211,0.034c0.083-0.037,0.148-0.133,0.159-0.233 c0.005-0.047,0.001-0.134-0.078-0.191C22.463,26.141,22.227,26.167,22.133,26.181z" />
  <path fill="#fdd835" d="M22.111,26.134c0,0,0.211,0.293,0.152,0.54c-0.075,0.311-0.663,0.241-0.569-0.145 C21.757,26.268,22.111,26.134,22.111,26.134z" />
  <path fill="#231f20" d="M21.982,26.92c-0.098,0-0.194-0.035-0.26-0.098c-0.08-0.075-0.107-0.184-0.078-0.304 c0.07-0.284,0.434-0.425,0.449-0.431c0.021-0.008,0.044-0.001,0.058,0.018c0.009,0.013,0.224,0.313,0.16,0.581 c-0.026,0.105-0.104,0.185-0.216,0.217C22.059,26.914,22.021,26.92,21.982,26.92z M22.093,26.197 c-0.087,0.041-0.305,0.159-0.351,0.345c-0.021,0.085-0.003,0.157,0.05,0.208c0.064,0.062,0.179,0.084,0.276,0.058 c0.045-0.014,0.124-0.05,0.146-0.145C22.257,26.486,22.143,26.277,22.093,26.197z" />
  <path fill="#fdd835" d="M22.127,26.163c0,0-0.23,0.279-0.484,0.284c-0.32,0.007-0.401-0.58-0.005-0.587 C21.907,25.854,22.127,26.163,22.127,26.163z" />
  <path fill="#231f20" d="M21.637,26.496c-0.105,0-0.199-0.056-0.258-0.153c-0.071-0.117-0.078-0.271-0.017-0.381 c0.053-0.097,0.151-0.15,0.275-0.152c0.002,0,0.005,0,0.007,0c0.289,0,0.513,0.312,0.522,0.324 c0.013,0.019,0.012,0.044-0.002,0.062c-0.01,0.012-0.247,0.296-0.521,0.301C21.642,26.496,21.639,26.496,21.637,26.496z M21.645,25.909c-0.002,0-0.003,0-0.005,0c-0.088,0.002-0.154,0.036-0.189,0.102c-0.043,0.078-0.038,0.194,0.015,0.281 c0.024,0.039,0.078,0.104,0.173,0.104c0.001,0,0.003,0,0.004,0c0.181-0.004,0.354-0.167,0.419-0.235 C22,26.087,21.833,25.909,21.645,25.909z" />
  <circle cx="22.107" cy="26.145" r=".309" fill="#fdd835" />
  <path fill="#231f20" d="M22.107,26.503c-0.198,0-0.359-0.161-0.359-0.358s0.161-0.358,0.359-0.358s0.359,0.161,0.359,0.358 S22.306,26.503,22.107,26.503z M22.107,25.886c-0.143,0-0.259,0.116-0.259,0.259s0.116,0.259,0.259,0.259s0.259-0.116,0.259-0.259 S22.25,25.886,22.107,25.886z" />
  <circle cx="20.524" cy="28.504" r=".165" fill="#fdd835" />
  <path fill="#231f20" d="M20.524,28.719c-0.119,0-0.215-0.097-0.215-0.215s0.096-0.215,0.215-0.215s0.215,0.097,0.215,0.215 S20.643,28.719,20.524,28.719z M20.524,28.389c-0.063,0-0.115,0.052-0.115,0.115s0.052,0.115,0.115,0.115s0.115-0.052,0.115-0.115 S20.587,28.389,20.524,28.389z" />
  <circle cx="20.159" cy="28.714" r=".165" fill="#fdd835" />
  <path fill="#231f20" d="M20.159,28.929c-0.119,0-0.215-0.097-0.215-0.215s0.096-0.215,0.215-0.215s0.215,0.097,0.215,0.215 S20.278,28.929,20.159,28.929z M20.159,28.599c-0.063,0-0.115,0.052-0.115,0.115s0.052,0.115,0.115,0.115s0.115-0.052,0.115-0.115 S20.223,28.599,20.159,28.599z" />
  <circle cx="19.78" cy="26.938" r=".165" fill="#fdd835" />
  <path fill="#231f20" d="M19.78,27.152c-0.119,0-0.215-0.097-0.215-0.215s0.096-0.215,0.215-0.215s0.215,0.097,0.215,0.215 S19.898,27.152,19.78,27.152z M19.78,26.822c-0.063,0-0.115,0.052-0.115,0.115s0.052,0.115,0.115,0.115s0.115-0.052,0.115-0.115 S19.843,26.822,19.78,26.822z" />
  <circle cx="19.415" cy="27.149" r=".165" fill="#fdd835" />
  <path fill="#231f20" d="M19.415,27.363c-0.118,0-0.214-0.097-0.214-0.215s0.096-0.215,0.214-0.215 c0.119,0,0.215,0.097,0.215,0.215S19.533,27.363,19.415,27.363z M19.415,27.033c-0.063,0-0.115,0.052-0.115,0.115 s0.052,0.115,0.115,0.115c0.063,0,0.115-0.052,0.115-0.115S19.478,27.033,19.415,27.033z" />
  <circle cx="19.064" cy="25.372" r=".165" fill="#fdd835" />
  <path fill="#231f20" d="M19.064,25.587c-0.119,0-0.215-0.097-0.215-0.215s0.096-0.215,0.215-0.215 c0.118,0,0.214,0.097,0.214,0.215S19.182,25.587,19.064,25.587z M19.064,25.257c-0.063,0-0.115,0.052-0.115,0.115 s0.052,0.115,0.115,0.115c0.063,0,0.115-0.052,0.115-0.115S19.127,25.257,19.064,25.257z" />
  <circle cx="18.699" cy="25.583" r=".165" fill="#fdd835" />
  <path fill="#231f20" d="M18.699,25.798c-0.119,0-0.215-0.097-0.215-0.215s0.096-0.215,0.215-0.215s0.215,0.097,0.215,0.215 S18.817,25.798,18.699,25.798z M18.699,25.468c-0.063,0-0.115,0.052-0.115,0.115s0.052,0.115,0.115,0.115s0.115-0.052,0.115-0.115 S18.762,25.468,18.699,25.468z" />
  <circle cx="18.469" cy="24.103" r=".165" fill="#fdd835" />
  <path fill="#231f20" d="M18.469,24.318c-0.119,0-0.215-0.097-0.215-0.215s0.096-0.215,0.215-0.215s0.215,0.097,0.215,0.215 S18.587,24.318,18.469,24.318z M18.469,23.988c-0.063,0-0.115,0.052-0.115,0.115s0.052,0.115,0.115,0.115s0.115-0.052,0.115-0.115 S18.532,23.988,18.469,23.988z" />
  <circle cx="18.104" cy="24.314" r=".165" fill="#fdd835" />
  <path fill="#231f20" d="M18.104,24.528c-0.119,0-0.215-0.097-0.215-0.215s0.096-0.215,0.215-0.215s0.215,0.097,0.215,0.215 S18.222,24.528,18.104,24.528z M18.104,24.198c-0.063,0-0.115,0.052-0.115,0.115s0.052,0.115,0.115,0.115s0.115-0.052,0.115-0.115 S18.167,24.198,18.104,24.198z" />
  <path fill="#231f20" d="M23.354,20.563c-0.013,0-0.026-0.005-0.036-0.016c-0.019-0.02-0.019-0.051,0.001-0.07 c0.474-0.453,0.428-1.802,0.427-1.815c-0.001-0.027,0.021-0.051,0.048-0.052c0,0,0.001,0,0.002,0c0.027,0,0.049,0.021,0.05,0.048 c0.002,0.058,0.048,1.408-0.458,1.892C23.378,20.559,23.366,20.563,23.354,20.563z" />
  <path fill="#231f20" d="M24.565,20.511c-0.018,0-0.036-0.01-0.044-0.026c-0.266-0.511-0.269-1.761-0.269-1.813 c0-0.027,0.022-0.05,0.05-0.05s0.05,0.022,0.05,0.05c0,0.013,0.003,1.277,0.258,1.767c0.013,0.024,0.003,0.055-0.021,0.067 C24.581,20.509,24.573,20.511,24.565,20.511z" />
  <path fill="#231f20" d="M24.712,17.361c-0.01,0-0.021-0.003-0.03-0.01l-0.49-0.367l-0.422,0.051 c-0.006,0-0.012,0-0.017-0.001l-0.685-0.158c-0.027-0.006-0.044-0.033-0.038-0.061c0.006-0.025,0.034-0.042,0.06-0.037 l0.676,0.156l0.434-0.052c0.012-0.001,0.026,0.002,0.036,0.01l0.506,0.379c0.022,0.017,0.027,0.048,0.01,0.07 C24.743,17.354,24.728,17.361,24.712,17.361z" />
  <path fill="#b71c1c" d="M22.364,17.207l0.147-0.295l0.59-0.021l0.379,0.506l0.232,0.326l-0.337-0.095l-0.253,0.179 l-0.674-0.484l0.906,0.169C23.354,17.491,22.943,17.059,22.364,17.207z" />
  <path fill="#231f20" d="M23.122,17.856c-0.01,0-0.021-0.003-0.029-0.009l-0.674-0.484 c-0.019-0.014-0.026-0.039-0.017-0.061c0.009-0.021,0.029-0.037,0.055-0.029l0.709,0.132c-0.164-0.108-0.45-0.238-0.79-0.149 c-0.02,0.005-0.039-0.003-0.051-0.018s-0.015-0.036-0.006-0.054l0.147-0.295c0.008-0.017,0.025-0.026,0.043-0.027l0.59-0.021 c0.001,0,0.001,0,0.002,0c0.016,0,0.031,0.007,0.04,0.02l0.379,0.506l0.232,0.327c0.013,0.018,0.013,0.041,0,0.058 c-0.012,0.018-0.033,0.028-0.055,0.02l-0.314-0.088l-0.233,0.165C23.142,17.854,23.132,17.856,23.122,17.856z M22.659,17.412 l0.463,0.333l0.224-0.158c0.012-0.008,0.028-0.013,0.042-0.007l0.201,0.057l-0.15-0.211l-0.363-0.484l-0.534,0.02l-0.088,0.177 c0.542-0.078,0.919,0.303,0.935,0.319c0.015,0.016,0.018,0.039,0.008,0.058c-0.01,0.02-0.029,0.031-0.053,0.025L22.659,17.412z" />
  <g>
    <circle cx="23.691" cy="17.238" r=".232" fill="#fdd835" />
    <path fill="#231f20" d="M23.69,17.52c-0.155,0-0.281-0.126-0.281-0.281s0.126-0.281,0.281-0.281s0.282,0.126,0.282,0.281 S23.846,17.52,23.69,17.52z M23.69,17.057c-0.1,0-0.182,0.082-0.182,0.182s0.082,0.182,0.182,0.182s0.182-0.082,0.182-0.182 S23.791,17.057,23.69,17.057z" />
  </g>
  <g>
    <path fill="#231f20" d="M28.863,29.157c-0.028,0-0.05-0.022-0.05-0.05V19.049l-0.301-0.533 c-0.014-0.023-0.005-0.055,0.019-0.068c0.024-0.012,0.054-0.005,0.068,0.02l0.308,0.545c0.004,0.008,0.006,0.016,0.006,0.024 v10.071C28.913,29.135,28.891,29.157,28.863,29.157z" />
  </g>
  <g>
    <path fill="#231f20" d="M28.108,28.416c-0.028,0-0.05-0.022-0.05-0.05v-9.235l-0.164-0.367 c-0.011-0.025,0-0.055,0.025-0.066c0.025-0.012,0.054,0,0.066,0.025l0.168,0.377c0.002,0.007,0.004,0.014,0.004,0.021v9.246 C28.158,28.394,28.136,28.416,28.108,28.416z" />
  </g>
  <g>
    <path fill="#231f20" d="M27.087,20.541c-0.015,0-0.029-0.006-0.038-0.018l-0.328-0.389l-0.176,0.364 c-0.007,0.015-0.02,0.024-0.035,0.027c-0.014,0.004-0.03,0-0.042-0.011l-0.35-0.294c-0.021-0.018-0.024-0.049-0.006-0.07 c0.018-0.021,0.049-0.024,0.07-0.006l0.3,0.252l0.182-0.375c0.007-0.016,0.022-0.026,0.039-0.028 c0.015,0.001,0.034,0.004,0.044,0.018l0.335,0.397l0.9-1.317c0.008-0.011,0.02-0.019,0.033-0.021c0.013-0.005,0.027,0,0.038,0.008 l0.429,0.304l0.239-0.454c0.007-0.014,0.021-0.023,0.036-0.025c0.016-0.005,0.031,0.002,0.042,0.013l0.356,0.332l0.208-0.416 c0.012-0.024,0.043-0.032,0.067-0.022c0.024,0.013,0.035,0.043,0.022,0.067l-0.238,0.476c-0.007,0.014-0.021,0.024-0.036,0.026 c-0.016,0.007-0.032-0.002-0.043-0.013l-0.357-0.333l-0.235,0.446c-0.007,0.013-0.019,0.021-0.033,0.025 c-0.015,0.003-0.03,0-0.041-0.008l-0.434-0.307l-0.908,1.329C27.119,20.533,27.102,20.537,27.087,20.541z" />
  </g>
  <g>
    <path fill="#231f20" d="M28.108,20.415c-0.013,0-0.025-0.005-0.035-0.014l-0.434-0.42c-0.02-0.02-0.021-0.051-0.001-0.071 c0.02-0.019,0.051-0.02,0.071-0.001l0.398,0.386l0.343-0.356c0.019-0.018,0.05-0.019,0.068-0.003l0.348,0.296l0.43-0.312 c0.021-0.017,0.05-0.012,0.067,0.007l0.28,0.321c0.018,0.021,0.016,0.053-0.005,0.071c-0.021,0.018-0.052,0.015-0.07-0.005 l-0.25-0.287l-0.424,0.308c-0.019,0.014-0.045,0.012-0.062-0.002l-0.342-0.291L28.144,20.4 C28.135,20.409,28.122,20.415,28.108,20.415C28.108,20.415,28.108,20.415,28.108,20.415z" />
  </g>
  <g>
    <path fill="#231f20" d="M28.486,21.254c-0.01,0-0.02-0.003-0.028-0.009l-0.4-0.271l-0.279,0.266 c-0.021,0.02-0.051,0.017-0.069,0l-0.363-0.35c-0.02-0.02-0.021-0.051-0.001-0.071c0.019-0.02,0.051-0.019,0.071-0.001 l0.329,0.316l0.273-0.26c0.018-0.015,0.044-0.018,0.062-0.005l0.401,0.271l0.362-0.337c0.02-0.018,0.049-0.018,0.068,0 l0.344,0.319l0.344-0.306c0.02-0.02,0.051-0.016,0.071,0.004c0.018,0.021,0.016,0.052-0.004,0.07l-0.378,0.336 c-0.019,0.019-0.048,0.017-0.067,0l-0.343-0.318l-0.357,0.332C28.51,21.25,28.498,21.254,28.486,21.254z" />
  </g>
  <g>
    <path fill="#231f20" d="M27.325,29.745c-0.011,0-0.022-0.004-0.032-0.011c-0.021-0.018-0.024-0.05-0.007-0.07l0.448-0.546 c0.01-0.012,0.024-0.019,0.039-0.019c0.012,0,0.024,0.004,0.033,0.013l0.377,0.336c0.021,0.019,0.022,0.05,0.004,0.07 c-0.019,0.019-0.051,0.022-0.07,0.004l-0.338-0.301l-0.415,0.505C27.354,29.739,27.339,29.745,27.325,29.745z" />
  </g>
  <g>
    <path fill="#fdd835" d="M30.104,23.641c0,0,0.126,0.663-0.158,0.779c0.116,0.316,0.4,0.232,0.4,0.232 s0.063-0.411,0.59-0.569c-0.105-0.253-0.369-0.432-0.369-0.432L30.104,23.641z" />
    <path fill="#231f20" d="M30.263,24.714c-0.123,0-0.284-0.058-0.364-0.275c-0.009-0.025,0.003-0.054,0.028-0.063 c0.202-0.083,0.161-0.551,0.128-0.724c-0.002-0.016,0.001-0.03,0.011-0.042c0.009-0.012,0.023-0.018,0.038-0.018 c0,0,0.001,0,0.001,0l0.463,0.011c0.01,0,0.019,0.003,0.027,0.009c0.011,0.007,0.276,0.189,0.387,0.453 c0.005,0.014,0.005,0.028-0.001,0.041c-0.006,0.013-0.018,0.022-0.031,0.026c-0.488,0.146-0.552,0.513-0.555,0.528 c-0.003,0.019-0.017,0.035-0.035,0.04C30.334,24.708,30.3,24.714,30.263,24.714z M30.01,24.443 c0.084,0.176,0.23,0.175,0.295,0.167c0.027-0.104,0.142-0.408,0.562-0.557c-0.095-0.183-0.27-0.317-0.316-0.352l-0.388-0.009 C30.187,23.856,30.227,24.301,30.01,24.443z" />
  </g>
  <g>
    <polygon fill="#fdd835" points="30.936,23.052 30.547,23.294 30.578,23.378 30.441,23.452 30.462,23.768 30.831,23.715 30.831,23.484 30.957,23.505" />
    <path fill="#231f20" d="M30.462,23.817c-0.011,0-0.022-0.004-0.031-0.011c-0.011-0.009-0.018-0.021-0.019-0.036 l-0.021-0.315c-0.001-0.02,0.009-0.037,0.026-0.047l0.099-0.054L30.5,23.312c-0.008-0.022,0-0.048,0.021-0.06l0.39-0.242 c0.013-0.012,0.033-0.012,0.05-0.002c0.016,0.008,0.026,0.023,0.026,0.042l0.021,0.453c0.001,0.015-0.005,0.029-0.017,0.039 c-0.012,0.011-0.026,0.017-0.042,0.012l-0.068-0.011v0.172c0,0.024-0.018,0.046-0.042,0.05l-0.369,0.053 C30.467,23.817,30.465,23.817,30.462,23.817z M30.494,23.48l0.015,0.229l0.272-0.038v-0.188c0-0.015,0.006-0.028,0.018-0.038 s0.025-0.017,0.041-0.011l0.065,0.011l-0.014-0.306l-0.283,0.175l0.017,0.046c0.009,0.023-0.001,0.05-0.023,0.062L30.494,23.48z" />
  </g>
  <g>
    <path fill="#fdd835" d="M30.094,24.558l-0.19,0.042l0.021,0.19l-0.6,1.201l-0.19,0.074l0.053,0.074l-0.169,0.095l0.021,0.2 l-0.169,0.063l0.053,0.2l-0.621,1.264c0,0-0.411,0.095-0.284,0.621c0.126,0.527,0.169,0.053,0.169,0.053s0.432,0.021,0.358-0.632 c0.326-0.621,0.621-1.222,0.621-1.222l0.169-0.063l-0.042-0.179l0.169-0.053l-0.063-0.2l0.158-0.063l-0.042-0.169l0.632-1.18 l0.126-0.063l-0.053-0.2L30.094,24.558z" />
    <path fill="#231f20" d="M28.123,28.88c-0.062,0-0.102-0.077-0.153-0.287c-0.046-0.191-0.03-0.353,0.048-0.478 c0.079-0.128,0.199-0.181,0.25-0.198l0.603-1.227l-0.048-0.183c-0.006-0.024,0.007-0.051,0.031-0.06l0.132-0.049l-0.017-0.162 c-0.002-0.02,0.008-0.039,0.025-0.049l0.12-0.067l-0.021-0.028c-0.009-0.013-0.012-0.029-0.007-0.044s0.016-0.026,0.03-0.032 l0.172-0.066l0.585-1.17l-0.02-0.175c-0.003-0.025,0.014-0.049,0.039-0.055l0.189-0.042c0.01-0.001,0.021-0.001,0.03,0.003 l0.126,0.053c0.015,0.006,0.025,0.019,0.029,0.033l0.053,0.2c0.006,0.022-0.005,0.047-0.026,0.058l-0.112,0.056l-0.615,1.149 l0.037,0.149c0.006,0.023-0.006,0.049-0.03,0.058l-0.115,0.047l0.049,0.156c0.004,0.013,0.002,0.026-0.003,0.038 c-0.006,0.012-0.017,0.021-0.029,0.024l-0.125,0.039l0.032,0.133c0.005,0.024-0.008,0.05-0.031,0.059l-0.15,0.057 c-0.051,0.104-0.317,0.64-0.606,1.191c0.025,0.247-0.017,0.432-0.126,0.549c-0.082,0.088-0.181,0.113-0.238,0.12 C28.206,28.891,28.146,28.882,28.123,28.88z M28.932,26.526l0.041,0.156c0.003,0.012,0.002,0.024-0.003,0.035l-0.621,1.264 c-0.007,0.013-0.019,0.022-0.033,0.026c-0.015,0.003-0.36,0.093-0.248,0.562c0.021,0.09,0.039,0.143,0.051,0.174 c0.008-0.031,0.015-0.074,0.019-0.114c0.002-0.025,0.024-0.045,0.05-0.045c0.001,0,0,0,0.005,0c0.019,0,0.124-0.004,0.206-0.093 c0.09-0.098,0.123-0.26,0.097-0.483c-0.001-0.01,0.001-0.021,0.005-0.029c0.322-0.614,0.618-1.214,0.621-1.221 c0.006-0.011,0.016-0.02,0.027-0.024l0.127-0.048l-0.032-0.136c-0.006-0.025,0.009-0.052,0.034-0.06l0.121-0.038L29.351,26.3 c-0.008-0.024,0.005-0.052,0.029-0.061l0.117-0.048l-0.031-0.126c-0.003-0.012-0.001-0.024,0.004-0.035l0.632-1.18 c0.005-0.009,0.012-0.017,0.021-0.021l0.09-0.045l-0.036-0.137l-0.089-0.038l-0.13,0.029l0.016,0.145 c0.001,0.01-0.001,0.02-0.005,0.028l-0.6,1.201c-0.006,0.011-0.015,0.02-0.027,0.024l-0.13,0.05l0.015,0.021 c0.008,0.012,0.011,0.026,0.008,0.04s-0.012,0.026-0.024,0.033l-0.14,0.078l0.018,0.168c0.002,0.022-0.011,0.044-0.032,0.052 L28.932,26.526z" />
  </g>
  <g>
    <polygon fill="#fdd835" points="27.45,29.908 27.208,29.876 27.25,30.055 27.04,30.066 27.082,30.613 27.587,30.329 27.419,30.139 27.566,30.129 27.64,29.876" />
    <path fill="#231f20" d="M27.082,30.663c-0.008,0-0.016-0.002-0.023-0.006c-0.015-0.008-0.025-0.023-0.026-0.04 l-0.042-0.548c-0.001-0.014,0.003-0.027,0.012-0.037c0.009-0.01,0.022-0.017,0.035-0.017l0.151-0.007l-0.029-0.121 c-0.003-0.017,0-0.033,0.012-0.045c0.011-0.013,0.023-0.016,0.044-0.017l0.234,0.031l0.183-0.03 c0.018-0.008,0.034,0.003,0.045,0.016c0.012,0.013,0.016,0.03,0.011,0.047l-0.074,0.253c-0.006,0.021-0.023,0.035-0.044,0.036 l-0.046,0.004l0.102,0.113c0.01,0.012,0.014,0.026,0.012,0.041c-0.002,0.016-0.012,0.028-0.025,0.036l-0.505,0.284 C27.099,30.661,27.09,30.663,27.082,30.663z M27.093,30.113l0.033,0.418l0.383-0.215l-0.127-0.144 c-0.012-0.015-0.016-0.034-0.009-0.052s0.024-0.03,0.043-0.031l0.113-0.008l0.042-0.144l-0.111,0.019 c-0.005,0.002-0.01,0.001-0.015,0.001l-0.17-0.022l0.026,0.108c0.003,0.015,0,0.03-0.009,0.042 c-0.009,0.012-0.023,0.019-0.038,0.02L27.093,30.113z" />
  </g>
  <g>
    <polygon fill="#fdd835" points="20.889,29.855 20.752,30.361 21.226,30.624 21.321,30.066" />
    <path fill="#231f20" d="M21.226,30.674c-0.008,0-0.017-0.002-0.024-0.006l-0.474-0.264c-0.02-0.012-0.03-0.035-0.024-0.057 l0.137-0.505c0.004-0.015,0.014-0.026,0.028-0.033c0.013-0.006,0.03-0.005,0.042,0.001l0.432,0.21 c0.02,0.01,0.031,0.031,0.027,0.054l-0.095,0.559c-0.003,0.016-0.013,0.029-0.028,0.036 C21.241,30.673,21.233,30.674,21.226,30.674z M20.811,30.336l0.377,0.21l0.077-0.452l-0.344-0.167L20.811,30.336z" />
  </g>
  <g>
    <path fill="#231f20" d="M20.489,29.01c-0.019,0-0.037-0.011-0.045-0.028l-2.265-4.855 c-0.012-0.025-0.001-0.055,0.024-0.066c0.025-0.013,0.055-0.001,0.066,0.023l2.265,4.855c0.012,0.025,0.001,0.055-0.024,0.066 C20.503,29.009,20.497,29.01,20.489,29.01z" />
  </g>
  <g>
    <path fill="#66bb6a" d="M17.624,22.904c0,0-0.074,0.632,0.453,0.853C18.162,23.368,18.151,23.125,17.624,22.904z" />
    <path fill="#231f20" d="M18.077,23.808c-0.006,0-0.013-0.001-0.02-0.004c-0.554-0.233-0.483-0.898-0.483-0.905 c0.002-0.016,0.011-0.029,0.024-0.037c0.014-0.009,0.031-0.01,0.045-0.003c0.578,0.242,0.564,0.53,0.482,0.91 c-0.003,0.015-0.013,0.026-0.026,0.033C18.093,23.806,18.085,23.808,18.077,23.808z M17.67,22.979 c-0.001,0.154,0.032,0.528,0.371,0.706C18.105,23.355,18.074,23.165,17.67,22.979z" />
  </g>
  <g>
    <path fill="#66bb6a" d="M17.803,25.163c0,0,0.459,0.441,0.953,0.155C18.496,25.016,18.13,25.021,17.803,25.163z" />
    <path fill="#231f20" d="M18.408,25.464c-0.359,0-0.636-0.261-0.64-0.265c-0.012-0.012-0.018-0.028-0.015-0.045 s0.014-0.03,0.029-0.037c0.402-0.177,0.77-0.112,1.011,0.169c0.01,0.011,0.014,0.026,0.011,0.041s-0.011,0.027-0.024,0.034 C18.652,25.436,18.526,25.464,18.408,25.464z M17.899,25.179c0.128,0.097,0.436,0.281,0.775,0.126 C18.425,25.058,18.109,25.105,17.899,25.179z" />
  </g>
  <g>
    <path fill="#66bb6a" d="M18.561,26.334c0,0,0.339,0.538,0.888,0.38C19.27,26.358,18.913,26.275,18.561,26.334z" />
    <path fill="#231f20" d="M19.25,26.794c-0.454,0-0.729-0.429-0.732-0.434c-0.009-0.014-0.01-0.031-0.003-0.047 s0.021-0.026,0.037-0.029c0.433-0.071,0.774,0.077,0.941,0.408c0.007,0.014,0.007,0.029,0.001,0.043 c-0.006,0.013-0.018,0.023-0.032,0.027C19.388,26.784,19.317,26.794,19.25,26.794z M18.65,26.372 c0.102,0.127,0.361,0.382,0.723,0.31C19.189,26.382,18.872,26.354,18.65,26.372z" />
  </g>
  <g>
    <path fill="#66bb6a" d="M18.557,26.769c0,0,0.491,0.405,0.962,0.083C19.238,26.569,18.873,26.602,18.557,26.769z" />
    <path fill="#231f20" d="M19.126,27.025c-0.333,0-0.598-0.215-0.602-0.219c-0.013-0.01-0.02-0.026-0.018-0.043 c0.002-0.017,0.012-0.031,0.026-0.039c0.388-0.206,0.76-0.17,1.021,0.092c0.011,0.011,0.016,0.025,0.015,0.04 s-0.009,0.028-0.021,0.036C19.405,26.99,19.26,27.025,19.126,27.025z M18.654,26.777c0.135,0.087,0.458,0.249,0.783,0.066 C19.169,26.616,18.856,26.687,18.654,26.777z" />
  </g>
  <g>
    <path fill="#66bb6a" d="M19.157,27.793c0,0,0.359,0.615,0.979,0.459C19.949,27.847,19.553,27.741,19.157,27.793z" />
    <path fill="#231f20" d="M19.938,28.327c-0.521,0-0.821-0.503-0.824-0.509c-0.009-0.015-0.009-0.032-0.002-0.048 c0.007-0.015,0.022-0.024,0.038-0.027c0.488-0.065,0.859,0.114,1.031,0.488c0.006,0.013,0.006,0.028,0,0.042 c-0.006,0.014-0.018,0.023-0.033,0.027C20.075,28.319,20.005,28.327,19.938,28.327z M19.245,27.834 c0.105,0.143,0.388,0.449,0.817,0.383C19.865,27.859,19.497,27.818,19.245,27.834z" />
  </g>
  <g>
    <path fill="#66bb6a" d="M19.194,28.35c0,0,0.552,0.45,1.077,0.086C19.955,28.122,19.547,28.162,19.194,28.35z" />
    <path fill="#231f20" d="M19.828,28.627c-0.367,0-0.661-0.234-0.666-0.237c-0.013-0.011-0.02-0.027-0.018-0.044 s0.011-0.031,0.026-0.039c0.43-0.229,0.844-0.194,1.136,0.095c0.011,0.01,0.016,0.024,0.015,0.04 c-0.001,0.015-0.009,0.027-0.021,0.036C20.141,28.588,19.978,28.627,19.828,28.627z M19.291,28.358 c0.149,0.096,0.524,0.288,0.899,0.071C19.881,28.164,19.521,28.254,19.291,28.358z" />
  </g>
  <g>
    <path fill="#66bb6a" d="M17.83,24.646c0,0,0.267,0.577,0.832,0.491C18.53,24.76,18.187,24.632,17.83,24.646z" />
    <path fill="#231f20" d="M18.549,25.195c-0.514,0-0.762-0.523-0.765-0.528c-0.007-0.016-0.006-0.033,0.003-0.048 c0.018-0.027,0.058-0.024,0.09-0.024c0.413,0,0.714,0.189,0.832,0.525c0.005,0.014,0.003,0.029-0.004,0.042 c-0.008,0.013-0.021,0.021-0.036,0.024C18.628,25.192,18.588,25.195,18.549,25.195z M17.915,24.695 c0.081,0.132,0.288,0.4,0.633,0.4c0.014,0,0.028-0.001,0.043-0.002C18.448,24.773,18.136,24.702,17.915,24.695z" />
  </g>
  <g>
    <path fill="#66bb6a" d="M19.22,24.471c0,0,0.057,0.634-0.475,0.841C18.671,24.92,18.904,24.637,19.22,24.471z" />
    <path fill="#231f20" d="M18.745,25.361c-0.008,0-0.017-0.002-0.024-0.006c-0.013-0.008-0.022-0.021-0.025-0.034 c-0.069-0.364,0.114-0.69,0.5-0.895c0.016-0.007,0.034-0.007,0.047,0c0.015,0.008,0.024,0.022,0.026,0.039 c0,0.007,0.055,0.674-0.506,0.893C18.757,25.36,18.751,25.361,18.745,25.361z M19.171,24.557 c-0.188,0.116-0.422,0.334-0.386,0.683C19.114,25.076,19.165,24.718,19.171,24.557z" />
  </g>
  <g>
    <path fill="#66bb6a" d="M19.66,25.794c0,0,0.209,0.601-0.258,0.931C19.236,26.363,19.394,26.032,19.66,25.794z" />
    <path fill="#231f20" d="M19.402,26.774c-0.004,0-0.009,0-0.013-0.002c-0.014-0.004-0.026-0.014-0.032-0.027 c-0.155-0.336-0.056-0.696,0.27-0.988c0.013-0.012,0.03-0.014,0.046-0.012c0.016,0.005,0.029,0.017,0.035,0.032 c0.002,0.007,0.215,0.642-0.276,0.988C19.423,26.771,19.413,26.774,19.402,26.774z M19.634,25.889 c-0.154,0.158-0.33,0.426-0.21,0.756C19.708,26.404,19.668,26.046,19.634,25.889z" />
  </g>
  <g>
    <path fill="#66bb6a" d="M20.002,26.063c0,0,0.01,0.636-0.537,0.803C19.421,26.47,19.675,26.205,20.002,26.063z" />
    <path fill="#231f20" d="M19.465,26.916c-0.01,0-0.019-0.003-0.027-0.008c-0.013-0.009-0.021-0.021-0.022-0.036 c-0.041-0.369,0.165-0.681,0.566-0.855c0.015-0.008,0.033-0.005,0.047,0.004c0.014,0.009,0.023,0.024,0.023,0.041 c0,0.007,0.004,0.677-0.572,0.853C19.475,26.915,19.47,26.916,19.465,26.916z M19.947,26.145 c-0.196,0.102-0.446,0.301-0.436,0.652C19.852,26.658,19.929,26.305,19.947,26.145z" />
  </g>
  <g>
    <path fill="#66bb6a" d="M20.427,27.172c0,0,0.256,0.664-0.253,1.051C19.973,27.824,20.138,27.448,20.427,27.172z" />
    <path fill="#231f20" d="M20.173,28.272c-0.004,0-0.008,0-0.011-0.001c-0.015-0.004-0.027-0.013-0.034-0.026 c-0.187-0.374-0.093-0.768,0.264-1.109c0.012-0.012,0.029-0.018,0.045-0.013c0.017,0.004,0.03,0.016,0.036,0.031 c0.002,0.007,0.263,0.703-0.27,1.108C20.195,28.27,20.184,28.272,20.173,28.272z M20.404,27.267 c-0.171,0.184-0.367,0.499-0.212,0.876C20.517,27.854,20.45,27.438,20.404,27.267z" />
  </g>
  <g>
    <path fill="#66bb6a" d="M20.838,27.549c0,0,0.006,0.712-0.606,0.895C20.185,28,20.471,27.706,20.838,27.549z" />
    <path fill="#231f20" d="M20.232,28.493c-0.01,0-0.02-0.003-0.028-0.008c-0.012-0.009-0.021-0.021-0.022-0.037 c-0.043-0.409,0.188-0.754,0.636-0.945c0.016-0.006,0.033-0.005,0.047,0.004c0.014,0.01,0.022,0.024,0.022,0.042 c0,0.007,0,0.751-0.642,0.942C20.242,28.492,20.237,28.493,20.232,28.493z M20.784,27.629c-0.225,0.112-0.52,0.339-0.506,0.746 C20.683,28.22,20.767,27.805,20.784,27.629z" />
  </g>
  <g>
    <path fill="#66bb6a" d="M18.798,24.169c0,0,0.284,0.569-0.136,0.956C18.451,24.787,18.565,24.439,18.798,24.169z" />
    <path fill="#231f20" d="M18.662,25.175c-0.002,0-0.004,0-0.007,0c-0.015-0.002-0.028-0.011-0.036-0.023 c-0.196-0.314-0.145-0.684,0.141-1.015c0.01-0.014,0.021-0.021,0.044-0.018c0.017,0.002,0.031,0.013,0.039,0.027 c0.003,0.006,0.296,0.607-0.147,1.016C18.687,25.17,18.674,25.175,18.662,25.175z M18.785,24.266 c-0.133,0.177-0.273,0.465-0.112,0.777C18.924,24.769,18.839,24.417,18.785,24.266z" />
  </g>
  <g>
    <path fill="#66bb6a" d="M17.403,23.547c0,0,0.105,0.632,0.811,0.621C18.035,23.547,17.403,23.547,17.403,23.547z" />
    <path fill="#231f20" d="M18.197,24.218c-0.724,0-0.842-0.656-0.843-0.663c-0.002-0.014,0.001-0.029,0.011-0.04 c0.009-0.012,0.023-0.018,0.038-0.018c0.007,0,0.671,0.007,0.859,0.657c0.004,0.015,0.001,0.031-0.008,0.043 C18.241,24.215,18.217,24.218,18.197,24.218z M17.468,23.602c0.044,0.146,0.2,0.492,0.677,0.516 C17.993,23.705,17.62,23.619,17.468,23.602z" />
  </g>
  <g>
    <path fill="#66bb6a" d="M18.256,23.02c-0.211,0.232-0.309,0.615,0.042,1.095C18.625,23.684,18.53,23.189,18.256,23.02z" />
    <path fill="#231f20" d="M18.298,24.165L18.298,24.165c-0.016,0-0.031-0.008-0.041-0.021 c-0.439-0.601-0.173-1.01-0.039-1.157c0.016-0.018,0.043-0.021,0.063-0.01c0.131,0.081,0.225,0.229,0.259,0.408 c0.047,0.25-0.027,0.526-0.203,0.76C18.329,24.158,18.314,24.165,18.298,24.165z M18.265,23.087 c-0.117,0.146-0.279,0.472,0.034,0.941c0.13-0.197,0.183-0.422,0.145-0.624C18.418,23.27,18.354,23.157,18.265,23.087z" />
  </g>
  <g>
    <path fill="#231f20" d="M24.035,28.561c-0.004,0-0.008,0-0.012-0.001c-0.02-0.005-0.035-0.021-0.038-0.042 c-0.156-0.235-0.436-0.434-0.856-0.607l-1.755-0.814c-0.392-0.199-0.645-0.564-0.645-0.932v-5.32l-0.286-0.319 c-0.013-0.015-0.017-0.035-0.009-0.054c0.008-0.018,0.026-0.029,0.046-0.029h7.118c0.02,0,0.038,0.012,0.046,0.029 c0.008,0.019,0.004,0.039-0.009,0.054l-0.286,0.319v5.32c0,0.367-0.252,0.732-0.643,0.932l-1.755,0.813 c-0.426,0.176-0.707,0.376-0.862,0.614c-0.005,0.013-0.015,0.024-0.027,0.029C24.054,28.558,24.044,28.561,24.035,28.561z M20.592,20.541l0.224,0.25c0.008,0.009,0.013,0.021,0.013,0.033v5.34c0,0.33,0.231,0.66,0.588,0.842l1.752,0.813 c0.413,0.17,0.699,0.367,0.87,0.601c0.171-0.233,0.458-0.432,0.872-0.602l1.751-0.812c0.356-0.182,0.587-0.512,0.587-0.842v-5.34 c0-0.013,0.004-0.024,0.013-0.033l0.224-0.25H20.592z" />
  </g>
  <g>
    <path fill="#263238" d="M23.782,27.08h-0.282c-0.031,0-0.056-0.025-0.056-0.056v-0.019c0-0.031,0.025-0.056,0.056-0.056 h0.282c0.031,0,0.056,0.025,0.056,0.056v0.019C23.838,27.055,23.813,27.08,23.782,27.08z" />
  </g>
  <g>
    <path fill="#263238" d="M24.611,27.08h-0.282c-0.031,0-0.056-0.025-0.056-0.056v-0.019c0-0.031,0.025-0.056,0.056-0.056 h0.282c0.031,0,0.056,0.025,0.056,0.056v0.019C24.667,27.055,24.642,27.08,24.611,27.08z" />
  </g>
  <g>
    <path fill="#fdd835" d="M27.973,29.107c-0.165,0-0.299-0.134-0.299-0.299s0.134-0.299,0.299-0.299 c0.165,0,0.298,0.134,0.298,0.299S28.138,29.107,27.973,29.107z" />
    <path fill="#231f20" d="M27.973,28.56c0.137,0,0.249,0.111,0.249,0.249c0,0.137-0.111,0.249-0.249,0.249 s-0.249-0.111-0.249-0.249C27.724,28.671,27.836,28.56,27.973,28.56 M27.973,28.46c-0.192,0-0.349,0.156-0.349,0.349 s0.156,0.349,0.349,0.349s0.349-0.156,0.349-0.349S28.165,28.46,27.973,28.46L27.973,28.46z" />
  </g>
</svg>