<?xml version="1.0" encoding="utf-8"?>
<svg xmlns="http://www.w3.org/2000/svg" viewBox="0 0 48 48">
  <path fill="#880e4f" d="M21.355,5.984l-7.935,2.645l7.935,2.645l-7.935,2.645l7.935,2.645l-7.935,2.645l7.935,2.645 L13.419,24.5l7.935,2.645l-7.935,2.645l7.935,2.645l-7.935,2.645l7.935,2.645l-7.935,2.645l7.935,2.645l-1.841,0.46 C20.958,43.808,22.455,44,24,44c11.046,0,20-8.954,20-20c0-11.046-8.954-20-20-20c-2.229,0-4.366,0.38-6.368,1.053L21.355,5.984z" /><linearGradient id="VMoyZGf0FPaQidRI8km1nb" x1="17.398" x2="36.524" y1="9.324" y2="44.455" gradientUnits="userSpaceOnUse"><stop offset="0" stop-color="#dfe9f2"/><stop offset=".998" stop-color="#9ea7b0"/></linearGradient><path fill="url(#VMoyZGf0FPaQidRI8km1nb)" d="M13.419,40.371l7.935-2.645l-7.935-2.645l7.935-2.645l-7.935-2.645l7.935-2.645L13.419,24.5 l7.935-2.645l-7.935-2.645l7.935-2.645l-7.935-2.645l7.935-2.645l-7.935-2.645l7.935-2.645l-3.723-0.931C9.712,7.715,4,15.183,4,24 c0,9.501,6.631,17.437,15.513,19.476l1.841-0.46L13.419,40.371z" />
</svg>