<?xml version="1.0" encoding="utf-8"?>
<svg xmlns="http://www.w3.org/2000/svg" viewBox="0 0 48 48">
  <circle cx="24" cy="24" r="20" fill="#33691e" />
  <path fill="#fff" d="M20.988,17c-0.023,0-0.055,0.012-0.105,0.039c-0.109,0.074-0.324,0.297-0.328,0.555c-0.008,0.145-0.035,0.145,0.059,0.238c0.07,0.098,0.137,0.09,0.277,0.016c0.078-0.059,0.105-0.094,0.133-0.191c0.031-0.168-0.176,0.078-0.199-0.105c-0.047-0.172,0.086-0.242,0.211-0.406C21.039,17.066,21.039,17.004,20.988,17z" />
  <path fill="#fff" d="M23.008,17.012c-0.039,0.004-0.086,0.055-0.152,0.172c-0.047,0.125-0.25,0.316-0.102,0.707c0.117,0.246,0.168,0.648,0.113,1.094c-0.082,0.129-0.102,0.172-0.211,0.297c-0.152,0.168-0.32,0.125-0.445,0.063c-0.121-0.078-0.215-0.121-0.27-0.375c0.012-0.406,0.035-1.07-0.039-1.211c-0.109-0.219-0.289-0.141-0.367-0.074c-0.371,0.34-0.555,0.91-0.664,1.363c-0.105,0.332-0.215,0.238-0.289,0.102c-0.188-0.172-0.199-1.543-0.426-1.32c-0.363,1.035,0.207,2.168,0.602,2.059c0.285,0.117,0.465-0.426,0.582-1.02c0.078-0.164,0.141-0.184,0.18-0.098c-0.008,0.789,0.059,0.965,0.262,1.203c0.449,0.348,0.824,0.043,0.855,0.016c0.027-0.031,0.352-0.352,0.352-0.352c0.078-0.082,0.184-0.09,0.293-0.016c0.109,0.098,0.094,0.266,0.324,0.383c0.195,0.078,0.609,0.02,0.703-0.148c0.129-0.223,0.16-0.297,0.219-0.383c0.094-0.121,0.25-0.066,0.25-0.031c-0.012,0.07-0.105,0.137-0.043,0.262c0.109,0.082,0.137,0.027,0.199,0.012c0.23-0.113,0.402-0.609,0.402-0.609c0.012-0.184-0.094-0.172-0.16-0.133c-0.09,0.055-0.094,0.074-0.184,0.125c-0.113,0.02-0.332,0.094-0.438-0.074c-0.109-0.199-0.109-0.48-0.195-0.684c0-0.016-0.145-0.316-0.008-0.336c0.066,0.012,0.215,0.051,0.238-0.07c0.07-0.121-0.156-0.461-0.309-0.633c-0.137-0.148-0.32-0.164-0.5-0.016c-0.125,0.113-0.105,0.242-0.133,0.367c-0.031,0.141-0.023,0.313,0.117,0.5c0.125,0.246,0.355,0.563,0.281,1.012c0,0-0.133,0.211-0.367,0.184c-0.098-0.02-0.254-0.063-0.34-0.684c-0.063-0.469,0.016-1.125-0.184-1.434C23.109,17.113,23.07,17.004,23.008,17.012z" />
  <path fill="#fff" d="M22.367,17.063c-0.059,0.004-0.125,0.074-0.18,0.211c-0.047,0.102-0.105,0.641-0.094,0.641c-0.039,0.16,0.168,0.23,0.262,0.023c0.137-0.379,0.141-0.539,0.148-0.699C22.48,17.113,22.43,17.055,22.367,17.063z" />
  <path fill="#fff" d="M24.73,17.105c-0.063,0.004-0.113,0.039-0.133,0.133c-0.023,0.215-0.012,0.332,0.023,0.508c0.031,0.121,0.203,0.32,0.289,0.438c0.41,0.547,0.801,1.102,1.184,1.672c0.059,0.422,0.102,0.84,0.129,1.25c0.063,0.906,0.082,2.035,0.023,2.988c0.172,0.008,0.445-0.273,0.539-0.684c0.063-0.57-0.023-1.73-0.027-2.066c-0.004-0.141-0.016-0.305-0.023-0.48c0.441,0.723,0.871,1.488,1.293,2.328c0.152-0.074,0.117-0.938,0.027-1.059c-0.336-0.727-0.801-1.441-0.949-1.715c-0.055-0.102-0.234-0.379-0.453-0.695c-0.039-0.457-0.082-0.844-0.109-0.961c-0.07-0.48,0.199,0.055,0.16-0.227c-0.086-0.48-0.352-0.809-0.668-1.25c-0.098-0.141-0.098-0.172-0.254,0.035c-0.094,0.211-0.094,0.391-0.066,0.555c-0.039-0.059-0.09-0.133-0.164-0.219c-0.27-0.234-0.289-0.246-0.512-0.434C24.969,17.172,24.832,17.094,24.73,17.105z" />
  <path fill="#fff" d="M31.723,17.176c-0.031-0.004-0.063,0.012-0.102,0.066c-0.07,0.063-0.145,0.172-0.145,0.316c0.02,0.254,0.063,0.516,0.082,0.77c0.004,0.035,0.012,0.07,0.02,0.102c-0.027-0.035-0.051-0.063-0.066-0.074c-0.496-0.52,0.227-0.086-0.094-0.488c-0.273-0.297-0.352-0.395-0.586-0.574c-0.117-0.074-0.188-0.219-0.227,0.027c-0.012,0.215-0.031,0.465-0.016,0.648c0,0.102,0.105,0.293,0.195,0.402c0.328,0.406,0.668,0.84,1.008,1.289c0.07,0.922,0.09,1.766,0.16,2.684c-0.008,0.395-0.129,0.918-0.242,0.969c0,0-0.176,0.102-0.297-0.012c-0.082-0.035-0.426-0.57-0.426-0.57c-0.172-0.16-0.289-0.113-0.414,0c-0.34,0.332-0.496,0.953-0.73,1.379c-0.059,0.094-0.227,0.176-0.414-0.008c-0.48-0.652-0.199-1.578-0.258-1.34c-0.426,0.477-0.238,1.27-0.141,1.441c0.141,0.281,0.25,0.461,0.523,0.598c0.25,0.184,0.441,0.07,0.551-0.059c0.25-0.258,0.25-0.922,0.367-1.051c0.082-0.242,0.289-0.199,0.391-0.094c0.098,0.141,0.211,0.23,0.355,0.305c0.234,0.207,0.512,0.246,0.785,0.059c0.188-0.105,0.309-0.242,0.418-0.512c0.117-0.316,0.059-1.965,0.035-2.883c0.176,0.25,0.348,0.5,0.52,0.758c0.078,0.805,0.113,1.598,0.086,2.359c-0.016,0.152,0.527-0.453,0.523-0.738c0-0.25,0-0.473,0-0.684c0.266,0.422,0.523,0.852,0.766,1.285c0.148-0.078,0.098-0.93,0.004-1.047c-0.254-0.426-0.578-0.883-0.832-1.238c-0.051-0.449-0.117-0.98-0.148-1.145c-0.047-0.25-0.094-0.633-0.168-0.93c-0.02-0.117-0.078-0.492-0.063-0.531c0.031-0.082,0.141,0.004,0.199-0.094c0.082-0.09-0.289-1.043-0.473-1.313c-0.066-0.121-0.191-0.082-0.34,0.117c-0.141,0.129-0.09,0.43-0.035,0.711c0.137,0.723,0.262,1.457,0.359,2.191c-0.18-0.27-0.402-0.594-0.621-0.91c-0.004-0.027-0.027-0.141-0.027-0.141c0-0.016-0.027-0.59-0.055-0.73c-0.004-0.055-0.02-0.07,0.039-0.063c0.063,0.051,0.074,0.055,0.109,0.07c0.063,0.012,0.117-0.094,0.082-0.191c-0.195-0.359-0.391-0.719-0.582-1.074C31.777,17.203,31.754,17.18,31.723,17.176z" />
  <path fill="#fff" d="M13.672,17.195c-0.105-0.004-0.227,0.063-0.18,0.191c-0.027,0.07,0.211,0.309,0.254,0.438c0.035,0.094-0.039,0.395,0.039,0.422c0.074,0.031,0.172-0.207,0.207-0.43c0.023-0.121,0.004-0.531-0.273-0.617C13.703,17.195,13.687,17.195,13.672,17.195z" />
  <path fill="#fff" d="M34.234,17.195c-0.023,0.004-0.055,0.043-0.102,0.141c-0.109,0.18-0.148,0.504-0.102,0.785c0.266,1.793,0.461,3.523,0.5,5.113c-0.023,0.148-0.027,0.23-0.098,0.418c-0.156,0.199-0.332,0.453-0.492,0.574c-0.164,0.121-0.508,0.234-0.621,0.324c-0.355,0.207-0.359,0.445-0.07,0.453c0.5-0.059,1.09-0.098,1.496-0.711c0.109-0.172,0.238-0.641,0.242-0.926c0.039-1.672-0.02-3.309-0.27-4.52c-0.016-0.117-0.07-0.391-0.047-0.426c0.031-0.082,0.195,0.008,0.254-0.086c0.082-0.086-0.422-0.738-0.602-1.016C34.285,17.25,34.266,17.195,34.234,17.195z" />
  <path fill="#fff" d="M29,17.223c-0.02,0.004-0.051,0.035-0.105,0.109c-0.141,0.457-0.191,0.828-0.137,1.113c0.359,1.867,0.727,3.57,0.668,5.352c0.168,0,0.363-0.391,0.449-0.777c0.047-0.531-0.031-0.855-0.043-1.164c-0.016-0.313-0.355-2.848-0.422-3.082c-0.086-0.449,0.328-0.059,0.285-0.32c-0.145-0.328-0.5-0.805-0.613-1.09C29.039,17.289,29.035,17.219,29,17.223z" />
  <path fill="#fff" d="M16.258,17.262c-0.047,0.008-0.086,0.043-0.105,0.102c-0.008,0.039,0.02,0.105-0.016,0.125c-0.023,0.02-0.102,0.008-0.098-0.102c0-0.035-0.023-0.07-0.039-0.094c-0.016-0.012-0.027-0.012-0.055-0.012c-0.035,0-0.031,0.008-0.051,0.039c-0.008,0.027-0.02,0.055-0.02,0.09c-0.004,0.039-0.02,0.051-0.047,0.059c-0.031,0-0.023,0-0.051-0.016c-0.016-0.016-0.035-0.023-0.035-0.051c0-0.031-0.008-0.078-0.016-0.098c-0.012-0.016-0.035-0.027-0.059-0.031c-0.133,0-0.145,0.152-0.137,0.211c-0.008,0.012-0.012,0.281,0.168,0.355c0.246,0.117,0.703,0.066,0.684-0.324c0-0.035-0.008-0.152-0.012-0.184C16.344,17.273,16.301,17.254,16.258,17.262z" />
  <path fill="#fff" d="M19.527,17.262c-0.086,0.004-0.16,0.027-0.223,0.063c-0.164,0.156-0.199,0.402-0.074,0.559c0.125,0.055,0.25,0.18,0.168,0.25c-0.352,0.375-1.262,1-1.309,1.113l-0.004,0.004v0.004v0.004c0,0,0.004,0,0.004,0.004h0.004v0.004h0.004c0.047,0.031,0.617,0.031,0.68,0.004l0.004-0.004c0.199-0.074,1.129-1.137,1.129-1.137c-0.051-0.039-0.094-0.07-0.141-0.113c-0.055-0.043-0.047-0.09,0-0.133c0.227-0.133,0.156-0.43,0.035-0.563C19.703,17.273,19.609,17.258,19.527,17.262z" />
  <path fill="#fff" d="M28.074,17.266c-0.023,0.004-0.051,0.043-0.098,0.137c-0.109,0.184-0.188,0.496-0.176,0.789c0.238,1.648,0.309,3.09,0.465,4.738c0.016,0.16-0.008,0.391-0.117,0.484c-0.391,0.41-0.957,0.914-1.57,1.145c-0.066,0.074,0.164,0.391,0.461,0.391c0.5-0.055,0.941-0.336,1.348-1.074c0.109-0.172,0.301-0.539,0.305-0.824c0.039-1.676-0.082-2.977-0.336-4.188c-0.016-0.117-0.004-0.258,0.016-0.293c0.031-0.039,0.145,0,0.199-0.094c0.086-0.086-0.227-0.809-0.406-1.086C28.129,17.32,28.105,17.266,28.074,17.266z" />
  <path fill="#fff" d="M14.832,17.316c-0.07,0.008-0.137,0.066-0.168,0.141c-0.012,0.262-0.012,0.527,0.02,0.77c0.121,0.43,0.156,0.805,0.215,1.242c0.016,0.586-0.336,0.254-0.32-0.035c0.082-0.379,0.059-0.973-0.012-1.125c-0.059-0.148-0.125-0.188-0.266-0.16c-0.113-0.008-0.398,0.305-0.48,0.824c0,0-0.066,0.266-0.098,0.504c-0.039,0.27-0.215,0.457-0.34-0.035c-0.105-0.363-0.172-1.25-0.352-1.039c-0.051,0.691-0.113,1.91,0.477,2.035c0.711,0.066,0.316-1.203,0.574-1.434c0.051-0.117,0.141-0.117,0.148,0.027v1.078c-0.008,0.352,0.223,0.457,0.402,0.527c0.188-0.012,0.309-0.008,0.383,0.172c0.031,0.625,0.059,1.246,0.09,1.871c0,0,0.43,0.125,0.453-1.051c0.02-0.688-0.137-1.27-0.047-1.402c0.004-0.133,0.172-0.137,0.289-0.074c0.188,0.133,0.27,0.293,0.559,0.23c0.441-0.121,0.703-0.336,0.711-0.672c-0.027-0.324-0.063-0.645-0.203-0.965c0.02-0.059-0.082-0.211-0.063-0.27c0.078,0.125,0.199,0.113,0.223,0c-0.074-0.246-0.188-0.484-0.379-0.586c-0.156-0.137-0.383-0.105-0.465,0.18c-0.039,0.328,0.117,0.719,0.355,1.039c0.055,0.125,0.125,0.332,0.094,0.52c-0.129,0.07-0.254,0.043-0.363-0.07c0,0-0.348-0.262-0.348-0.32c0.094-0.594,0.02-0.664-0.031-0.828c-0.035-0.227-0.145-0.301-0.234-0.457c-0.086-0.094-0.203-0.094-0.262,0c-0.156,0.27-0.082,0.844,0.031,1.102c0.082,0.238,0.203,0.387,0.145,0.387c-0.047,0.133-0.148,0.102-0.219-0.051c-0.105-0.32-0.125-0.797-0.125-1.012c-0.031-0.266-0.066-0.836-0.242-0.98C14.941,17.332,14.887,17.313,14.832,17.316z" />
  <path fill="#fff" d="M17.328,17.32c-0.031,0.004-0.07,0.027-0.117,0.035c-0.152,0.047-0.293,0.18-0.25,0.434c0.18,1.086,0.297,1.914,0.477,3c0.027,0.129-0.082,0.297-0.219,0.281c-0.234-0.16-0.293-0.48-0.691-0.465c-0.289,0-0.617,0.316-0.66,0.617c-0.047,0.242-0.063,0.504,0,0.711c0.203,0.246,0.449,0.219,0.66,0.164c0.176-0.07,0.32-0.246,0.383-0.203c0.039,0.07-0.004,0.633-0.824,1.07c-0.504,0.227-0.906,0.281-1.125-0.133c-0.133-0.258,0.012-1.238-0.32-1.012c-0.977,2.516,2.289,2.867,2.652,0.105c0.023-0.078,0.098-0.156,0.148-0.141c0.02,0.012,0.043,0.043,0.047,0.098c-0.074,2.504-2.523,2.676-2.938,1.887c-0.105-0.184-0.137-0.598-0.145-0.844c-0.02-0.152-0.059-0.238-0.102-0.273c-0.098-0.074-0.234,0.121-0.262,0.457c-0.039,0.273-0.027,0.348-0.027,0.609c0.129,1.977,3.281,1.129,3.793-0.508c0.254-0.844-0.004-1.48,0.082-1.559c0,0,0,0,0.004,0c0,0,0-0.004,0.004-0.004c0,0,0,0,0.004,0c0-0.004,0.008-0.004,0.008-0.004c0.316,0.336,0.754,0.043,0.852-0.074c0.039-0.059,0.145-0.094,0.215-0.02c0.246,0.176,0.672,0.094,0.762-0.215c0.051-0.305,0.094-0.617,0.105-0.938c-0.16,0.047-0.285,0.086-0.34,0.141c-0.012,0.012-0.02,0.027-0.023,0.043c-0.012,0.09-0.027,0.18-0.039,0.27c-0.004,0.008-0.004,0.012-0.008,0.02c-0.008,0.012-0.02,0.02-0.031,0.027c-0.055,0.031-0.152,0.012-0.16-0.07c-0.074-0.344-0.387-0.387-0.574,0.145c-0.129,0.105-0.359,0.125-0.383-0.031c0.031-0.355-0.113-0.406-0.402-0.234c-0.094-0.711-0.184-1.387-0.277-2.094c0.121-0.004,0.23,0.082,0.34-0.055c-0.117-0.371-0.371-1.125-0.512-1.195H17.43c-0.008-0.008-0.016-0.016-0.02-0.02s-0.008-0.008-0.012-0.008c0-0.004-0.004-0.004-0.008-0.008s-0.012-0.004-0.02-0.008C17.355,17.32,17.344,17.32,17.328,17.32z" />
  <path fill="#fff" d="M27.07,17.328c-0.125-0.004-0.262,0.074-0.211,0.23c-0.031,0.086,0.27,0.375,0.32,0.535c0.086,0.242-0.066,0.473,0.023,0.508c0.082,0.039,0.199-0.25,0.242-0.52c0.051-0.215-0.105-0.66-0.324-0.75C27.105,17.328,27.09,17.328,27.07,17.328z" />
  <path fill="#fff" d="M19.48,17.594c0.059-0.008,0.129,0.047,0.16,0.121c0.035,0.078,0.02,0.152-0.039,0.168c-0.063,0.012-0.137-0.039-0.172-0.117s-0.02-0.156,0.043-0.172C19.473,17.594,19.477,17.594,19.48,17.594z" />
  <path fill="#fff" d="M33.559,17.957c-0.113-0.004-0.238,0.082-0.191,0.254c-0.027,0.09,0.246,0.406,0.289,0.578c0.039,0.121-0.059,0.516,0.023,0.551c0.074,0.043,0.18-0.273,0.219-0.563c0.023-0.156-0.094-0.711-0.293-0.813C33.59,17.961,33.574,17.961,33.559,17.957z" />
  <path fill="#fff" d="M25.773,18.152c0.012,0.043,0.023,0.09,0.031,0.141c0.02,0.102,0.043,0.203,0.063,0.305c-0.09-0.125-0.164-0.223-0.195-0.258C25.469,18.098,25.676,18.18,25.773,18.152z" />
  <path fill="#fff" d="M27.566,19.031c-0.043,0.008-0.086,0.047-0.102,0.105c-0.008,0.039,0.02,0.105-0.016,0.125c-0.02,0.02-0.102,0.008-0.098-0.102c0-0.035-0.023-0.074-0.039-0.094c-0.016-0.012-0.027-0.012-0.055-0.012c-0.035,0-0.031,0.008-0.051,0.039c-0.008,0.027-0.02,0.055-0.02,0.09c-0.004,0.039-0.02,0.051-0.047,0.055c-0.031,0-0.027,0.004-0.051-0.012c-0.016-0.016-0.035-0.023-0.035-0.051c0-0.031-0.008-0.078-0.016-0.098c-0.016-0.016-0.035-0.023-0.059-0.031c-0.133,0-0.141,0.152-0.133,0.211c-0.012,0.012-0.02,0.281,0.164,0.359c0.246,0.113,0.703,0.063,0.684-0.328c0-0.035-0.012-0.152-0.012-0.184C27.656,19.047,27.613,19.023,27.566,19.031z" />
  <path fill="#fff" d="M19.383,19.113c-0.031-0.004-0.07,0.008-0.117,0.035c-0.215,0.117-0.297,0.465-0.164,0.664c0.125,0.18,0.324,0.113,0.352,0.113c0.211,0.027,0.336-0.395,0.336-0.395s0.008-0.121-0.242,0.105c-0.109,0.02-0.121-0.02-0.148-0.078c-0.02-0.109-0.016-0.219,0.035-0.332C19.457,19.16,19.434,19.117,19.383,19.113z" />
  <path fill="#fff" d="M30.953,19.168c-0.117-0.008-0.246,0.07-0.277,0.234c0,0.098,0.043,0.148,0.035,0.238c-0.016,0.051-0.066,0.082-0.188,0.023c0.016-0.02-0.082-0.156-0.082-0.156c-0.094-0.059-0.223,0.004-0.305,0.055c-0.047,0.086-0.082,0.227-0.031,0.375c0.141,0.254,0.613,0.688,0.836,0.691c0.004-0.23,0.027-0.535,0.039-0.723c0.004-0.074,0.023-0.152,0.09-0.172c0.07-0.016,0.191,0.07,0.191-0.004c-0.012-0.145-0.043-0.363-0.125-0.465C31.094,19.203,31.027,19.172,30.953,19.168z" />
  <path fill="#fff" d="M21.375,19.965c-0.004,0.004-0.008,0.004-0.008,0.008c-0.004,0-0.004,0.004-0.008,0.004c-0.023,0.016-0.051,0.059-0.113,0.102c-0.105,0.121-0.125,0.207-0.121,0.449c0.008,0.023,0.203,0.566,0.367,0.949c0.113,0.395,0.215,0.852,0.141,1.281c-0.262,0.566-0.785,1.074-1.293,1.352c-0.258,0.082-0.48,0.055-0.543-0.004c-0.148-0.102-0.152-0.277-0.145-0.309l0.004-0.004c0.426-0.297,0.914-0.539,1.297-1.344c0.113-0.305,0.148-0.492,0.035-0.965c-0.043-0.18-0.098-0.324-0.219-0.449v-0.004c0.074-0.035,0.262,0.105,0.293,0.02c-0.047-0.227-0.199-0.531-0.371-0.688c-0.152-0.137-0.32-0.152-0.457-0.027c-0.16,0.086-0.191,0.398-0.117,0.676c0.086,0.207,0.313,0.242,0.473,0.66c0.004,0.027,0.055,0.313-0.027,0.426c-0.066,0.207-0.914,0.875-0.973,0.914c0,0.004-0.004,0.004-0.004,0.004l-0.004,0.004c0,0,0,0-0.004,0v0.004h-0.004L19.57,23.02v-0.004c-0.004-0.02,0-0.059,0-0.129c-0.008-0.125,0.047-0.41,0.043-0.457l-0.004-0.004c-0.281,0.18-0.375,0.734-0.426,0.898c-0.707,0.488-1.516,0.855-1.98,1.352c-0.238,0.379,1.668-0.434,1.891-0.531l0.004,0.004c0.043,0.047,0.047,0.211,0.172,0.355c0.199,0.27,0.621,0.434,1.031,0.332c0.688-0.25,1.082-0.719,1.484-1.238c0.059-0.082,0.148-0.148,0.234-0.082c0.277,0.621,1.074,1.059,2.109,1.105c0.238-0.289,0.125-0.434,0.027-0.492c-0.027-0.023-0.512-0.211-0.59-0.398c-0.047-0.176,0.07-0.328,0.301-0.445c0.66-0.082,1.313-0.168,1.945-0.371c0.008-0.215,0.133-0.531,0.215-0.668c0.059-0.098,0.094-0.105,0.109-0.117c0,0,0-0.004,0.004-0.004v-0.004h0.004v-0.004c0-0.004,0-0.012-0.004-0.02l-0.105-0.063l-2.117-0.008c-0.027-0.012-0.047-0.02-0.059-0.031l-0.004-0.004c0,0,0,0,0-0.004h-0.004v-0.004l-0.004-0.004v-0.004v-0.004v-0.004v-0.004v-0.004c0,0,0-0.004,0.004-0.004c0.008-0.016,0.035-0.027,0.066-0.039c0.504-0.07,1.402-0.219,1.461-1.082c-0.008-0.449-0.191-0.742-0.742-0.824c-0.406,0.031-0.695,0.422-0.648,0.855c-0.02,0.117,0.039,0.344-0.082,0.371c-0.777,0.07-1.625,0.559-1.656,0.906l-0.004,0.004h-0.004h-0.004l-0.004,0.004H22.23h-0.004c-0.004,0-0.004,0-0.004,0c-0.004,0-0.008-0.004-0.008-0.004c-0.051-0.012-0.117-0.098-0.105-0.215c-0.031-0.602-0.227-1.285-0.535-1.813c-0.109-0.109-0.156-0.152-0.188-0.156h-0.004C21.383,19.965,21.379,19.965,21.375,19.965h-0.004C21.379,19.965,21.375,19.965,21.375,19.965z" />
  <path fill="#fff" d="M23.402,20.285c-0.043,0.008-0.086,0.043-0.102,0.102c-0.012,0.039,0.02,0.105-0.02,0.125c-0.02,0.02-0.098,0.008-0.094-0.102c0-0.031-0.027-0.07-0.043-0.094c-0.012-0.008-0.023-0.012-0.051-0.012c-0.035,0-0.035,0.012-0.055,0.039c-0.008,0.027-0.02,0.059-0.02,0.09c-0.004,0.039-0.016,0.055-0.043,0.059c-0.035,0-0.027,0.004-0.051-0.012c-0.016-0.02-0.035-0.023-0.035-0.055c0-0.027-0.008-0.074-0.016-0.094c-0.012-0.02-0.035-0.027-0.063-0.031c-0.133,0-0.141,0.152-0.133,0.207c-0.008,0.012-0.016,0.285,0.168,0.359c0.242,0.117,0.824,0.047,0.68-0.328c0-0.035-0.008-0.152-0.012-0.184C23.492,20.301,23.445,20.277,23.402,20.285z" />
  <path fill="#fff" d="M31.578,20.621c-0.004-0.004-0.012-0.004-0.02,0c0,0-1.129,0.805-1.156,0.832c-0.113,0.102-0.059,0.449,0,0.41c0.078,0.031,1.215-0.742,1.195-0.832C31.648,21.035,31.672,20.637,31.578,20.621z" />
  <path fill="#fff" d="M24.469,20.738c0.047-0.004,0.105,0.012,0.164,0.043c0.086,0.051,0.137,0.125,0.133,0.18v0.004c0,0-0.004,0.004-0.004,0.008l-0.004,0.004v0.004l-0.004,0.004c-0.004,0.004-0.008,0.008-0.012,0.012c-0.039,0.039-0.133,0.035-0.223-0.016c-0.082-0.051-0.133-0.125-0.129-0.176c0-0.004,0.004-0.004,0.004-0.008c0-0.008,0.004-0.012,0.004-0.02c0.004,0,0.004-0.004,0.004-0.008h0.004c0-0.004,0.004-0.008,0.008-0.008C24.43,20.75,24.449,20.742,24.469,20.738z" />
  <path fill="#fff" d="M14.578,20.941c-0.586,0.012-1.441,0.77-1.465,1.188c0.617-0.297,1.223-0.582,1.852-0.887C14.863,21.09,14.957,20.953,14.578,20.941z" />
  <path fill="#fff" d="M16.473,21.207c0.059,0,0.117,0.027,0.148,0.109c0.031,0.074,0.004,0.148-0.031,0.188v0.004c0,0,0,0,0,0.004c-0.027,0.031-0.113,0.016-0.176,0.016c-0.07,0-0.109-0.012-0.152-0.074c-0.023-0.066,0.043-0.133,0.07-0.184h0.004c0-0.008,0.008-0.012,0.012-0.016c0.02-0.02,0.059-0.039,0.102-0.043C16.457,21.207,16.465,21.203,16.473,21.207z" />
  <path fill="#fff" d="M31.359,21.438c-0.105,0.012-0.203,0.113-0.156,0.27c-0.031,0.094,0.141,0.414,0.184,0.586c0.039,0.121-0.051,0.469,0.031,0.504c0.074,0.043,0.277-0.203,0.27-0.512c0.023-0.156-0.055-0.742-0.258-0.84C31.406,21.438,31.383,21.434,31.359,21.438z" />
  <path fill="#fff" d="M18.883,21.598c-0.094,0.004-0.172,0.055-0.137,0.184c-0.008,0.09,0.258,0.203,0.273,0.422c0.035,0.086-0.059,0.371,0.02,0.398c0.074,0.031,0.172-0.195,0.211-0.406c0.02-0.117-0.09-0.52-0.281-0.59C18.941,21.598,18.91,21.594,18.883,21.598z" />
  <path fill="#fff" d="M22.629,22.109c0.004,0,0.012,0,0.02,0c0,0,0,0,0.004,0c0.23,0.063,0.578,0.07,0.875,0.102c0.242,0.016,0.363,0.203,0.137,0.285c-0.227,0.078-0.441,0.137-0.441,0.461c0.027,0.16,0.02,0.246-0.004,0.285c0,0.004-0.004,0.008-0.008,0.008v0.004h-0.004v0.004h-0.004l-0.004,0.004c-0.004,0-0.008,0.004-0.012,0.004c0,0-0.008,0-0.008,0.004c-0.055,0.008-0.133-0.043-0.191-0.074c-0.137-0.102-0.527-0.34-0.582-0.859C22.398,22.219,22.488,22.117,22.629,22.109z" />
  <path fill="#fff" d="M13.48,22.508c-0.016,0-0.047,0.043-0.082,0.094c-0.348,0.547-0.375,1.367-0.188,1.613c0.102,0.113,0.27,0.164,0.391,0.129c0.219-0.094,0.313-0.535,0.262-0.695c-0.074-0.113-0.133-0.129-0.203-0.035c-0.152,0.313-0.215,0.102-0.23-0.074c-0.023-0.328,0.008-0.629,0.047-0.867C13.492,22.551,13.492,22.508,13.48,22.508z" />
  <path fill="#fff" d="M25.223,23.227c-0.027,0-0.055,0.004-0.082,0.016c-0.004,0-0.246,0.164-0.324,0.277c-0.047,0.039-0.043,0.07-0.027,0.133c0.035,0.082,0.102,0.059,0.176,0.016c0.098-0.012,0.145,0.051,0.137,0.172c-0.043,0.145,0.02,0.199,0.02,0.211c0,0.008,0.098,0.09,0.207,0.023c0.234-0.09,0.379-0.176,0.707-0.246c0.086-0.004,0.082-0.234-0.055-0.242c-0.176,0.012-0.34,0.02-0.52,0.16c-0.109,0.023-0.125-0.043-0.152-0.102c-0.027-0.148,0.063-0.254,0.047-0.363C25.359,23.285,25.297,23.23,25.223,23.227z" />
  <path fill="#fff" d="M32.738,23.508c-0.043,0-0.086,0.008-0.152,0.012c-0.074,0.016-0.098,0.047-0.113,0.137c0.008,0.129,0.086,0.125,0.172,0.176c0.047,0.063,0.078,0.117-0.004,0.219c-0.078,0.07-0.137,0.109-0.215,0.18c-0.035,0.066-0.059,0.16,0.055,0.191c0.207,0.059,0.691-0.254,0.691-0.262c0.078-0.059,0.051-0.168,0.047-0.168c-0.047-0.055-0.148-0.023-0.219-0.031c-0.031,0-0.141-0.016-0.09-0.109c0.043-0.063,0.059-0.098,0.086-0.172c0.035-0.07,0.008-0.117-0.113-0.16C32.824,23.512,32.781,23.508,32.738,23.508z" />
  <path fill="#fff" d="M30.289,29.555c0,0,0,0.004-0.004,0.004c-0.348,0.086-0.336,0.449-0.113,0.605c-3.672,0-9.305-0.059-10.516-0.059c-0.676,0-2.813-0.082-2.855-0.082c0.461,0.672,1.125,0.809,1.992,0.82c1.633,0,9.188-0.02,11.34-0.02c-0.152,0.27,0.016,0.707,0.133,0.789c0.004,0,0.008,0.004,0.012,0.004s0.008,0.004,0.012,0.004s0.008,0,0.008,0c0.141,0.035,0.203-0.066,0.254-0.145c0.23,0.02,1.527,0.039,1.648,0v-0.004c0.082,0.117,0.16,0.23,0.316,0.211c0.266-0.055,0.477-0.086,0.484-0.629c0,0-0.027-0.93-0.637-0.871c-0.141,0.023-0.547,0.063-0.547,0.063c-0.469-0.055-0.809-0.063-1.336-0.082c0.051-0.063,0.133-0.309,0.031-0.402c-0.027-0.023-0.07-0.035-0.125-0.031h-0.004h-0.004c-0.004,0-0.008,0-0.008-0.004c-0.004,0-0.008-0.004-0.008-0.008l-0.004-0.004c-0.027-0.039-0.043-0.133-0.059-0.156l-0.004-0.004l-0.004-0.004h-0.004C30.289,29.555,30.289,29.555,30.289,29.555z" />
  <path fill="#fff" d="M29.848,31.191c0,0,0,0,0.004,0c0.535,0.027,1.039,0.008,1.574,0.031c0.086,0.074,0.043,0.238-0.016,0.27c0,0-0.004,0.004-0.008,0.004c0,0-0.004,0-0.008,0h-0.004c-0.176-0.004-0.277-0.008-0.449-0.012c0-0.012-0.004-0.02-0.004-0.027c-0.043-0.121-0.34-0.113-0.414-0.02c0,0.004,0,0.004-0.004,0.008c0,0,0,0.004-0.004,0.004c0,0.004,0,0.008-0.004,0.012c0,0.004,0,0.008,0,0.012s-0.004,0.012-0.004,0.016c-0.234,0.027-0.445-0.008-0.68-0.016C29.758,31.387,29.766,31.23,29.848,31.191z" />
</svg>