<svg xmlns="http://www.w3.org/2000/svg" viewBox="0 0 48 48"><linearGradient id="VMoyZGf0FPaQidRI8km1na" x1="15.362" x2="34.464" y1="10.654" y2="45.798" gradientUnits="userSpaceOnUse"><stop offset="0" stop-color="#dfe9f2"/><stop offset=".998" stop-color="#9ea7b0"/></linearGradient><path fill="url(#VMoyZGf0FPaQidRI8km1na)" d="M44,24H4c0,11.046,8.954,20,20,20S44,35.046,44,24z"/><linearGradient id="VMoyZGf0FPaQidRI8km1nb" x1="17.398" x2="36.524" y1="9.324" y2="44.455" gradientUnits="userSpaceOnUse"><stop offset=".008" stop-color="#ec4313"/><stop offset=".447" stop-color="#f73e08"/><stop offset="1" stop-color="#ff3d00"/></linearGradient><path fill="url(#VMoyZGf0FPaQidRI8km1nb)" d="M24,4C12.954,4,4,12.954,4,24h40C44,12.954,35.046,4,24,4z"/><path fill="#eceff1" d="M18.621,20.688C18.023,20.895,17.387,21,16.715,21C13.562,21,11,18.543,11,15.5s2.562-5.5,5.715-5.5c0.672,0,1.309,0.105,1.906,0.313c-2.887,0.098-5.188,2.387-5.188,5.188S15.734,20.59,18.621,20.688z"/><path fill="#eceff1" d="M17.426,15.633l-0.777-0.574l-0.773,0.574l0.297-0.922l-0.777-0.57h0.961l0.293-0.926l0.297,0.926h0.961l-0.777,0.57L17.426,15.633z"/><path fill="#eceff1" d="M23.52,15.633l-0.777-0.574l-0.773,0.574l0.297-0.922l-0.777-0.57h0.961l0.293-0.926l0.297,0.926L24,14.137l-0.777,0.57L23.52,15.633z"/><path fill="#eceff1" d="M20.477,13.457l-0.777-0.574l-0.773,0.574l0.297-0.926l-0.777-0.566h0.961l0.293-0.926l0.297,0.926h0.961l-0.781,0.566L20.477,13.457z"/><path fill="#eceff1" d="M18.566,19.113l-0.777-0.574l-0.773,0.574l0.297-0.922l-0.777-0.57h0.961l0.293-0.926l0.297,0.926h0.961l-0.781,0.57L18.566,19.113z"/><path fill="#eceff1" d="M22.379,19.113l-0.777-0.574l-0.773,0.574l0.297-0.922l-0.777-0.57h0.961l0.293-0.926l0.297,0.926h0.961l-0.781,0.57L22.379,19.113z"/></svg>