<?xml version="1.0" encoding="utf-8"?>
<svg viewBox="0 0 48 48" xmlns="http://www.w3.org/2000/svg">
  <linearGradient id="Ek0b0RMdJuSw803M90Ad2a" x1="9.858" x2="38.142" y1="9.858" y2="38.142" gradientUnits="userSpaceOnUse">
    <stop offset="0" stop-color="#f44f5a"/>
    <stop offset="0.443" stop-color="#ee3d4a"/>
    <stop offset="1" stop-color="#e52030"/>
  </linearGradient>
  <path fill="url(#Ek0b0RMdJuSw803M90Ad2a)" d="M44,24c0,11.045-8.955,20-20,20S4,35.045,4,24S12.955,4,24,4S44,12.955,44,24z"/>
  <linearGradient id="SlxsiUtVCfzQFTbJQCQihc" x1="12.245" x2="20.626" y1="10.196" y2="28.361" gradientUnits="userSpaceOnUse">
    <stop offset="0" stop-color="#0d61a9"/>
    <stop offset="1" stop-color="#16528c"/>
  </linearGradient>
  <path fill="url(#SlxsiUtVCfzQFTbJQCQihc)" d="M24,4C12.954,4,4,12.954,4,24h20V4z"/>
  <path d="M 19.523 16.927 L 23.03 16.015 L 19.523 15.103 L 22.118 12.508 L 18.611 13.42 L 19.523 9.912 L 16.927 12.508 L 16.015 9 L 15.103 12.508 L 12.508 9.912 L 13.42 13.42 L 9.912 12.508 L 12.508 15.103 L 9 16.015 L 12.508 16.927 L 9.912 19.523 L 13.42 18.611 L 12.508 22.118 L 15.103 19.523 L 16.015 23.03 L 16.927 19.523 L 19.523 22.118 L 18.611 18.611 L 22.118 19.523 L 19.523 16.927" fill="#ffffff" style=""/>
  <circle cx="16" cy="16" r="3.7" fill="#428bc1"/>
  <circle cx="16" cy="16" r="3" fill="#ffffff"/>
</svg>