<svg xmlns="http://www.w3.org/2000/svg" viewBox="0 0 48 48"><linearGradient id="2jyrvNwnu-gE6WAqujfW6a" x1="30.37" x2="46.547" y1="4.82" y2="49.265" gradientUnits="userSpaceOnUse"><stop offset="0" stop-color="#0d61a9"/><stop offset="1" stop-color="#16528c"/></linearGradient><path fill="url(#2jyrvNwnu-gE6WAqujfW6a)" d="M26,13h14.695c-1.275-1.931-2.883-3.615-4.731-5H26V13z"/><linearGradient id="2jyrvNwnu-gE6WAqujfW6b" x1="28.822" x2="45.166" y1="4.288" y2="49.194" gradientUnits="userSpaceOnUse"><stop offset="0" stop-color="#0d61a9"/><stop offset="1" stop-color="#16528c"/></linearGradient><path fill="url(#2jyrvNwnu-gE6WAqujfW6b)" d="M26,22h17.899c-0.173-1.746-0.59-3.416-1.183-5H26V22z"/><linearGradient id="2jyrvNwnu-gE6WAqujfW6c" x1="16.545" x2="33.507" y1="6.394" y2="52.998" gradientUnits="userSpaceOnUse"><stop offset="0" stop-color="#0d61a9"/><stop offset="1" stop-color="#16528c"/></linearGradient><path fill="url(#2jyrvNwnu-gE6WAqujfW6c)" d="M43.899,26H26h-1h-8h-4H4.101c0.173,1.746,0.59,3.416,1.183,5h37.431C43.309,29.416,43.726,27.746,43.899,26z"/><linearGradient id="2jyrvNwnu-gE6WAqujfW6d" x1="13.601" x2="30.336" y1="6.429" y2="52.409" gradientUnits="userSpaceOnUse"><stop offset="0" stop-color="#0d61a9"/><stop offset="1" stop-color="#16528c"/></linearGradient><path fill="url(#2jyrvNwnu-gE6WAqujfW6d)" d="M40.695,35H7.305c1.275,1.931,2.883,3.615,4.731,5h23.927C37.812,38.615,39.42,36.931,40.695,35z"/><linearGradient id="2jyrvNwnu-gE6WAqujfW6e" x1="30.979" x2="44.056" y1="7.993" y2="43.921" gradientUnits="userSpaceOnUse"><stop offset="0" stop-color="#dfe9f2"/><stop offset="1" stop-color="#bfc8d1"/></linearGradient><path fill="url(#2jyrvNwnu-gE6WAqujfW6e)" d="M35.964,8C33.127,5.875,29.72,4.47,26,4.101V8H35.964z"/><linearGradient id="2jyrvNwnu-gE6WAqujfW6f" x1="31.214" x2="44.136" y1="8.362" y2="43.866" gradientUnits="userSpaceOnUse"><stop offset="0" stop-color="#dfe9f2"/><stop offset="1" stop-color="#bfc8d1"/></linearGradient><path fill="url(#2jyrvNwnu-gE6WAqujfW6f)" d="M26,17h16.716c-0.529-1.415-1.201-2.758-2.021-4H26V17z"/><linearGradient id="2jyrvNwnu-gE6WAqujfW6g" x1="29.662" x2="42.564" y1="9.473" y2="44.921" gradientUnits="userSpaceOnUse"><stop offset="0" stop-color="#dfe9f2"/><stop offset="1" stop-color="#bfc8d1"/></linearGradient><path fill="url(#2jyrvNwnu-gE6WAqujfW6g)" d="M26,26h17.899C43.964,25.342,44,24.675,44,24s-0.036-1.342-0.101-2H26V26z"/><linearGradient id="2jyrvNwnu-gE6WAqujfW6h" x1="18.06" x2="30.784" y1="14.68" y2="49.64" gradientUnits="userSpaceOnUse"><stop offset="0" stop-color="#dfe9f2"/><stop offset="1" stop-color="#bfc8d1"/></linearGradient><path fill="url(#2jyrvNwnu-gE6WAqujfW6h)" d="M42.716,31H5.284c0.529,1.415,1.201,2.758,2.021,4h33.39C41.515,33.758,42.186,32.415,42.716,31z"/><linearGradient id="2jyrvNwnu-gE6WAqujfW6i" x1="15.331" x2="28.108" y1="16.182" y2="51.287" gradientUnits="userSpaceOnUse"><stop offset="0" stop-color="#dfe9f2"/><stop offset="1" stop-color="#bfc8d1"/></linearGradient><path fill="url(#2jyrvNwnu-gE6WAqujfW6i)" d="M35.964,40H12.036c3.339,2.501,7.471,4,11.964,4S32.625,42.501,35.964,40z"/><linearGradient id="2jyrvNwnu-gE6WAqujfW6j" x1="14.809" x2="28.343" y1="14.388" y2="51.572" gradientUnits="userSpaceOnUse"><stop offset="0" stop-color="#dfe9f2"/><stop offset="1" stop-color="#bfc8d1"/></linearGradient><path fill="url(#2jyrvNwnu-gE6WAqujfW6j)" d="M24,4c-2.467,0-4.818,0.468-7,1.284c-1.415,0.529-2.758,1.201-4,2.021C10.738,8.799,8.799,10.738,7.305,13c-0.82,1.242-1.491,2.585-2.021,4C4.468,19.182,4,21.533,4,24c0,0.675,0.036,1.342,0.101,2H26V8V4.101C25.342,4.036,24.675,4,24,4z"/><linearGradient id="2jyrvNwnu-gE6WAqujfW6k" x1="14.84" x2="14.84" y1="9.413" y2="23.698" gradientUnits="userSpaceOnUse"><stop offset="0" stop-color="#ffd000"/><stop offset="1" stop-color="#ffc107"/></linearGradient><path fill="url(#2jyrvNwnu-gE6WAqujfW6k)" d="M15.686,18.468l0.672,1.009 c-2.763,1.998-1.077,3.182-3.036,3.82c1.218-1.189-0.19-1.286,0.838-3.767"/><path d="M13.254,23.341l0.058-0.054c0.599-0.59,0.556-0.906,0.482-1.389c-0.073-0.478-0.166-1.131,0.346-2.373l0.01-0.019 l0.034,0.015l-0.01,0.015c-0.512,1.238-0.414,1.886-0.346,2.359c0.073,0.478,0.122,0.799-0.439,1.364 c0.848-0.297,0.955-0.707,1.106-1.262c0.171-0.653,0.385-1.472,1.837-2.524l-0.672-1.009l0.029-0.019l0.692,1.038l-0.015,0.01 c-1.452,1.053-1.667,1.861-1.837,2.514c-0.156,0.585-0.268,1.004-1.204,1.311L13.254,23.341z"/><path d="M13.332,23.317l-0.015-0.034c0.682-0.326,0.76-0.838,0.872-1.608c0.107-0.716,0.253-1.696,1.004-2.929l0.029,0.019 c-0.746,1.223-0.882,2.164-0.994,2.914C14.112,22.464,14.034,22.981,13.332,23.317z"/><linearGradient id="2jyrvNwnu-gE6WAqujfW6l" x1="16.145" x2="16.145" y1="9.413" y2="23.698" gradientUnits="userSpaceOnUse"><stop offset="0" stop-color="#ffd000"/><stop offset="1" stop-color="#ffc107"/></linearGradient><path fill="url(#2jyrvNwnu-gE6WAqujfW6l)" d="M16.148,16.48h1.34l-1.34,7.383 l-1.345-7.383H16.148v7.383"/><path d="M16.148,23.965l-1.364-7.499h2.729l-0.005,0.019L16.148,23.965z M16.168,16.499v7.158l1.301-7.158H16.168z M14.828,16.499 l1.301,7.158v-7.158H14.828z"/><linearGradient id="2jyrvNwnu-gE6WAqujfW6m" x1="11.876" x2="11.876" y1="9.413" y2="23.698" gradientUnits="userSpaceOnUse"><stop offset="0" stop-color="#ffd000"/><stop offset="1" stop-color="#ffc107"/></linearGradient><path fill="url(#2jyrvNwnu-gE6WAqujfW6m)" d="M14.419,17.562l-0.234,1.184 c-3.372-0.541-3.016,1.491-4.853,0.56c1.706,0.019,0.775-1.048,3.255-2.076"/><path d="M10.189,19.574c-0.234,0-0.507-0.073-0.867-0.253l-0.068-0.034h0.078c0.843,0.01,1.033-0.249,1.321-0.638 c0.288-0.39,0.682-0.921,1.925-1.433l0.019-0.01l0.015,0.034l-0.019,0.01c-1.233,0.512-1.628,1.038-1.91,1.423 c-0.288,0.385-0.478,0.648-1.272,0.653c0.809,0.39,1.174,0.175,1.671-0.112c0.585-0.341,1.316-0.765,3.085-0.487l0.234-1.184 l0.039,0.005l-0.244,1.223l-0.015-0.005c-1.774-0.283-2.5,0.141-3.08,0.478C10.788,19.423,10.53,19.574,10.189,19.574z"/><path d="M9.823,19.418c-0.151,0-0.317-0.029-0.497-0.093l0.01-0.039c0.716,0.253,1.131-0.054,1.759-0.517 c0.58-0.434,1.374-1.023,2.778-1.364l0.005,0.034c-1.389,0.341-2.149,0.906-2.763,1.36C10.637,19.15,10.281,19.418,9.823,19.418z"/><linearGradient id="2jyrvNwnu-gE6WAqujfW6n" x1="14.014" x2="14.014" y1="9.413" y2="23.698" gradientUnits="userSpaceOnUse"><stop offset="0" stop-color="#ffd000"/><stop offset="1" stop-color="#ffc107"/></linearGradient><path fill="url(#2jyrvNwnu-gE6WAqujfW6n)" d="M16.148,16.48l0.95,0.95l-6.169,4.269 l4.269-6.164L16.148,16.48l-5.219,5.219"/><path d="M10.856,21.772l4.342-6.267l1.925,1.925l-0.015,0.015L10.856,21.772z M16.148,16.509l-5.063,5.058l5.984-4.142 L16.148,16.509z M15.203,15.559l-4.142,5.984l5.063-5.063L15.203,15.559z"/><linearGradient id="2jyrvNwnu-gE6WAqujfW6o" x1="11.745" x2="11.745" y1="9.413" y2="23.698" gradientUnits="userSpaceOnUse"><stop offset="0" stop-color="#ffd000"/><stop offset="1" stop-color="#ffc107"/></linearGradient><path fill="url(#2jyrvNwnu-gE6WAqujfW6o)" d="M14.16,16.022l-1.004,0.672 c-2.003-2.768-3.187-1.077-3.825-3.036c1.189,1.218,1.291-0.195,3.767,0.833"/><path d="M13.152,16.719l-0.01-0.015c-1.053-1.452-1.866-1.667-2.514-1.842c-0.585-0.151-1.009-0.263-1.311-1.199l-0.029-0.078 l0.058,0.058c0.585,0.604,0.906,0.556,1.384,0.482c0.478-0.068,1.135-0.166,2.378,0.346l0.015,0.01l-0.01,0.034l-0.019-0.01 c-1.233-0.512-1.886-0.414-2.359-0.341c-0.478,0.068-0.794,0.117-1.36-0.439c0.292,0.843,0.702,0.955,1.257,1.101 c0.658,0.175,1.472,0.39,2.529,1.842l1.004-0.677l0.019,0.029L13.152,16.719z"/><path d="M13.868,15.554c-1.228-0.741-2.164-0.882-2.919-0.994c-0.78-0.117-1.301-0.195-1.632-0.897l0.029-0.015 c0.326,0.687,0.838,0.76,1.608,0.877c0.716,0.102,1.701,0.249,2.934,0.999L13.868,15.554z"/><linearGradient id="2jyrvNwnu-gE6WAqujfW6p" x1="12.457" x2="12.457" y1="9.413" y2="23.698" gradientUnits="userSpaceOnUse"><stop offset="0" stop-color="#ffd000"/><stop offset="1" stop-color="#ffc107"/></linearGradient><path fill="url(#2jyrvNwnu-gE6WAqujfW6p)" d="M16.148,16.48v1.345L8.766,16.48 l7.383-1.34L16.148,16.48H8.771"/><path d="M16.168,17.844l-0.024-0.005l-7.475-1.36l7.499-1.36V17.844z M8.971,16.499l7.158,1.301v-1.301H8.971z M8.971,16.465h7.158 v-1.301L8.971,16.465z"/><linearGradient id="2jyrvNwnu-gE6WAqujfW6q" x1="14.237" x2="14.237" y1="9.413" y2="23.698" gradientUnits="userSpaceOnUse"><stop offset="0" stop-color="#ffd000"/><stop offset="1" stop-color="#ffc107"/></linearGradient><path fill="url(#2jyrvNwnu-gE6WAqujfW6q)" d="M15.067,14.75l-1.184-0.234 c0.541-3.372-1.491-3.016-0.56-4.853c-0.019,1.706,1.048,0.78,2.076,3.26"/><path d="M15.081,14.77l-1.218-0.239v-0.019c0.288-1.774-0.136-2.495-0.478-3.08c-0.302-0.521-0.521-0.897-0.078-1.779l0.034-0.068 v0.078c-0.01,0.843,0.249,1.033,0.638,1.321c0.39,0.292,0.921,0.682,1.438,1.93l0.005,0.015l-0.034,0.015l-0.005-0.015 c-0.512-1.238-1.043-1.628-1.428-1.915c-0.385-0.283-0.643-0.478-0.653-1.272c-0.385,0.809-0.175,1.174,0.117,1.671 c0.336,0.59,0.76,1.316,0.482,3.089l1.189,0.234L15.081,14.77z"/><path d="M15.188,14.214c-0.341-1.394-0.906-2.154-1.36-2.768c-0.473-0.633-0.785-1.053-0.521-1.788l0.034,0.01 c-0.253,0.716,0.054,1.131,0.517,1.759c0.434,0.58,1.023,1.374,1.364,2.778L15.188,14.214z"/><linearGradient id="2jyrvNwnu-gE6WAqujfW6r" x1="14.011" x2="14.011" y1="9.413" y2="23.698" gradientUnits="userSpaceOnUse"><stop offset="0" stop-color="#ffd000"/><stop offset="1" stop-color="#ffc107"/></linearGradient><path fill="url(#2jyrvNwnu-gE6WAqujfW6r)" d="M16.148,16.48l-0.95,0.95l-4.269-6.164 l6.164,4.269L16.148,16.48l-5.219-5.219"/><path d="M15.198,17.459l-0.015-0.019l-4.327-6.247l0.083,0.054l6.189,4.283L15.198,17.459z M11.061,11.422l4.142,5.979l0.921-0.921 L11.061,11.422z M11.085,11.393l5.063,5.063l0.921-0.921L11.085,11.393z"/><linearGradient id="2jyrvNwnu-gE6WAqujfW6s" x1="17.452" x2="17.452" y1="9.413" y2="23.698" gradientUnits="userSpaceOnUse"><stop offset="0" stop-color="#ffd000"/><stop offset="1" stop-color="#ffc107"/></linearGradient><path fill="url(#2jyrvNwnu-gE6WAqujfW6s)" d="M16.606,14.492l-0.672-1.004 c2.768-2.003,1.077-3.187,3.036-3.825c-1.218,1.189,0.195,1.291-0.833,3.767"/><path d="M16.602,14.516l-0.692-1.033l0.015-0.01c1.457-1.053,1.671-1.861,1.842-2.514c0.156-0.585,0.263-1.009,1.199-1.311 l0.078-0.024l-0.058,0.054c-0.599,0.585-0.556,0.906-0.482,1.384s0.171,1.135-0.346,2.378l-0.01,0.019l-0.034-0.015l0.01-0.019 c0.512-1.233,0.414-1.881,0.346-2.359c-0.073-0.473-0.122-0.794,0.439-1.36c-0.848,0.297-0.955,0.707-1.106,1.262 c-0.171,0.653-0.385,1.472-1.837,2.524l0.672,1.004L16.602,14.516z"/><path d="M17.104,14.219L17.075,14.2c0.741-1.228,0.882-2.164,0.994-2.914c0.117-0.785,0.195-1.301,0.897-1.637l0.015,0.029 c-0.687,0.326-0.76,0.838-0.877,1.613C18,12.007,17.854,12.986,17.104,14.219z"/><linearGradient id="2jyrvNwnu-gE6WAqujfW6t" x1="16.151" x2="16.151" y1="9.413" y2="23.698" gradientUnits="userSpaceOnUse"><stop offset="0" stop-color="#ffd000"/><stop offset="1" stop-color="#ffc107"/></linearGradient><path fill="url(#2jyrvNwnu-gE6WAqujfW6t)" d="M16.148,16.48h-1.34l1.34-7.378 l1.345,7.378H16.148V9.102"/><path d="M17.513,16.499h-2.729l0.005-0.019L16.148,9L17.513,16.499z M16.168,16.465h1.301l-1.301-7.158V16.465z M14.828,16.465 h1.301V9.307L14.828,16.465z"/><linearGradient id="2jyrvNwnu-gE6WAqujfW6u" x1="20.422" x2="20.422" y1="9.413" y2="23.698" gradientUnits="userSpaceOnUse"><stop offset="0" stop-color="#ffd000"/><stop offset="1" stop-color="#ffc107"/></linearGradient><path fill="url(#2jyrvNwnu-gE6WAqujfW6u)" d="M17.878,15.403l0.234-1.189 c3.372,0.541,3.016-1.491,4.853-0.556c-1.706-0.024-0.775,1.048-3.255,2.076"/><path d="M19.701,15.754l-0.015-0.034l0.019-0.005c1.233-0.512,1.623-1.038,1.91-1.423c0.288-0.39,0.478-0.648,1.272-0.653 c-0.809-0.39-1.174-0.18-1.671,0.112c-0.585,0.341-1.316,0.765-3.089,0.482l-0.234,1.189l-0.034-0.01l0.244-1.218h0.015 c1.774,0.288,2.5-0.136,3.08-0.478c0.521-0.302,0.901-0.521,1.779-0.078l0.068,0.039l-0.078-0.005c-0.015,0-0.029,0-0.049,0 c-0.799,0-0.989,0.258-1.272,0.638c-0.288,0.39-0.682,0.921-1.925,1.438L19.701,15.754z"/><path d="M18.424,15.559l-0.01-0.034c1.394-0.341,2.154-0.906,2.768-1.36c0.633-0.473,1.053-0.785,1.788-0.526l-0.01,0.034 c-0.716-0.253-1.131,0.054-1.759,0.521C20.622,14.623,19.828,15.213,18.424,15.559z"/><linearGradient id="2jyrvNwnu-gE6WAqujfW6v" x1="18.282" x2="18.282" y1="9.413" y2="23.698" gradientUnits="userSpaceOnUse"><stop offset="0" stop-color="#ffd000"/><stop offset="1" stop-color="#ffc107"/></linearGradient><path fill="url(#2jyrvNwnu-gE6WAqujfW6v)" d="M16.148,16.48l-0.95-0.95l6.164-4.269 l-4.269,6.169L16.148,16.48l5.219-5.219"/><path d="M17.099,17.459l-1.93-1.93l0.019-0.01l6.252-4.327L17.099,17.459z M16.173,16.48l0.921,0.921l4.142-5.979L16.173,16.48z M15.227,15.535l0.921,0.921l5.063-5.063L15.227,15.535z"/><linearGradient id="2jyrvNwnu-gE6WAqujfW6w" x1="20.552" x2="20.552" y1="9.413" y2="23.698" gradientUnits="userSpaceOnUse"><stop offset="0" stop-color="#ffd000"/><stop offset="1" stop-color="#ffc107"/></linearGradient><path fill="url(#2jyrvNwnu-gE6WAqujfW6w)" d="M18.137,16.943l1.004-0.672 c2.003,2.763,3.187,1.077,3.825,3.036c-1.189-1.218-1.291,0.19-3.767-0.838"/><path d="M23.01,19.375l-0.058-0.054c-0.585-0.604-0.901-0.556-1.384-0.487c-0.478,0.073-1.131,0.171-2.378-0.346l-0.015-0.005 l0.015-0.034l0.015,0.005c1.238,0.512,1.886,0.414,2.359,0.346c0.478-0.073,0.794-0.122,1.36,0.439 c-0.292-0.848-0.702-0.955-1.257-1.101c-0.658-0.175-1.472-0.39-2.524-1.842l-1.009,0.672l-0.019-0.029l1.033-0.692l0.01,0.015 c1.053,1.452,1.866,1.667,2.514,1.842c0.59,0.151,1.009,0.263,1.316,1.199L23.01,19.375z"/><path d="M22.951,19.316c-0.326-0.687-0.838-0.765-1.613-0.877c-0.716-0.107-1.696-0.253-2.929-0.999l0.019-0.034 c1.228,0.746,2.164,0.887,2.914,0.994c0.785,0.117,1.301,0.195,1.637,0.897L22.951,19.316z"/><linearGradient id="2jyrvNwnu-gE6WAqujfW6x" x1="19.837" x2="19.837" y1="9.413" y2="23.698" gradientUnits="userSpaceOnUse"><stop offset="0" stop-color="#ffd000"/><stop offset="1" stop-color="#ffc107"/></linearGradient><path fill="url(#2jyrvNwnu-gE6WAqujfW6x)" d="M16.148,16.48v-1.34l7.378,1.34 l-7.378,1.345V16.48h7.378"/><path d="M16.129,17.844V15.12h0.019l7.48,1.36L16.129,17.844z M16.168,16.499V17.8l7.158-1.301H16.168z M16.168,16.465h7.158 l-7.158-1.301V16.465z"/><linearGradient id="2jyrvNwnu-gE6WAqujfW6y" x1="18.059" x2="18.059" y1="9.413" y2="23.698" gradientUnits="userSpaceOnUse"><stop offset="0" stop-color="#ffd000"/><stop offset="1" stop-color="#ffc107"/></linearGradient><path fill="url(#2jyrvNwnu-gE6WAqujfW6y)" d="M17.23,18.21l1.184,0.239 c-0.541,3.367,1.491,3.011,0.556,4.849c0.024-1.701-1.048-0.775-2.071-3.255"/><path d="M18.95,23.38l0.005-0.083c0.01-0.838-0.249-1.033-0.638-1.321c-0.39-0.288-0.921-0.682-1.438-1.925l-0.005-0.019 l0.034-0.015l0.005,0.019c0.512,1.233,1.038,1.628,1.423,1.91c0.39,0.288,0.648,0.478,0.653,1.272 c0.39-0.809,0.18-1.174-0.112-1.671c-0.341-0.585-0.765-1.316-0.482-3.085l-1.189-0.234l0.01-0.039l1.218,0.244v0.015 c-0.283,1.774,0.136,2.5,0.478,3.08c0.302,0.526,0.521,0.901,0.078,1.779L18.95,23.38z"/><path d="M18.989,23.307l-0.034-0.015c0.253-0.716-0.054-1.131-0.521-1.759c-0.429-0.58-1.018-1.374-1.364-2.778l0.039-0.005 c0.341,1.389,0.901,2.149,1.36,2.763C18.936,22.152,19.248,22.571,18.989,23.307z"/><linearGradient id="2jyrvNwnu-gE6WAqujfW6z" x1="18.282" x2="18.282" y1="9.413" y2="23.698" gradientUnits="userSpaceOnUse"><stop offset="0" stop-color="#ffd000"/><stop offset="1" stop-color="#ffc107"/></linearGradient><path fill="url(#2jyrvNwnu-gE6WAqujfW6z)" d="M16.148,16.48l0.95-0.95l4.269,6.169 l-6.169-4.269L16.148,16.48l5.219,5.219"/><path d="M21.44,21.772l-0.083-0.058l-6.189-4.283l1.93-1.925l0.015,0.015L21.44,21.772z M15.227,17.425l5.979,4.142l-5.058-5.058 L15.227,17.425z M16.173,16.48l5.063,5.063l-4.142-5.984L16.173,16.48z"/><linearGradient id="2jyrvNwnu-gE6WAqujfW6A" x1="16.148" x2="16.148" y1="9.413" y2="23.698" gradientUnits="userSpaceOnUse"><stop offset="0" stop-color="#ffd000"/><stop offset="1" stop-color="#ffc107"/></linearGradient><path fill="url(#2jyrvNwnu-gE6WAqujfW6A)" d="M18.609,16.48 c0,1.36-1.101,2.461-2.461,2.461s-2.461-1.101-2.461-2.461s1.101-2.461,2.461-2.461C17.508,14.019,18.609,15.12,18.609,16.48z"/><path d="M16.148,18.96c-1.364,0-2.48-1.111-2.48-2.48c0-1.364,1.116-2.475,2.48-2.475s2.48,1.111,2.48,2.475 C18.629,17.849,17.513,18.96,16.148,18.96z M16.148,14.039c-1.345,0-2.441,1.096-2.441,2.441s1.096,2.441,2.441,2.441 s2.441-1.096,2.441-2.441C18.59,15.135,17.493,14.039,16.148,14.039z"/><path d="M17.961,15.496c-0.156,0.18-0.249-0.132-0.809-0.132c-0.556,0-0.648,0.336-0.736,0.268 c-0.093-0.068,0.468-0.468,0.648-0.492C17.245,15.116,17.757,15.296,17.961,15.496 M17.308,15.7 c0.156,0.132,0.024,0.424-0.132,0.424s-0.448-0.268-0.312-0.448"/><path d="M16.572,15.9c0.024-0.268,0.249-0.312,0.604-0.312c0.361,0,0.517,0.268,0.648,0.331c-0.156,0-0.288-0.219-0.648-0.219 c-0.356,0-0.356,0-0.604,0.219 M16.641,15.968c0.088-0.136,0.2,0.132,0.448,0.132c0.244,0,0.38-0.068,0.536-0.175 c0.156-0.112-0.224,0.268-0.468,0.268C16.909,16.192,16.572,16.056,16.641,15.968"/><path d="M17.401,16.1c0.292-0.156,0.112-0.38,0-0.424C17.445,15.72,17.625,15.944,17.401,16.1 M16.148,17.445 c0.136,0,0.175-0.049,0.356-0.049s0.604,0.249,0.853,0.156c-0.517,0.205-0.317,0.068-1.208,0.068h-0.112 M17.445,17.757 c-0.088-0.156-0.068-0.112-0.244-0.361C17.376,17.533,17.425,17.601,17.445,17.757 M16.148,17.981c0.56,0,0.468-0.112,1.208-0.424 c-0.536,0.063-0.648,0.244-1.208,0.244h-0.112 M16.148,17.152c0.156,0,0.2-0.112,0.38-0.112s0.424,0.068,0.536,0.156 c0.024,0.019-0.068-0.18-0.244-0.2c-0.18-0.024-0.112-0.317-0.317-0.361c0,0.093,0.068,0.068,0.093,0.2c0,0.112-0.2,0.112-0.249,0 c0.049,0.18-0.088,0.18-0.2,0.18"/><path d="M14.336,15.496c0.156,0.18,0.249-0.132,0.804-0.132c0.56,0,0.648,0.336,0.741,0.268c0.088-0.068-0.468-0.468-0.648-0.492 C15.052,15.116,14.535,15.296,14.336,15.496 M14.984,15.7c-0.156,0.132-0.019,0.424,0.136,0.424s0.448-0.268,0.312-0.448"/><path d="M15.724,15.9c-0.024-0.268-0.249-0.312-0.604-0.312c-0.361,0-0.517,0.268-0.648,0.331c0.156,0,0.288-0.219,0.648-0.219 c0.356,0,0.356,0,0.604,0.219 M15.656,15.968c-0.088-0.136-0.2,0.132-0.448,0.132c-0.244,0-0.38-0.068-0.536-0.175 c-0.156-0.112,0.224,0.268,0.468,0.268C15.388,16.188,15.724,16.056,15.656,15.968"/><path d="M14.896,16.1c-0.292-0.156-0.112-0.38,0-0.424C14.852,15.72,14.672,15.944,14.896,16.1 M16.148,17.445 c-0.136,0-0.18-0.049-0.361-0.049c-0.175,0-0.599,0.249-0.848,0.156c0.517,0.205,0.312,0.068,1.208,0.068h0.112 M14.852,17.757 c0.088-0.156,0.063-0.112,0.244-0.361C14.916,17.533,14.872,17.601,14.852,17.757 M16.148,17.981c-0.56,0-0.468-0.112-1.208-0.424 c0.536,0.063,0.648,0.244,1.208,0.244h0.112 M16.148,17.152c-0.156,0-0.2-0.112-0.38-0.112s-0.424,0.068-0.536,0.156 c-0.024,0.019,0.068-0.18,0.244-0.2c0.18-0.024,0.112-0.317,0.312-0.361c0,0.093-0.063,0.068-0.088,0.2c0,0.112,0.2,0.112,0.244,0 c-0.044,0.18,0.093,0.18,0.205,0.18"/><path d="M16.148,18.181c-0.112,0-0.404,0.068,0,0.068C16.553,18.249,16.261,18.181,16.148,18.181"/></svg>