<svg xmlns="http://www.w3.org/2000/svg" viewBox="0 0 48 48"><linearGradient id="7sc1xMoK5nW8I7I8EiDmpa" x1="10.266" x2="38.175" y1="-14.957" y2="12.952" gradientTransform="translate(0 25)" gradientUnits="userSpaceOnUse"><stop offset="0" stop-color="#0d61a9"/><stop offset="1" stop-color="#16528c"/></linearGradient><path fill="url(#7sc1xMoK5nW8I7I8EiDmpa)" d="M44.223,24c0-2.467-0.468-4.818-1.284-7H5.507c-0.816,2.182-1.284,4.533-1.284,7s0.468,4.818,1.284,7h37.431C43.755,28.818,44.223,26.467,44.223,24z"/><linearGradient id="7sc1xMoK5nW8I7I8EiDmpb" x1="19.859" x2="32.434" y1="19.011" y2="53.56" gradientUnits="userSpaceOnUse"><stop offset="0" stop-color="#f44f5a"/><stop offset=".443" stop-color="#ee3d4a"/><stop offset="1" stop-color="#e52030"/></linearGradient><path fill="url(#7sc1xMoK5nW8I7I8EiDmpb)" d="M42.939,31H5.507c2.841,7.588,10.137,13,18.716,13S40.098,38.588,42.939,31z"/><linearGradient id="7sc1xMoK5nW8I7I8EiDmpc" x1="14.52" x2="42.482" y1="-18.976" y2="8.986" gradientTransform="translate(0 25)" gradientUnits="userSpaceOnUse"><stop offset="0" stop-color="#ffd000"/><stop offset="1" stop-color="#ffc107"/></linearGradient><path fill="url(#7sc1xMoK5nW8I7I8EiDmpc)" d="M24.223,4C15.644,4,8.348,9.412,5.507,17h37.431C40.098,9.412,32.802,4,24.223,4z"/><path fill="#fff" d="M26.115,20.004L25.976,19l-0.473,0.896l-0.993-0.174l0.698,0.729l-0.473,0.896l0.905-0.445 l0.698,0.733L26.2,20.626l0.905-0.442L26.115,20.004z"/><path fill="#fff" d="M29.348,21.969l1.001-0.11l-0.871-0.506l0.209-0.996l-0.75,0.681l-0.871-0.506l0.407,0.926 l-0.746,0.681l1.001-0.11l0.412,0.93L29.348,21.969z"/><path fill="#fff" d="M31.848,24.311l0.975,0.249l-0.646-0.777l0.533-0.864l-0.932,0.385l-0.65-0.781l0.07,1.013 l-0.932,0.38l0.975,0.249l0.073,1.013L31.848,24.311z"/><path fill="#fff" d="M33.89,26.992l0.798-0.629l-1.01,0.039l-0.343-0.956l-0.277,0.978l-1.005,0.035l0.832,0.568 L32.607,28l0.793-0.625l0.837,0.568L33.89,26.992z"/><path fill="#fff" d="M21.885,20.004L22.024,19l0.473,0.896l0.993-0.174l-0.698,0.729l0.473,0.896l-0.905-0.445 l-0.698,0.733l0.139-1.008l-0.905-0.442L21.885,20.004z"/><path fill="#fff" d="M18.652,21.969l-1.001-0.11l0.871-0.506l-0.209-0.996l0.75,0.681l0.871-0.506l-0.407,0.926 l0.746,0.681l-1.001-0.11l-0.412,0.93L18.652,21.969z"/><path fill="#fff" d="M16.152,24.311l-0.975,0.249l0.646-0.777l-0.533-0.864l0.932,0.385l0.65-0.781l-0.07,1.013 l0.932,0.38l-0.975,0.249l-0.073,1.013L16.152,24.311z"/><path fill="#fff" d="M14.11,26.992l-0.798-0.629l1.01,0.039l0.343-0.956l0.277,0.978l1.005,0.035l-0.832,0.568L15.393,28 l-0.793-0.625l-0.837,0.568L14.11,26.992z"/></svg>